<svg xmlns="http://www.w3.org/2000/svg" xmlns:xlink="http://www.w3.org/1999/xlink" width="500" zoomAndPan="magnify" viewBox="0 0 375 374.999991" height="500" preserveAspectRatio="xMidYMid meet" version="1.0"><defs><clipPath id="129c8b774a"><path d="M 5.488281 5.488281 L 85.738281 5.488281 L 85.738281 85.738281 L 5.488281 85.738281 Z M 5.488281 5.488281 " clip-rule="nonzero"/></clipPath></defs><path fill="#000000" d="M 266.128906 356.855469 C 266.128906 360.1875 263.410156 362.902344 260.082031 362.902344 L 163.304688 362.902344 C 159.976562 362.902344 157.257812 360.1875 157.257812 356.855469 L 157.257812 344.757812 C 157.257812 341.425781 159.976562 338.710938 163.304688 338.710938 L 169.355469 338.710938 L 169.355469 350.804688 L 181.453125 350.804688 L 181.453125 338.710938 L 193.546875 338.710938 L 193.546875 350.804688 L 205.644531 350.804688 L 205.644531 338.710938 L 217.742188 338.710938 L 217.742188 350.804688 L 229.839844 350.804688 L 229.839844 338.710938 L 241.933594 338.710938 L 241.933594 350.804688 L 254.03125 350.804688 L 254.03125 338.710938 L 260.082031 338.710938 C 263.410156 338.710938 266.128906 341.425781 266.128906 344.757812 Z M 139.113281 362.902344 L 42.339844 362.902344 C 39.007812 362.902344 36.289062 360.1875 36.289062 356.855469 L 36.289062 344.757812 C 36.289062 341.425781 39.007812 338.710938 42.339844 338.710938 L 48.386719 338.710938 L 48.386719 350.804688 L 60.484375 350.804688 L 60.484375 338.710938 L 72.582031 338.710938 L 72.582031 350.804688 L 84.675781 350.804688 L 84.675781 338.710938 L 96.773438 338.710938 L 96.773438 350.804688 L 108.871094 350.804688 L 108.871094 338.710938 L 120.96875 338.710938 L 120.96875 350.804688 L 133.066406 350.804688 L 133.066406 338.710938 L 139.113281 338.710938 C 142.445312 338.710938 145.160156 341.425781 145.160156 344.757812 L 145.160156 356.855469 C 145.160156 360.1875 142.445312 362.902344 139.113281 362.902344 Z M 36.289062 272.175781 C 36.289062 268.847656 39.007812 266.128906 42.339844 266.128906 L 48.386719 266.128906 L 48.386719 278.226562 L 60.484375 278.226562 L 60.484375 266.128906 L 72.582031 266.128906 L 72.582031 278.226562 L 84.675781 278.226562 L 84.675781 266.128906 L 96.773438 266.128906 L 96.773438 278.226562 L 108.871094 278.226562 L 108.871094 266.128906 L 120.96875 266.128906 L 120.96875 278.226562 L 133.066406 278.226562 L 133.066406 266.128906 L 139.113281 266.128906 C 142.445312 266.128906 145.160156 268.847656 145.160156 272.175781 L 145.160156 284.273438 C 145.160156 287.605469 142.445312 290.324219 139.113281 290.324219 L 42.339844 290.324219 C 39.007812 290.324219 36.289062 287.605469 36.289062 284.273438 Z M 12.097656 175.402344 C 12.097656 132.046875 47.371094 96.773438 90.726562 96.773438 C 134.082031 96.773438 169.355469 132.046875 169.355469 175.402344 C 169.355469 218.757812 134.082031 254.03125 90.726562 254.03125 C 47.371094 254.03125 12.097656 218.757812 12.097656 175.402344 Z M 247.984375 12.097656 C 311.351562 12.097656 362.902344 63.648438 362.902344 127.015625 C 362.902344 190.382812 311.351562 241.933594 247.984375 241.933594 C 220.269531 241.933594 193.808594 231.871094 172.875 213.679688 C 178.308594 202.03125 181.453125 189.082031 181.453125 175.402344 C 181.453125 142.324219 163.589844 113.40625 137.082031 97.554688 C 150.382812 47.039062 195.320312 12.097656 247.984375 12.097656 Z M 42.339844 326.613281 C 39.007812 326.613281 36.289062 323.894531 36.289062 320.566406 L 36.289062 308.46875 C 36.289062 305.136719 39.007812 302.417969 42.339844 302.417969 L 48.386719 302.417969 L 48.386719 314.515625 L 60.484375 314.515625 L 60.484375 302.417969 L 72.582031 302.417969 L 72.582031 314.515625 L 84.675781 314.515625 L 84.675781 302.417969 L 96.773438 302.417969 L 96.773438 314.515625 L 108.871094 314.515625 L 108.871094 302.417969 L 120.96875 302.417969 L 120.96875 314.515625 L 133.066406 314.515625 L 133.066406 302.417969 L 139.113281 302.417969 C 142.445312 302.417969 145.160156 305.136719 145.160156 308.46875 L 145.160156 320.566406 C 145.160156 323.894531 142.445312 326.613281 139.113281 326.613281 Z M 260.082031 326.613281 L 163.304688 326.613281 C 160.425781 326.613281 157.753906 327.34375 155.320312 328.550781 C 156.527344 326.117188 157.257812 323.445312 157.257812 320.566406 L 157.257812 308.46875 C 157.257812 303.789062 155.4375 299.585938 152.53125 296.371094 C 155.4375 293.15625 157.257812 288.953125 157.257812 284.273438 L 157.257812 272.175781 C 157.257812 262.160156 149.128906 254.03125 139.113281 254.03125 L 135.804688 254.03125 C 148.375 246.777344 159.054688 236.644531 166.921875 224.476562 C 189.746094 243.519531 218.214844 254.03125 247.984375 254.03125 C 318.011719 254.03125 375 197.046875 375 127.015625 C 375 56.988281 318.011719 0 247.984375 0 C 190.691406 0 141.640625 37.425781 126.09375 91.859375 C 115.226562 87.230469 103.269531 84.675781 90.726562 84.675781 C 40.707031 84.675781 0 125.386719 0 175.402344 C 0 209.023438 18.429688 238.34375 45.644531 254.03125 L 42.339844 254.03125 C 32.320312 254.03125 24.195312 262.160156 24.195312 272.175781 L 24.195312 284.273438 C 24.195312 288.953125 26.011719 293.15625 28.917969 296.371094 C 26.011719 299.585938 24.195312 303.789062 24.195312 308.46875 L 24.195312 320.566406 C 24.195312 325.21875 26.011719 329.449219 28.917969 332.660156 C 26.011719 335.875 24.195312 340.105469 24.195312 344.757812 L 24.195312 356.855469 C 24.195312 366.871094 32.320312 375 42.339844 375 L 139.113281 375 C 143.765625 375 147.996094 373.179688 151.210938 370.273438 C 154.421875 373.179688 158.652344 375 163.304688 375 L 260.082031 375 C 270.097656 375 278.226562 366.871094 278.226562 356.855469 L 278.226562 344.757812 C 278.226562 334.742188 270.097656 326.613281 260.082031 326.613281 " fill-opacity="1" fill-rule="nonzero"/><path fill="#000000" d="M 96.773438 157.257812 C 100.105469 157.257812 102.824219 159.976562 102.824219 163.304688 L 114.917969 163.304688 C 114.917969 153.289062 106.792969 145.160156 96.773438 145.160156 L 96.773438 133.066406 L 84.675781 133.066406 L 84.675781 145.160156 L 66.53125 145.160156 L 66.53125 163.304688 C 66.53125 173.324219 74.660156 181.453125 84.675781 181.453125 L 96.773438 181.453125 C 100.105469 181.453125 102.824219 184.167969 102.824219 187.5 L 102.824219 193.546875 L 84.675781 193.546875 C 81.347656 193.546875 78.628906 190.832031 78.628906 187.5 L 66.53125 187.5 C 66.53125 197.519531 74.660156 205.644531 84.675781 205.644531 L 84.675781 217.742188 L 96.773438 217.742188 L 96.773438 205.644531 L 114.917969 205.644531 L 114.917969 187.5 C 114.917969 177.480469 106.792969 169.355469 96.773438 169.355469 L 84.675781 169.355469 C 81.347656 169.355469 78.628906 166.636719 78.628906 163.304688 L 78.628906 157.257812 L 96.773438 157.257812 " fill-opacity="1" fill-rule="nonzero"/><path fill="#000000" d="M 90.726562 229.839844 C 60.71875 229.839844 36.289062 205.433594 36.289062 175.402344 C 36.289062 145.398438 60.71875 120.96875 90.726562 120.96875 C 120.730469 120.96875 145.160156 145.398438 145.160156 175.402344 C 145.160156 205.433594 120.730469 229.839844 90.726562 229.839844 Z M 90.726562 108.871094 C 54.035156 108.871094 24.195312 138.710938 24.195312 175.402344 C 24.195312 212.09375 54.035156 241.933594 90.726562 241.933594 C 127.417969 241.933594 157.257812 212.09375 157.257812 175.402344 C 157.257812 138.710938 127.417969 108.871094 90.726562 108.871094 " fill-opacity="1" fill-rule="nonzero"/><path fill="#000000" d="M 225.300781 39.148438 L 222.277344 27.429688 C 190.855469 35.511719 164.84375 58.332031 152.628906 88.457031 L 163.851562 92.992188 C 174.601562 66.414062 197.589844 46.285156 225.300781 39.148438 " fill-opacity="1" fill-rule="nonzero"/><path fill="#000000" d="M 247.984375 36.289062 L 247.984375 24.195312 C 243.683594 24.195312 239.359375 24.453125 235.132812 24.996094 L 236.644531 37 C 240.375 36.527344 244.179688 36.289062 247.984375 36.289062 " fill-opacity="1" fill-rule="nonzero"/><path fill="#000000" d="M 293.347656 205.597656 L 299.394531 216.0625 C 331.101562 197.730469 350.804688 163.613281 350.804688 127.015625 L 338.710938 127.015625 C 338.710938 159.3125 321.320312 189.414062 293.347656 205.597656 " fill-opacity="1" fill-rule="nonzero"/><path fill="#000000" d="M 270.664062 214.882812 L 273.691406 226.601562 C 278.058594 225.46875 282.382812 224.050781 286.542969 222.371094 L 282.007812 211.148438 C 278.34375 212.636719 274.515625 213.890625 270.664062 214.882812 " fill-opacity="1" fill-rule="nonzero"/><path fill="#000000" d="M 247.984375 217.742188 L 247.984375 229.839844 C 252.285156 229.839844 256.609375 229.578125 260.835938 229.035156 L 259.324219 217.03125 C 255.589844 217.503906 251.789062 217.742188 247.984375 217.742188 " fill-opacity="1" fill-rule="nonzero"/><path fill="#000000" d="M 266.128906 157.257812 C 266.128906 150.59375 271.5625 145.160156 278.226562 145.160156 C 284.886719 145.160156 290.324219 150.59375 290.324219 157.257812 C 290.324219 163.921875 284.886719 169.355469 278.226562 169.355469 C 271.5625 169.355469 266.128906 163.921875 266.128906 157.257812 Z M 302.417969 157.257812 C 302.417969 143.910156 291.574219 133.066406 278.226562 133.066406 C 264.875 133.066406 254.03125 143.910156 254.03125 157.257812 C 254.03125 170.605469 264.875 181.453125 278.226562 181.453125 C 291.574219 181.453125 302.417969 170.605469 302.417969 157.257812 " fill-opacity="1" fill-rule="nonzero"/><path fill="#000000" d="M 229.839844 96.773438 C 229.839844 103.4375 224.40625 108.871094 217.742188 108.871094 C 211.078125 108.871094 205.644531 103.4375 205.644531 96.773438 C 205.644531 90.113281 211.078125 84.675781 217.742188 84.675781 C 224.40625 84.675781 229.839844 90.113281 229.839844 96.773438 Z M 193.546875 96.773438 C 193.546875 110.125 204.394531 120.96875 217.742188 120.96875 C 231.089844 120.96875 241.933594 110.125 241.933594 96.773438 C 241.933594 83.425781 231.089844 72.582031 217.742188 72.582031 C 204.394531 72.582031 193.546875 83.425781 193.546875 96.773438 " fill-opacity="1" fill-rule="nonzero"/><path fill="#000000" d="M 191.777344 191.777344 L 312.742188 70.808594 L 304.191406 62.253906 L 183.222656 183.222656 L 191.777344 191.777344 " fill-opacity="1" fill-rule="nonzero"/><path fill="#000000" d="M 266.128906 278.226562 L 350.804688 278.226562 L 350.804688 266.128906 L 266.128906 266.128906 L 266.128906 278.226562 " fill-opacity="1" fill-rule="nonzero"/><path fill="#000000" d="M 266.128906 302.417969 L 350.804688 302.417969 L 350.804688 290.324219 L 266.128906 290.324219 L 266.128906 302.417969 " fill-opacity="1" fill-rule="nonzero"/><path fill="#000000" d="M 314.515625 326.613281 L 326.613281 326.613281 L 326.613281 314.515625 L 314.515625 314.515625 L 314.515625 326.613281 " fill-opacity="1" fill-rule="nonzero"/><path fill="#000000" d="M 338.710938 326.613281 L 350.804688 326.613281 L 350.804688 314.515625 L 338.710938 314.515625 L 338.710938 326.613281 " fill-opacity="1" fill-rule="nonzero"/><path fill="#000000" d="M 290.324219 326.613281 L 302.417969 326.613281 L 302.417969 314.515625 L 290.324219 314.515625 L 290.324219 326.613281 " fill-opacity="1" fill-rule="nonzero"/><g clip-path="url(#129c8b774a)"><path fill="#000000" d="M 45.613281 5.488281 C 23.496094 5.488281 5.488281 23.496094 5.488281 45.613281 C 5.488281 67.730469 23.496094 85.738281 45.613281 85.738281 C 67.730469 85.738281 85.738281 67.730469 85.738281 45.613281 C 85.738281 23.496094 67.730469 5.488281 45.613281 5.488281 Z M 45.613281 12.78125 C 63.785156 12.78125 78.441406 27.4375 78.441406 45.613281 C 78.441406 63.785156 63.785156 78.441406 45.613281 78.441406 C 27.4375 78.441406 12.78125 63.785156 12.78125 45.613281 C 12.78125 27.4375 27.4375 12.78125 45.613281 12.78125 Z M 41.964844 23.726562 L 41.964844 28.890625 C 37.925781 30.507812 34.667969 33.730469 34.667969 38.316406 C 34.667969 44.316406 39.609375 49.257812 45.613281 49.257812 C 47.671875 49.257812 49.257812 50.847656 49.257812 52.90625 C 49.257812 54.96875 47.671875 56.554688 45.613281 56.554688 C 43.550781 56.554688 41.964844 54.96875 41.964844 52.90625 L 34.667969 52.90625 C 34.667969 57.492188 37.925781 60.714844 41.964844 62.332031 L 41.964844 67.496094 L 49.257812 67.496094 L 49.257812 62.332031 C 53.296875 60.714844 56.554688 57.492188 56.554688 52.90625 C 56.554688 46.90625 51.613281 41.964844 45.613281 41.964844 C 43.550781 41.964844 41.964844 40.378906 41.964844 38.316406 C 41.964844 36.253906 43.550781 34.667969 45.613281 34.667969 C 47.671875 34.667969 49.257812 36.253906 49.257812 38.316406 L 56.554688 38.316406 C 56.554688 33.730469 53.296875 30.507812 49.257812 28.890625 L 49.257812 23.726562 Z M 41.964844 23.726562 " fill-opacity="1" fill-rule="nonzero"/></g></svg>