<svg xmlns="http://www.w3.org/2000/svg" xmlns:xlink="http://www.w3.org/1999/xlink" width="500" zoomAndPan="magnify" viewBox="0 0 375 374.999991" height="500" preserveAspectRatio="xMidYMid meet" version="1.0"><defs><clipPath id="4842ab89f7"><path d="M 332 49.433594 L 375 49.433594 L 375 93 L 332 93 Z M 332 49.433594 " clip-rule="nonzero"/></clipPath></defs><path fill="#000000" d="M 181.664062 257.214844 L 308.21875 257.214844 L 308.21875 273.085938 L 181.664062 273.085938 Z M 181.664062 257.214844 " fill-opacity="1" fill-rule="nonzero"/><path fill="#000000" d="M 261.050781 226.40625 L 308.21875 226.40625 L 308.21875 242.277344 L 261.050781 242.277344 Z M 261.050781 226.40625 " fill-opacity="1" fill-rule="nonzero"/><path fill="#000000" d="M 347.445312 102.710938 C 348.382812 101.777344 348.382812 99.910156 347.445312 98.511719 L 326.433594 77.503906 C 325.964844 77.039062 325.03125 76.570312 324.5625 76.570312 C 324.097656 76.570312 323.164062 77.039062 322.695312 77.503906 L 193.804688 205.871094 C 192.871094 206.804688 192.871094 208.671875 193.804688 210.070312 L 198.007812 214.273438 L 183.996094 228.273438 C 180.730469 231.542969 180.730469 236.210938 183.996094 239.476562 C 185.398438 240.878906 187.734375 241.8125 189.601562 241.8125 C 191.46875 241.8125 193.804688 240.878906 195.207031 239.476562 L 210.617188 224.074219 C 212.484375 225.007812 214.820312 225.007812 216.6875 225.007812 C 221.824219 225.007812 226.496094 223.140625 229.761719 219.40625 L 302.148438 147.054688 L 349.78125 147.054688 L 349.78125 296.425781 C 349.78125 302.960938 344.179688 308.5625 337.640625 308.5625 L 151.308594 308.5625 C 160.179688 299.226562 165.785156 286.621094 165.785156 272.621094 L 165.785156 144.253906 L 222.292969 144.253906 C 226.496094 144.253906 230.230469 140.519531 230.230469 136.320312 C 230.230469 132.117188 226.960938 128.851562 222.292969 128.851562 L 165.785156 128.851562 L 165.785156 125.117188 C 165.785156 96.644531 142.433594 73.304688 113.949219 73.304688 L 0 73.304688 L 0 237.144531 L 58.375 237.144531 L 58.375 324.898438 L 338.105469 324.898438 C 353.519531 324.898438 365.660156 312.296875 365.660156 296.890625 L 365.660156 131.652344 L 318.492188 131.652344 Z M 70.515625 190.464844 C 56.507812 190.464844 44.832031 180.664062 44.832031 168.058594 L 60.710938 168.058594 C 60.710938 171.328125 64.914062 174.59375 70.515625 174.59375 L 84.527344 174.59375 C 90.128906 174.59375 94.332031 171.328125 94.332031 168.058594 L 94.332031 167.125 C 94.332031 167.125 92.933594 165.257812 89.195312 163.394531 L 78.457031 161.527344 L 61.644531 158.257812 L 59.777344 157.792969 L 58.84375 157.324219 C 49.5 152.65625 44.363281 146.589844 44.363281 139.121094 L 44.363281 138.1875 C 44.363281 126.050781 56.039062 115.78125 70.050781 115.78125 L 70.515625 115.78125 L 70.515625 108.777344 L 86.863281 108.777344 L 86.863281 116.246094 C 99.9375 117.179688 110.679688 126.515625 110.679688 138.1875 L 94.800781 138.1875 C 94.800781 134.917969 90.597656 131.652344 84.992188 131.652344 L 70.984375 131.652344 C 65.378906 131.652344 61.175781 134.917969 61.175781 138.1875 L 61.175781 139.121094 C 61.175781 139.121094 62.109375 140.519531 65.847656 142.855469 L 83.125 146.121094 L 94.800781 148.457031 L 95.734375 148.921875 C 107.875 154.992188 110.210938 162.460938 110.210938 167.125 L 110.210938 168.058594 C 110.210938 179.730469 99.9375 189.066406 86.394531 190 L 86.394531 197.933594 L 70.515625 197.933594 Z M 113.949219 309.027344 L 74.253906 309.027344 L 74.253906 237.144531 L 113.949219 237.144531 C 133.5625 237.144531 149.90625 253.015625 149.90625 273.085938 C 149.90625 293.15625 134.027344 309.027344 113.949219 309.027344 Z M 113.949219 309.027344 " fill-opacity="1" fill-rule="nonzero"/><g clip-path="url(#4842ab89f7)"><path fill="#000000" d="M 353.050781 50.898438 C 352.585938 50.433594 351.648438 49.964844 351.183594 49.964844 C 350.714844 49.964844 349.78125 50.433594 349.316406 50.898438 L 332.96875 67.234375 C 332.503906 67.703125 332.035156 68.636719 332.035156 69.101562 C 332.035156 69.570312 332.503906 70.503906 332.96875 70.96875 L 353.984375 91.976562 C 354.453125 92.441406 355.386719 92.910156 355.851562 92.910156 C 356.320312 92.910156 357.253906 92.441406 357.722656 91.976562 L 374.066406 75.636719 C 375 74.703125 375 72.835938 374.066406 71.4375 Z M 353.050781 50.898438 " fill-opacity="1" fill-rule="nonzero"/></g></svg>