<svg xmlns="http://www.w3.org/2000/svg" xmlns:xlink="http://www.w3.org/1999/xlink" width="500" zoomAndPan="magnify" viewBox="0 0 375 374.999991" height="500" preserveAspectRatio="xMidYMid meet" version="1.0"><defs><g/><clipPath id="b52ddd74d6"><path d="M 37.5 92.714844 L 337.5 92.714844 L 337.5 282.265625 L 37.5 282.265625 Z M 37.5 92.714844 " clip-rule="nonzero"/></clipPath><clipPath id="87f771f958"><path d="M 145 92.714844 L 337.5 92.714844 L 337.5 282 L 145 282 Z M 145 92.714844 " clip-rule="nonzero"/></clipPath><clipPath id="c0b406483c"><path d="M 145 92.714844 L 337.5 92.714844 L 337.5 282.265625 L 145 282.265625 Z M 145 92.714844 " clip-rule="nonzero"/></clipPath><clipPath id="5bda35b419"><path d="M 304.636719 227.53125 L 318.15625 227.53125 L 318.15625 240.902344 L 304.636719 240.902344 Z M 304.636719 227.53125 " clip-rule="nonzero"/></clipPath><clipPath id="0d25af680d"><path d="M 280.457031 231.671875 L 329.207031 231.671875 L 329.207031 270.820312 L 280.457031 270.820312 Z M 280.457031 231.671875 " clip-rule="nonzero"/></clipPath></defs><g clip-path="url(#b52ddd74d6)"><path fill="#171717" d="M 325.21875 281.84375 L 50.089844 282.265625 C 43.289062 282.277344 37.761719 276.769531 37.753906 269.96875 L 37.5 105.46875 C 37.488281 98.667969 42.996094 93.144531 49.796875 93.136719 L 324.929688 92.714844 C 331.730469 92.703125 337.253906 98.207031 337.265625 105.011719 L 337.519531 269.507812 C 337.527344 276.3125 332.023438 281.832031 325.21875 281.84375 " fill-opacity="1" fill-rule="nonzero"/></g><g clip-path="url(#87f771f958)"><path fill="#ffffff" d="M 325.21875 281.84375 C 325.226562 281.84375 325.234375 281.84375 325.238281 281.84375 C 325.234375 281.84375 325.226562 281.84375 325.21875 281.84375 M 332.921875 279.125 C 332.9375 279.109375 332.953125 279.097656 332.972656 279.082031 C 332.953125 279.097656 332.9375 279.109375 332.921875 279.125 M 332.984375 279.070312 C 335.75 276.8125 337.519531 273.375 337.519531 269.527344 C 337.519531 273.375 335.75 276.8125 332.984375 279.070312 M 145.296875 92.988281 L 324.929688 92.714844 L 145.296875 92.988281 M 324.957031 92.714844 C 324.953125 92.714844 324.949219 92.714844 324.945312 92.714844 C 324.949219 92.714844 324.953125 92.714844 324.957031 92.714844 " fill-opacity="1" fill-rule="nonzero"/></g><g clip-path="url(#c0b406483c)"><path fill="#1a1a1a" d="M 219.59375 282.007812 L 145.296875 92.988281 L 324.929688 92.714844 C 324.9375 92.714844 324.941406 92.714844 324.945312 92.714844 C 324.949219 92.714844 324.953125 92.714844 324.957031 92.714844 C 331.746094 92.71875 337.253906 98.214844 337.265625 105.011719 L 337.519531 269.507812 C 337.519531 269.515625 337.519531 269.519531 337.519531 269.527344 C 337.519531 273.375 335.75 276.8125 332.984375 279.070312 C 332.980469 279.078125 332.976562 279.078125 332.972656 279.082031 C 332.953125 279.097656 332.9375 279.109375 332.921875 279.125 C 330.820312 280.820312 328.148438 281.832031 325.238281 281.84375 C 325.234375 281.84375 325.226562 281.84375 325.21875 281.84375 L 219.59375 282.007812 M 300.378906 149.753906 L 297.738281 152.398438 C 304.277344 158.914062 304.292969 169.53125 297.773438 176.070312 L 300.421875 178.707031 C 308.394531 170.710938 308.371094 157.722656 300.378906 149.753906 M 294.539062 155.609375 L 291.902344 158.253906 C 295.207031 161.550781 295.21875 166.925781 291.917969 170.230469 L 294.566406 172.867188 C 299.316406 168.105469 299.304688 160.359375 294.539062 155.609375 M 288.910156 161.253906 L 285.921875 164.253906 L 288.921875 167.242188 C 290.570312 165.585938 290.570312 162.90625 288.910156 161.253906 " fill-opacity="1" fill-rule="nonzero"/></g><path fill="#4169e1" d="M 288.921875 167.242188 L 285.921875 164.253906 L 288.910156 161.253906 C 290.570312 162.90625 290.570312 165.585938 288.921875 167.242188 " fill-opacity="1" fill-rule="nonzero"/><path fill="#4169e1" d="M 294.566406 172.867188 L 291.917969 170.230469 C 295.21875 166.925781 295.207031 161.550781 291.902344 158.253906 L 294.539062 155.609375 C 299.304688 160.359375 299.316406 168.105469 294.566406 172.867188 " fill-opacity="1" fill-rule="nonzero"/><path fill="#4169e1" d="M 300.421875 178.707031 L 297.773438 176.070312 C 304.292969 169.53125 304.277344 158.914062 297.738281 152.398438 L 300.378906 149.753906 C 308.371094 157.722656 308.394531 170.710938 300.421875 178.707031 " fill-opacity="1" fill-rule="nonzero"/><path fill="#5d5d5d" d="M 101.695312 170.230469 C 101.609375 169.914062 101.515625 169.640625 101.414062 169.382812 C 100.117188 166.039062 100.066406 162.640625 101.277344 159.8125 C 101.433594 159.441406 101.574219 159.042969 101.695312 158.628906 L 114.296875 158.628906 L 114.296875 170.226562 L 101.695312 170.230469 " fill-opacity="1" fill-rule="nonzero"/><path fill="#5d5d5d" d="M 97.722656 181.816406 C 98.039062 181.589844 98.328125 181.359375 98.59375 181.121094 C 100.84375 179.109375 102.132812 176.226562 102.128906 173.210938 C 102.128906 172.664062 102.082031 172.101562 101.992188 171.542969 L 114.296875 171.535156 L 114.300781 176.710938 C 114.300781 179.523438 112.015625 181.808594 109.203125 181.808594 L 97.722656 181.816406 " fill-opacity="1" fill-rule="nonzero"/><path fill="#5d5d5d" d="M 68.742188 170.238281 L 68.738281 158.640625 L 81.339844 158.636719 C 81.429688 158.945312 81.523438 159.226562 81.625 159.484375 C 82.917969 162.828125 82.96875 166.226562 81.761719 169.054688 C 81.601562 169.429688 81.460938 169.824219 81.339844 170.238281 L 68.742188 170.238281 " fill-opacity="1" fill-rule="nonzero"/><path fill="#5d5d5d" d="M 87.984375 181.816406 L 87.664062 181.667969 C 84.734375 180.320312 82.679688 177.535156 82.296875 174.390625 C 82.09375 172.738281 82.324219 171.070312 82.96875 169.570312 C 84.3125 166.425781 84.265625 162.675781 82.84375 159.011719 C 82.429688 157.945312 82.21875 156.8125 82.21875 155.65625 C 82.21875 153.011719 83.347656 150.484375 85.316406 148.71875 C 86.003906 148.105469 86.785156 147.59375 87.640625 147.199219 L 87.964844 147.050781 L 109.195312 147.042969 C 110.554688 147.042969 111.835938 147.574219 112.796875 148.535156 C 113.761719 149.5 114.292969 150.777344 114.292969 152.140625 L 114.292969 157.316406 L 101.5625 157.320312 L 100.671875 157.308594 L 100.605469 157.597656 C 100.484375 158.183594 100.304688 158.75 100.074219 159.296875 C 98.730469 162.445312 98.769531 166.191406 100.191406 169.855469 C 100.605469 170.925781 100.820312 172.054688 100.820312 173.210938 C 100.820312 175.855469 99.691406 178.378906 97.71875 180.148438 C 97.03125 180.761719 96.25 181.273438 95.398438 181.667969 L 95.078125 181.816406 L 87.984375 181.816406 " fill-opacity="1" fill-rule="nonzero"/><path fill="#5d5d5d" d="M 73.84375 181.824219 C 71.035156 181.824219 68.746094 179.535156 68.742188 176.726562 L 68.742188 171.550781 L 81.046875 171.546875 C 80.890625 172.535156 80.871094 173.546875 80.996094 174.550781 C 81.347656 177.417969 82.953125 180.09375 85.335938 181.816406 L 73.84375 181.824219 " fill-opacity="1" fill-rule="nonzero"/><path fill="#5d5d5d" d="M 68.738281 157.332031 L 68.738281 152.15625 C 68.734375 149.34375 71.023438 147.058594 73.832031 147.058594 L 85.3125 147.050781 C 85 147.273438 84.710938 147.503906 84.445312 147.746094 C 82.195312 149.753906 80.90625 152.640625 80.910156 155.65625 C 80.910156 156.203125 80.953125 156.765625 81.042969 157.324219 L 68.738281 157.332031 " fill-opacity="1" fill-rule="nonzero"/><g fill="#ffffff" fill-opacity="1"><g transform="translate(233.121991, 120.323942)"><g><path d="M 3.609375 -1.59375 C 3.609375 -1.195312 3.660156 -0.90625 3.765625 -0.71875 C 3.867188 -0.539062 4.070312 -0.410156 4.375 -0.328125 C 4.6875 -0.253906 5.175781 -0.21875 5.84375 -0.21875 C 5.875 -0.21875 5.890625 -0.179688 5.890625 -0.109375 C 5.890625 -0.0351562 5.875 0 5.84375 0 C 5.320312 0 4.921875 -0.00390625 4.640625 -0.015625 L 3 -0.03125 L 1.75 -0.015625 C 1.507812 -0.00390625 1.1875 0 0.78125 0 C 0.757812 0 0.75 -0.0351562 0.75 -0.109375 C 0.75 -0.179688 0.757812 -0.21875 0.78125 -0.21875 C 1.257812 -0.21875 1.609375 -0.25 1.828125 -0.3125 C 2.046875 -0.375 2.191406 -0.492188 2.265625 -0.671875 C 2.347656 -0.859375 2.390625 -1.140625 2.390625 -1.515625 L 2.390625 -10.203125 C 2.390625 -10.578125 2.347656 -10.851562 2.265625 -11.03125 C 2.191406 -11.207031 2.046875 -11.328125 1.828125 -11.390625 C 1.609375 -11.460938 1.257812 -11.5 0.78125 -11.5 C 0.757812 -11.5 0.75 -11.535156 0.75 -11.609375 C 0.75 -11.691406 0.757812 -11.734375 0.78125 -11.734375 L 1.71875 -11.703125 C 2.25 -11.679688 2.671875 -11.671875 2.984375 -11.671875 C 3.296875 -11.671875 3.644531 -11.691406 4.03125 -11.734375 C 4.1875 -11.734375 4.425781 -11.738281 4.75 -11.75 C 5.070312 -11.769531 5.351562 -11.78125 5.59375 -11.78125 C 6.738281 -11.78125 7.660156 -11.523438 8.359375 -11.015625 C 9.054688 -10.503906 9.40625 -9.722656 9.40625 -8.671875 C 9.40625 -7.847656 9.203125 -7.15625 8.796875 -6.59375 C 8.390625 -6.03125 7.867188 -5.609375 7.234375 -5.328125 C 6.597656 -5.054688 5.941406 -4.921875 5.265625 -4.921875 C 4.890625 -4.921875 4.585938 -4.953125 4.359375 -5.015625 C 4.316406 -5.015625 4.296875 -5.046875 4.296875 -5.109375 C 4.296875 -5.140625 4.304688 -5.171875 4.328125 -5.203125 C 4.347656 -5.242188 4.367188 -5.257812 4.390625 -5.25 C 4.585938 -5.195312 4.8125 -5.171875 5.0625 -5.171875 C 5.894531 -5.171875 6.59375 -5.441406 7.15625 -5.984375 C 7.726562 -6.523438 8.015625 -7.300781 8.015625 -8.3125 C 8.015625 -9.300781 7.742188 -10.078125 7.203125 -10.640625 C 6.671875 -11.210938 5.984375 -11.5 5.140625 -11.5 C 4.691406 -11.5 4.363281 -11.472656 4.15625 -11.421875 C 3.957031 -11.378906 3.816406 -11.265625 3.734375 -11.078125 C 3.648438 -10.898438 3.609375 -10.597656 3.609375 -10.171875 Z M 3.609375 -1.59375 "/></g></g></g><g fill="#ffffff" fill-opacity="1"><g transform="translate(243.30959, 120.323942)"><g><path d="M 2.578125 -9.609375 C 2.304688 -9.609375 2.097656 -9.675781 1.953125 -9.8125 C 1.816406 -9.945312 1.75 -10.140625 1.75 -10.390625 C 1.75 -10.640625 1.816406 -10.832031 1.953125 -10.96875 C 2.097656 -11.113281 2.304688 -11.1875 2.578125 -11.1875 C 2.828125 -11.1875 3.019531 -11.113281 3.15625 -10.96875 C 3.289062 -10.832031 3.359375 -10.640625 3.359375 -10.390625 C 3.359375 -10.140625 3.289062 -9.945312 3.15625 -9.8125 C 3.019531 -9.675781 2.828125 -9.609375 2.578125 -9.609375 Z M 1 0 C 0.96875 0 0.953125 -0.0351562 0.953125 -0.109375 C 0.953125 -0.179688 0.96875 -0.21875 1 -0.21875 C 1.332031 -0.21875 1.582031 -0.253906 1.75 -0.328125 C 1.925781 -0.398438 2.046875 -0.523438 2.109375 -0.703125 C 2.171875 -0.878906 2.203125 -1.148438 2.203125 -1.515625 L 2.203125 -5.03125 C 2.203125 -5.476562 2.15625 -5.800781 2.0625 -6 C 1.96875 -6.207031 1.804688 -6.3125 1.578125 -6.3125 C 1.347656 -6.3125 1.066406 -6.222656 0.734375 -6.046875 L 0.71875 -6.046875 C 0.664062 -6.046875 0.625 -6.078125 0.59375 -6.140625 C 0.570312 -6.203125 0.582031 -6.242188 0.625 -6.265625 L 3.0625 -7.390625 L 3.140625 -7.40625 C 3.160156 -7.40625 3.1875 -7.390625 3.21875 -7.359375 C 3.257812 -7.328125 3.28125 -7.296875 3.28125 -7.265625 C 3.28125 -7.171875 3.273438 -6.914062 3.265625 -6.5 C 3.253906 -6.09375 3.25 -5.609375 3.25 -5.046875 L 3.25 -1.515625 C 3.25 -1.140625 3.28125 -0.863281 3.34375 -0.6875 C 3.40625 -0.519531 3.515625 -0.398438 3.671875 -0.328125 C 3.835938 -0.253906 4.085938 -0.21875 4.421875 -0.21875 C 4.460938 -0.21875 4.484375 -0.179688 4.484375 -0.109375 C 4.484375 -0.0351562 4.460938 0 4.421875 0 C 4.140625 0 3.910156 -0.00390625 3.734375 -0.015625 L 2.71875 -0.03125 L 1.703125 -0.015625 C 1.523438 -0.00390625 1.289062 0 1 0 Z M 1 0 "/></g></g></g><g fill="#ffffff" fill-opacity="1"><g transform="translate(248.43153, 120.323942)"><g><path d="M 4.734375 -0.453125 C 5.410156 -0.441406 5.953125 -0.40625 6.359375 -0.34375 C 6.773438 -0.289062 7.15625 -0.128906 7.5 0.140625 C 7.851562 0.421875 8.03125 0.863281 8.03125 1.46875 C 8.03125 2.144531 7.8125 2.769531 7.375 3.34375 C 6.9375 3.925781 6.359375 4.390625 5.640625 4.734375 C 4.921875 5.078125 4.164062 5.25 3.375 5.25 C 2.507812 5.25 1.828125 5.054688 1.328125 4.671875 C 0.835938 4.296875 0.59375 3.800781 0.59375 3.1875 C 0.59375 2.257812 1.238281 1.347656 2.53125 0.453125 C 2.050781 0.390625 1.6875 0.257812 1.4375 0.0625 C 1.1875 -0.125 1.0625 -0.414062 1.0625 -0.8125 C 1.0625 -1.1875 1.164062 -1.519531 1.375 -1.8125 C 1.59375 -2.101562 1.941406 -2.4375 2.421875 -2.8125 C 1.992188 -3.03125 1.660156 -3.328125 1.421875 -3.703125 C 1.179688 -4.078125 1.0625 -4.488281 1.0625 -4.9375 C 1.0625 -5.632812 1.335938 -6.210938 1.890625 -6.671875 C 2.453125 -7.140625 3.171875 -7.375 4.046875 -7.375 C 4.859375 -7.375 5.507812 -7.179688 6 -6.796875 C 6.34375 -6.992188 6.671875 -7.140625 6.984375 -7.234375 C 7.304688 -7.335938 7.648438 -7.390625 8.015625 -7.390625 C 8.035156 -7.390625 8.054688 -7.34375 8.078125 -7.25 C 8.097656 -7.164062 8.109375 -7.078125 8.109375 -6.984375 C 8.109375 -6.828125 8.09375 -6.675781 8.0625 -6.53125 C 8.03125 -6.382812 7.988281 -6.320312 7.9375 -6.34375 C 7.726562 -6.425781 7.523438 -6.492188 7.328125 -6.546875 C 7.128906 -6.597656 6.914062 -6.625 6.6875 -6.625 C 6.5625 -6.625 6.410156 -6.613281 6.234375 -6.59375 C 6.660156 -6.125 6.875 -5.582031 6.875 -4.96875 C 6.875 -4.53125 6.75 -4.117188 6.5 -3.734375 C 6.257812 -3.359375 5.910156 -3.054688 5.453125 -2.828125 C 5.003906 -2.609375 4.492188 -2.5 3.921875 -2.5 C 3.484375 -2.5 3.078125 -2.566406 2.703125 -2.703125 C 2.453125 -2.492188 2.273438 -2.289062 2.171875 -2.09375 C 2.066406 -1.90625 2.015625 -1.703125 2.015625 -1.484375 C 2.015625 -1.203125 2.097656 -0.988281 2.265625 -0.84375 C 2.429688 -0.707031 2.707031 -0.609375 3.09375 -0.546875 C 3.476562 -0.484375 4.023438 -0.453125 4.734375 -0.453125 Z M 3.609375 -7.09375 C 2.691406 -7.09375 2.234375 -6.523438 2.234375 -5.390625 C 2.234375 -4.828125 2.332031 -4.347656 2.53125 -3.953125 C 2.726562 -3.554688 2.984375 -3.257812 3.296875 -3.0625 C 3.609375 -2.875 3.9375 -2.78125 4.28125 -2.78125 C 4.707031 -2.78125 5.046875 -2.925781 5.296875 -3.21875 C 5.554688 -3.507812 5.6875 -3.957031 5.6875 -4.5625 C 5.6875 -5.332031 5.484375 -5.945312 5.078125 -6.40625 C 4.679688 -6.863281 4.191406 -7.09375 3.609375 -7.09375 Z M 4.140625 4.6875 C 5.003906 4.6875 5.710938 4.457031 6.265625 4 C 6.816406 3.550781 7.09375 2.941406 7.09375 2.171875 C 7.09375 1.671875 6.96875 1.304688 6.71875 1.078125 C 6.476562 0.847656 6.15625 0.703125 5.75 0.640625 C 5.351562 0.578125 4.800781 0.546875 4.09375 0.546875 C 3.789062 0.546875 3.414062 0.53125 2.96875 0.5 C 2.550781 0.769531 2.234375 1.0625 2.015625 1.375 C 1.796875 1.695312 1.6875 2.097656 1.6875 2.578125 C 1.6875 3.222656 1.898438 3.734375 2.328125 4.109375 C 2.765625 4.492188 3.367188 4.6875 4.140625 4.6875 Z M 4.140625 4.6875 "/></g></g></g><g fill="#ffffff" fill-opacity="1"><g transform="translate(256.780486, 120.323942)"><g><path d="M 4.734375 -0.453125 C 5.410156 -0.441406 5.953125 -0.40625 6.359375 -0.34375 C 6.773438 -0.289062 7.15625 -0.128906 7.5 0.140625 C 7.851562 0.421875 8.03125 0.863281 8.03125 1.46875 C 8.03125 2.144531 7.8125 2.769531 7.375 3.34375 C 6.9375 3.925781 6.359375 4.390625 5.640625 4.734375 C 4.921875 5.078125 4.164062 5.25 3.375 5.25 C 2.507812 5.25 1.828125 5.054688 1.328125 4.671875 C 0.835938 4.296875 0.59375 3.800781 0.59375 3.1875 C 0.59375 2.257812 1.238281 1.347656 2.53125 0.453125 C 2.050781 0.390625 1.6875 0.257812 1.4375 0.0625 C 1.1875 -0.125 1.0625 -0.414062 1.0625 -0.8125 C 1.0625 -1.1875 1.164062 -1.519531 1.375 -1.8125 C 1.59375 -2.101562 1.941406 -2.4375 2.421875 -2.8125 C 1.992188 -3.03125 1.660156 -3.328125 1.421875 -3.703125 C 1.179688 -4.078125 1.0625 -4.488281 1.0625 -4.9375 C 1.0625 -5.632812 1.335938 -6.210938 1.890625 -6.671875 C 2.453125 -7.140625 3.171875 -7.375 4.046875 -7.375 C 4.859375 -7.375 5.507812 -7.179688 6 -6.796875 C 6.34375 -6.992188 6.671875 -7.140625 6.984375 -7.234375 C 7.304688 -7.335938 7.648438 -7.390625 8.015625 -7.390625 C 8.035156 -7.390625 8.054688 -7.34375 8.078125 -7.25 C 8.097656 -7.164062 8.109375 -7.078125 8.109375 -6.984375 C 8.109375 -6.828125 8.09375 -6.675781 8.0625 -6.53125 C 8.03125 -6.382812 7.988281 -6.320312 7.9375 -6.34375 C 7.726562 -6.425781 7.523438 -6.492188 7.328125 -6.546875 C 7.128906 -6.597656 6.914062 -6.625 6.6875 -6.625 C 6.5625 -6.625 6.410156 -6.613281 6.234375 -6.59375 C 6.660156 -6.125 6.875 -5.582031 6.875 -4.96875 C 6.875 -4.53125 6.75 -4.117188 6.5 -3.734375 C 6.257812 -3.359375 5.910156 -3.054688 5.453125 -2.828125 C 5.003906 -2.609375 4.492188 -2.5 3.921875 -2.5 C 3.484375 -2.5 3.078125 -2.566406 2.703125 -2.703125 C 2.453125 -2.492188 2.273438 -2.289062 2.171875 -2.09375 C 2.066406 -1.90625 2.015625 -1.703125 2.015625 -1.484375 C 2.015625 -1.203125 2.097656 -0.988281 2.265625 -0.84375 C 2.429688 -0.707031 2.707031 -0.609375 3.09375 -0.546875 C 3.476562 -0.484375 4.023438 -0.453125 4.734375 -0.453125 Z M 3.609375 -7.09375 C 2.691406 -7.09375 2.234375 -6.523438 2.234375 -5.390625 C 2.234375 -4.828125 2.332031 -4.347656 2.53125 -3.953125 C 2.726562 -3.554688 2.984375 -3.257812 3.296875 -3.0625 C 3.609375 -2.875 3.9375 -2.78125 4.28125 -2.78125 C 4.707031 -2.78125 5.046875 -2.925781 5.296875 -3.21875 C 5.554688 -3.507812 5.6875 -3.957031 5.6875 -4.5625 C 5.6875 -5.332031 5.484375 -5.945312 5.078125 -6.40625 C 4.679688 -6.863281 4.191406 -7.09375 3.609375 -7.09375 Z M 4.140625 4.6875 C 5.003906 4.6875 5.710938 4.457031 6.265625 4 C 6.816406 3.550781 7.09375 2.941406 7.09375 2.171875 C 7.09375 1.671875 6.96875 1.304688 6.71875 1.078125 C 6.476562 0.847656 6.15625 0.703125 5.75 0.640625 C 5.351562 0.578125 4.800781 0.546875 4.09375 0.546875 C 3.789062 0.546875 3.414062 0.53125 2.96875 0.5 C 2.550781 0.769531 2.234375 1.0625 2.015625 1.375 C 1.796875 1.695312 1.6875 2.097656 1.6875 2.578125 C 1.6875 3.222656 1.898438 3.734375 2.328125 4.109375 C 2.765625 4.492188 3.367188 4.6875 4.140625 4.6875 Z M 4.140625 4.6875 "/></g></g></g><g fill="#ffffff" fill-opacity="1"><g transform="translate(265.786482, 120.323942)"><g><path d="M 8.09375 -7.25 C 8.125 -7.25 8.140625 -7.207031 8.140625 -7.125 C 8.140625 -7.050781 8.125 -7.015625 8.09375 -7.015625 C 7.78125 -7.015625 7.507812 -6.898438 7.28125 -6.671875 C 7.050781 -6.453125 6.835938 -6.085938 6.640625 -5.578125 L 4.359375 0.53125 C 3.890625 1.738281 3.453125 2.679688 3.046875 3.359375 C 2.640625 4.046875 2.21875 4.535156 1.78125 4.828125 C 1.351562 5.117188 0.859375 5.265625 0.296875 5.265625 C 0.0234375 5.265625 -0.195312 5.203125 -0.375 5.078125 C -0.5625 4.953125 -0.65625 4.773438 -0.65625 4.546875 C -0.65625 4.367188 -0.597656 4.226562 -0.484375 4.125 C -0.367188 4.03125 -0.234375 3.984375 -0.078125 3.984375 C 0.0859375 3.984375 0.222656 4 0.328125 4.03125 C 0.441406 4.070312 0.5625 4.132812 0.6875 4.21875 C 0.71875 4.226562 0.789062 4.265625 0.90625 4.328125 C 1.03125 4.390625 1.175781 4.421875 1.34375 4.421875 C 1.644531 4.421875 1.929688 4.289062 2.203125 4.03125 C 2.472656 3.769531 2.757812 3.328125 3.0625 2.703125 C 3.375 2.085938 3.734375 1.238281 4.140625 0.15625 L 1.296875 -5.6875 C 1.003906 -6.238281 0.78125 -6.597656 0.625 -6.765625 C 0.476562 -6.929688 0.289062 -7.015625 0.0625 -7.015625 C 0.03125 -7.015625 0.015625 -7.050781 0.015625 -7.125 C 0.015625 -7.207031 0.03125 -7.25 0.0625 -7.25 L 0.6875 -7.21875 C 0.84375 -7.207031 1.050781 -7.203125 1.3125 -7.203125 L 2.515625 -7.21875 C 2.691406 -7.238281 2.9375 -7.25 3.25 -7.25 C 3.269531 -7.25 3.28125 -7.207031 3.28125 -7.125 C 3.28125 -7.050781 3.269531 -7.015625 3.25 -7.015625 C 2.519531 -7.015625 2.15625 -6.875 2.15625 -6.59375 C 2.15625 -6.507812 2.1875 -6.40625 2.25 -6.28125 L 4.734375 -1.203125 L 6.234375 -5.515625 C 6.328125 -5.816406 6.375 -6.054688 6.375 -6.234375 C 6.375 -6.515625 6.257812 -6.710938 6.03125 -6.828125 C 5.8125 -6.953125 5.445312 -7.015625 4.9375 -7.015625 C 4.90625 -7.015625 4.890625 -7.050781 4.890625 -7.125 C 4.890625 -7.207031 4.90625 -7.25 4.9375 -7.25 C 5.269531 -7.25 5.523438 -7.238281 5.703125 -7.21875 L 6.828125 -7.203125 L 7.5 -7.21875 C 7.625 -7.238281 7.820312 -7.25 8.09375 -7.25 Z M 8.09375 -7.25 "/></g></g></g><g fill="#ffffff" fill-opacity="1"><g transform="translate(273.947825, 120.323942)"><g/></g></g><g fill="#ffffff" fill-opacity="1"><g transform="translate(278.338064, 120.323942)"><g><path d="M 10.734375 -9.671875 C 10.734375 -10.890625 10.1875 -11.5 9.09375 -11.5 C 9.0625 -11.5 9.046875 -11.535156 9.046875 -11.609375 C 9.046875 -11.691406 9.0625 -11.734375 9.09375 -11.734375 L 9.90625 -11.703125 C 10.351562 -11.679688 10.710938 -11.671875 10.984375 -11.671875 C 11.191406 -11.671875 11.492188 -11.679688 11.890625 -11.703125 L 12.6875 -11.734375 C 12.707031 -11.734375 12.71875 -11.691406 12.71875 -11.609375 C 12.71875 -11.535156 12.707031 -11.5 12.6875 -11.5 C 11.6875 -11.5 11.1875 -10.890625 11.1875 -9.671875 L 11.1875 -4.328125 C 11.1875 -2.890625 10.785156 -1.765625 9.984375 -0.953125 C 9.179688 -0.148438 8.101562 0.25 6.75 0.25 C 5.820312 0.25 5.007812 0.0664062 4.3125 -0.296875 C 3.625 -0.660156 3.085938 -1.175781 2.703125 -1.84375 C 2.328125 -2.519531 2.140625 -3.304688 2.140625 -4.203125 L 2.140625 -10.203125 C 2.140625 -10.578125 2.101562 -10.851562 2.03125 -11.03125 C 1.957031 -11.207031 1.804688 -11.328125 1.578125 -11.390625 C 1.359375 -11.460938 1.015625 -11.5 0.546875 -11.5 C 0.515625 -11.5 0.5 -11.535156 0.5 -11.609375 C 0.5 -11.691406 0.515625 -11.734375 0.546875 -11.734375 L 1.46875 -11.703125 C 1.988281 -11.679688 2.410156 -11.671875 2.734375 -11.671875 C 3.085938 -11.671875 3.523438 -11.679688 4.046875 -11.703125 L 4.953125 -11.734375 C 4.992188 -11.734375 5.015625 -11.691406 5.015625 -11.609375 C 5.015625 -11.535156 4.992188 -11.5 4.953125 -11.5 C 4.492188 -11.5 4.148438 -11.460938 3.921875 -11.390625 C 3.691406 -11.316406 3.539062 -11.1875 3.46875 -11 C 3.394531 -10.820312 3.359375 -10.546875 3.359375 -10.171875 L 3.359375 -4.859375 C 3.359375 -3.398438 3.691406 -2.273438 4.359375 -1.484375 C 5.023438 -0.703125 5.960938 -0.3125 7.171875 -0.3125 C 8.296875 -0.3125 9.171875 -0.664062 9.796875 -1.375 C 10.421875 -2.082031 10.734375 -3.0625 10.734375 -4.3125 Z M 10.734375 -9.671875 "/></g></g></g><g fill="#ffffff" fill-opacity="1"><g transform="translate(291.133359, 120.323942)"><g><path d="M 9.28125 -0.21875 C 9.320312 -0.21875 9.34375 -0.179688 9.34375 -0.109375 C 9.34375 -0.0351562 9.320312 0 9.28125 0 C 9 0 8.773438 -0.00390625 8.609375 -0.015625 L 7.59375 -0.03125 L 6.5625 -0.015625 C 6.40625 -0.00390625 6.179688 0 5.890625 0 C 5.859375 0 5.84375 -0.0351562 5.84375 -0.109375 C 5.84375 -0.179688 5.859375 -0.21875 5.890625 -0.21875 C 6.234375 -0.21875 6.484375 -0.253906 6.640625 -0.328125 C 6.804688 -0.398438 6.914062 -0.519531 6.96875 -0.6875 C 7.03125 -0.863281 7.0625 -1.140625 7.0625 -1.515625 L 7.0625 -4.5625 C 7.0625 -5.300781 6.921875 -5.84375 6.640625 -6.1875 C 6.359375 -6.539062 5.921875 -6.71875 5.328125 -6.71875 C 4.941406 -6.71875 4.550781 -6.613281 4.15625 -6.40625 C 3.757812 -6.195312 3.398438 -5.910156 3.078125 -5.546875 L 3.078125 -1.515625 C 3.078125 -1.140625 3.101562 -0.863281 3.15625 -0.6875 C 3.21875 -0.519531 3.328125 -0.398438 3.484375 -0.328125 C 3.648438 -0.253906 3.898438 -0.21875 4.234375 -0.21875 C 4.273438 -0.21875 4.296875 -0.179688 4.296875 -0.109375 C 4.296875 -0.0351562 4.273438 0 4.234375 0 C 3.953125 0 3.726562 -0.00390625 3.5625 -0.015625 L 2.546875 -0.03125 L 1.515625 -0.015625 C 1.359375 -0.00390625 1.132812 0 0.84375 0 C 0.800781 0 0.78125 -0.0351562 0.78125 -0.109375 C 0.78125 -0.179688 0.800781 -0.21875 0.84375 -0.21875 C 1.175781 -0.21875 1.425781 -0.253906 1.59375 -0.328125 C 1.757812 -0.398438 1.867188 -0.519531 1.921875 -0.6875 C 1.984375 -0.863281 2.015625 -1.140625 2.015625 -1.515625 L 2.015625 -5.234375 C 2.015625 -5.660156 1.960938 -5.96875 1.859375 -6.15625 C 1.753906 -6.34375 1.582031 -6.4375 1.34375 -6.4375 C 1.144531 -6.4375 0.8125 -6.34375 0.34375 -6.15625 L 0.296875 -6.15625 C 0.242188 -6.15625 0.207031 -6.179688 0.1875 -6.234375 C 0.175781 -6.296875 0.195312 -6.335938 0.25 -6.359375 L 2.421875 -7.390625 L 2.53125 -7.40625 C 2.644531 -7.40625 2.765625 -7.257812 2.890625 -6.96875 C 3.015625 -6.6875 3.078125 -6.320312 3.078125 -5.875 C 3.554688 -6.425781 4.03125 -6.832031 4.5 -7.09375 C 4.96875 -7.351562 5.453125 -7.484375 5.953125 -7.484375 C 6.648438 -7.484375 7.1875 -7.289062 7.5625 -6.90625 C 7.9375 -6.519531 8.125 -5.953125 8.125 -5.203125 L 8.125 -1.515625 C 8.125 -1.140625 8.148438 -0.863281 8.203125 -0.6875 C 8.265625 -0.519531 8.375 -0.398438 8.53125 -0.328125 C 8.695312 -0.253906 8.945312 -0.21875 9.28125 -0.21875 Z M 9.28125 -0.21875 "/></g></g></g><g fill="#ffffff" fill-opacity="1"><g transform="translate(300.833153, 120.323942)"><g><path d="M 2.578125 -9.609375 C 2.304688 -9.609375 2.097656 -9.675781 1.953125 -9.8125 C 1.816406 -9.945312 1.75 -10.140625 1.75 -10.390625 C 1.75 -10.640625 1.816406 -10.832031 1.953125 -10.96875 C 2.097656 -11.113281 2.304688 -11.1875 2.578125 -11.1875 C 2.828125 -11.1875 3.019531 -11.113281 3.15625 -10.96875 C 3.289062 -10.832031 3.359375 -10.640625 3.359375 -10.390625 C 3.359375 -10.140625 3.289062 -9.945312 3.15625 -9.8125 C 3.019531 -9.675781 2.828125 -9.609375 2.578125 -9.609375 Z M 1 0 C 0.96875 0 0.953125 -0.0351562 0.953125 -0.109375 C 0.953125 -0.179688 0.96875 -0.21875 1 -0.21875 C 1.332031 -0.21875 1.582031 -0.253906 1.75 -0.328125 C 1.925781 -0.398438 2.046875 -0.523438 2.109375 -0.703125 C 2.171875 -0.878906 2.203125 -1.148438 2.203125 -1.515625 L 2.203125 -5.03125 C 2.203125 -5.476562 2.15625 -5.800781 2.0625 -6 C 1.96875 -6.207031 1.804688 -6.3125 1.578125 -6.3125 C 1.347656 -6.3125 1.066406 -6.222656 0.734375 -6.046875 L 0.71875 -6.046875 C 0.664062 -6.046875 0.625 -6.078125 0.59375 -6.140625 C 0.570312 -6.203125 0.582031 -6.242188 0.625 -6.265625 L 3.0625 -7.390625 L 3.140625 -7.40625 C 3.160156 -7.40625 3.1875 -7.390625 3.21875 -7.359375 C 3.257812 -7.328125 3.28125 -7.296875 3.28125 -7.265625 C 3.28125 -7.171875 3.273438 -6.914062 3.265625 -6.5 C 3.253906 -6.09375 3.25 -5.609375 3.25 -5.046875 L 3.25 -1.515625 C 3.25 -1.140625 3.28125 -0.863281 3.34375 -0.6875 C 3.40625 -0.519531 3.515625 -0.398438 3.671875 -0.328125 C 3.835938 -0.253906 4.085938 -0.21875 4.421875 -0.21875 C 4.460938 -0.21875 4.484375 -0.179688 4.484375 -0.109375 C 4.484375 -0.0351562 4.460938 0 4.421875 0 C 4.140625 0 3.910156 -0.00390625 3.734375 -0.015625 L 2.71875 -0.03125 L 1.703125 -0.015625 C 1.523438 -0.00390625 1.289062 0 1 0 Z M 1 0 "/></g></g></g><g fill="#ffffff" fill-opacity="1"><g transform="translate(305.955093, 120.323942)"><g><path d="M 5.84375 -0.96875 C 5.882812 -0.96875 5.914062 -0.941406 5.9375 -0.890625 C 5.96875 -0.835938 5.96875 -0.796875 5.9375 -0.765625 C 5.46875 -0.398438 5.046875 -0.144531 4.671875 0 C 4.304688 0.144531 3.925781 0.21875 3.53125 0.21875 C 3 0.21875 2.5625 0.101562 2.21875 -0.125 C 1.882812 -0.363281 1.71875 -0.757812 1.71875 -1.3125 L 1.71875 -5.71875 C 1.71875 -6.050781 1.695312 -6.285156 1.65625 -6.421875 C 1.613281 -6.554688 1.53125 -6.644531 1.40625 -6.6875 C 1.28125 -6.726562 1.066406 -6.75 0.765625 -6.75 C 0.710938 -6.75 0.6875 -6.789062 0.6875 -6.875 C 0.6875 -6.957031 0.710938 -7 0.765625 -7 C 1.265625 -7.007812 1.671875 -7.140625 1.984375 -7.390625 C 2.296875 -7.648438 2.476562 -7.992188 2.53125 -8.421875 C 2.53125 -8.460938 2.582031 -8.484375 2.6875 -8.484375 C 2.769531 -8.484375 2.8125 -8.460938 2.8125 -8.421875 L 2.8125 -7.03125 C 3.4375 -7.050781 4.304688 -7.113281 5.421875 -7.21875 C 5.441406 -7.21875 5.46875 -7.171875 5.5 -7.078125 C 5.53125 -6.984375 5.546875 -6.882812 5.546875 -6.78125 C 5.546875 -6.675781 5.523438 -6.570312 5.484375 -6.46875 C 5.441406 -6.363281 5.394531 -6.316406 5.34375 -6.328125 C 4.65625 -6.503906 3.8125 -6.601562 2.8125 -6.625 L 2.8125 -1.953125 C 2.8125 -1.441406 2.9375 -1.0625 3.1875 -0.8125 C 3.445312 -0.5625 3.816406 -0.4375 4.296875 -0.4375 C 4.847656 -0.4375 5.347656 -0.609375 5.796875 -0.953125 Z M 5.84375 -0.96875 "/></g></g></g><g fill="#ffffff" fill-opacity="1"><g transform="translate(312.29655, 120.323942)"><g><path d="M 6.734375 -1.046875 C 6.773438 -1.046875 6.8125 -1.023438 6.84375 -0.984375 C 6.875 -0.941406 6.875 -0.898438 6.84375 -0.859375 C 6.019531 -0.140625 5.109375 0.21875 4.109375 0.21875 C 3.378906 0.21875 2.757812 0.0507812 2.25 -0.28125 C 1.738281 -0.613281 1.347656 -1.054688 1.078125 -1.609375 C 0.804688 -2.160156 0.671875 -2.75 0.671875 -3.375 C 0.671875 -4.113281 0.84375 -4.789062 1.1875 -5.40625 C 1.539062 -6.03125 2.019531 -6.519531 2.625 -6.875 C 3.238281 -7.226562 3.910156 -7.40625 4.640625 -7.40625 C 5.335938 -7.40625 5.875 -7.21875 6.25 -6.84375 C 6.625 -6.46875 6.8125 -5.941406 6.8125 -5.265625 C 6.8125 -5.097656 6.796875 -4.972656 6.765625 -4.890625 C 6.734375 -4.816406 6.679688 -4.78125 6.609375 -4.78125 L 1.953125 -4.765625 C 1.929688 -4.492188 1.921875 -4.269531 1.921875 -4.09375 C 1.921875 -3 2.175781 -2.113281 2.6875 -1.4375 C 3.195312 -0.769531 3.914062 -0.4375 4.84375 -0.4375 C 5.21875 -0.4375 5.539062 -0.484375 5.8125 -0.578125 C 6.082031 -0.679688 6.382812 -0.835938 6.71875 -1.046875 Z M 4.015625 -7.03125 C 3.472656 -7.03125 3.023438 -6.851562 2.671875 -6.5 C 2.328125 -6.144531 2.097656 -5.648438 1.984375 -5.015625 L 5.546875 -5.078125 C 5.546875 -5.722656 5.410156 -6.207031 5.140625 -6.53125 C 4.867188 -6.863281 4.492188 -7.03125 4.015625 -7.03125 Z M 4.015625 -7.03125 "/></g></g></g><g fill="#ffffff" fill-opacity="1"><g transform="translate(319.838687, 120.323942)"><g><path d="M 9.5 -1.0625 C 9.550781 -1.0625 9.582031 -1.03125 9.59375 -0.96875 C 9.613281 -0.90625 9.609375 -0.863281 9.578125 -0.84375 L 7.5 0.125 C 7.425781 0.15625 7.378906 0.171875 7.359375 0.171875 C 7.191406 0.171875 7.050781 0.0351562 6.9375 -0.234375 C 6.832031 -0.515625 6.769531 -0.898438 6.75 -1.390625 C 6.289062 -0.898438 5.804688 -0.503906 5.296875 -0.203125 C 4.796875 0.0976562 4.234375 0.25 3.609375 0.25 C 3.078125 0.25 2.585938 0.0976562 2.140625 -0.203125 C 1.703125 -0.503906 1.347656 -0.925781 1.078125 -1.46875 C 0.804688 -2.019531 0.671875 -2.644531 0.671875 -3.34375 C 0.671875 -4.226562 0.890625 -4.984375 1.328125 -5.609375 C 1.765625 -6.234375 2.316406 -6.703125 2.984375 -7.015625 C 3.648438 -7.328125 4.304688 -7.484375 4.953125 -7.484375 C 5.617188 -7.484375 6.21875 -7.320312 6.75 -7 L 6.75 -11.203125 C 6.75 -11.648438 6.703125 -11.972656 6.609375 -12.171875 C 6.515625 -12.378906 6.359375 -12.484375 6.140625 -12.484375 C 5.972656 -12.484375 5.679688 -12.394531 5.265625 -12.21875 L 5.234375 -12.21875 C 5.179688 -12.21875 5.144531 -12.242188 5.125 -12.296875 C 5.113281 -12.359375 5.125 -12.398438 5.15625 -12.421875 L 7.546875 -13.59375 C 7.566406 -13.601562 7.597656 -13.609375 7.640625 -13.609375 C 7.660156 -13.609375 7.691406 -13.59375 7.734375 -13.5625 C 7.785156 -13.53125 7.8125 -13.492188 7.8125 -13.453125 L 7.8125 -2.0625 C 7.8125 -1.613281 7.863281 -1.285156 7.96875 -1.078125 C 8.070312 -0.878906 8.242188 -0.78125 8.484375 -0.78125 C 8.847656 -0.78125 9.171875 -0.867188 9.453125 -1.046875 Z M 4.328125 -0.4375 C 4.785156 -0.4375 5.207031 -0.546875 5.59375 -0.765625 C 5.976562 -0.984375 6.363281 -1.289062 6.75 -1.6875 L 6.75 -5.8125 C 6.457031 -6.226562 6.128906 -6.546875 5.765625 -6.765625 C 5.398438 -6.992188 4.960938 -7.109375 4.453125 -7.109375 C 3.660156 -7.109375 3.035156 -6.828125 2.578125 -6.265625 C 2.117188 -5.710938 1.890625 -4.925781 1.890625 -3.90625 C 1.890625 -3.21875 1.992188 -2.609375 2.203125 -2.078125 C 2.421875 -1.554688 2.710938 -1.148438 3.078125 -0.859375 C 3.453125 -0.578125 3.867188 -0.4375 4.328125 -0.4375 Z M 4.328125 -0.4375 "/></g></g></g><g fill="#ffffff" fill-opacity="1"><g transform="translate(49.775842, 120.323942)"><g><path d="M 7.71875 -11.9375 C 8.5 -11.9375 9.160156 -11.878906 9.703125 -11.765625 C 10.242188 -11.648438 10.78125 -11.457031 11.3125 -11.1875 C 11.40625 -11.132812 11.457031 -11.085938 11.46875 -11.046875 C 11.476562 -11.015625 11.492188 -10.921875 11.515625 -10.765625 L 11.75 -8.53125 C 11.75 -8.5 11.710938 -8.476562 11.640625 -8.46875 C 11.578125 -8.46875 11.535156 -8.484375 11.515625 -8.515625 C 10.941406 -10.609375 9.65625 -11.65625 7.65625 -11.65625 C 6.601562 -11.65625 5.675781 -11.421875 4.875 -10.953125 C 4.070312 -10.492188 3.453125 -9.832031 3.015625 -8.96875 C 2.578125 -8.113281 2.359375 -7.117188 2.359375 -5.984375 C 2.359375 -4.898438 2.597656 -3.898438 3.078125 -2.984375 C 3.566406 -2.078125 4.21875 -1.363281 5.03125 -0.84375 C 5.851562 -0.320312 6.75 -0.0625 7.71875 -0.0625 C 8.738281 -0.0625 9.566406 -0.3125 10.203125 -0.8125 C 10.847656 -1.3125 11.335938 -2.070312 11.671875 -3.09375 C 11.671875 -3.125 11.703125 -3.140625 11.765625 -3.140625 C 11.847656 -3.140625 11.890625 -3.117188 11.890625 -3.078125 L 11.703125 -1.015625 C 11.691406 -0.859375 11.671875 -0.757812 11.640625 -0.71875 C 11.617188 -0.6875 11.570312 -0.644531 11.5 -0.59375 C 10.851562 -0.28125 10.242188 -0.0625 9.671875 0.0625 C 9.097656 0.1875 8.445312 0.25 7.71875 0.25 C 6.40625 0.25 5.226562 -0.0078125 4.1875 -0.53125 C 3.15625 -1.050781 2.351562 -1.78125 1.78125 -2.71875 C 1.207031 -3.65625 0.921875 -4.734375 0.921875 -5.953125 C 0.921875 -7.128906 1.210938 -8.171875 1.796875 -9.078125 C 2.390625 -9.984375 3.203125 -10.6875 4.234375 -11.1875 C 5.265625 -11.6875 6.425781 -11.9375 7.71875 -11.9375 Z M 7.71875 -11.9375 "/></g></g></g><g fill="#ffffff" fill-opacity="1"><g transform="translate(62.646359, 120.323942)"><g><path d="M 5.15625 -7.40625 C 5.4375 -7.40625 5.703125 -7.332031 5.953125 -7.1875 C 6.203125 -7.039062 6.328125 -6.859375 6.328125 -6.640625 C 6.328125 -6.484375 6.269531 -6.347656 6.15625 -6.234375 C 6.050781 -6.117188 5.898438 -6.0625 5.703125 -6.0625 C 5.585938 -6.0625 5.488281 -6.082031 5.40625 -6.125 C 5.332031 -6.164062 5.238281 -6.234375 5.125 -6.328125 C 5.007812 -6.421875 4.898438 -6.492188 4.796875 -6.546875 C 4.703125 -6.597656 4.585938 -6.625 4.453125 -6.625 C 4.285156 -6.625 4.109375 -6.554688 3.921875 -6.421875 C 3.742188 -6.285156 3.460938 -5.988281 3.078125 -5.53125 L 3.078125 -1.515625 C 3.078125 -1.140625 3.125 -0.863281 3.21875 -0.6875 C 3.3125 -0.519531 3.484375 -0.398438 3.734375 -0.328125 C 3.984375 -0.253906 4.367188 -0.21875 4.890625 -0.21875 C 4.941406 -0.21875 4.96875 -0.179688 4.96875 -0.109375 C 4.96875 -0.0351562 4.941406 0 4.890625 0 C 4.492188 0 4.175781 -0.00390625 3.9375 -0.015625 L 2.546875 -0.03125 L 1.515625 -0.015625 C 1.359375 -0.00390625 1.132812 0 0.84375 0 C 0.800781 0 0.78125 -0.0351562 0.78125 -0.109375 C 0.78125 -0.179688 0.800781 -0.21875 0.84375 -0.21875 C 1.175781 -0.21875 1.425781 -0.253906 1.59375 -0.328125 C 1.757812 -0.398438 1.867188 -0.519531 1.921875 -0.6875 C 1.984375 -0.863281 2.015625 -1.140625 2.015625 -1.515625 L 2.015625 -5.234375 C 2.015625 -5.660156 1.960938 -5.96875 1.859375 -6.15625 C 1.753906 -6.34375 1.582031 -6.4375 1.34375 -6.4375 C 1.144531 -6.4375 0.8125 -6.34375 0.34375 -6.15625 L 0.296875 -6.15625 C 0.242188 -6.15625 0.207031 -6.179688 0.1875 -6.234375 C 0.175781 -6.296875 0.195312 -6.335938 0.25 -6.359375 L 2.421875 -7.390625 L 2.53125 -7.40625 C 2.644531 -7.40625 2.765625 -7.257812 2.890625 -6.96875 C 3.015625 -6.6875 3.078125 -6.320312 3.078125 -5.875 L 3.078125 -5.859375 C 3.585938 -6.453125 3.992188 -6.859375 4.296875 -7.078125 C 4.597656 -7.296875 4.882812 -7.40625 5.15625 -7.40625 Z M 5.15625 -7.40625 "/></g></g></g><g fill="#ffffff" fill-opacity="1"><g transform="translate(69.250354, 120.323942)"><g><path d="M 6.734375 -1.046875 C 6.773438 -1.046875 6.8125 -1.023438 6.84375 -0.984375 C 6.875 -0.941406 6.875 -0.898438 6.84375 -0.859375 C 6.019531 -0.140625 5.109375 0.21875 4.109375 0.21875 C 3.378906 0.21875 2.757812 0.0507812 2.25 -0.28125 C 1.738281 -0.613281 1.347656 -1.054688 1.078125 -1.609375 C 0.804688 -2.160156 0.671875 -2.75 0.671875 -3.375 C 0.671875 -4.113281 0.84375 -4.789062 1.1875 -5.40625 C 1.539062 -6.03125 2.019531 -6.519531 2.625 -6.875 C 3.238281 -7.226562 3.910156 -7.40625 4.640625 -7.40625 C 5.335938 -7.40625 5.875 -7.21875 6.25 -6.84375 C 6.625 -6.46875 6.8125 -5.941406 6.8125 -5.265625 C 6.8125 -5.097656 6.796875 -4.972656 6.765625 -4.890625 C 6.734375 -4.816406 6.679688 -4.78125 6.609375 -4.78125 L 1.953125 -4.765625 C 1.929688 -4.492188 1.921875 -4.269531 1.921875 -4.09375 C 1.921875 -3 2.175781 -2.113281 2.6875 -1.4375 C 3.195312 -0.769531 3.914062 -0.4375 4.84375 -0.4375 C 5.21875 -0.4375 5.539062 -0.484375 5.8125 -0.578125 C 6.082031 -0.679688 6.382812 -0.835938 6.71875 -1.046875 Z M 4.015625 -7.03125 C 3.472656 -7.03125 3.023438 -6.851562 2.671875 -6.5 C 2.328125 -6.144531 2.097656 -5.648438 1.984375 -5.015625 L 5.546875 -5.078125 C 5.546875 -5.722656 5.410156 -6.207031 5.140625 -6.53125 C 4.867188 -6.863281 4.492188 -7.03125 4.015625 -7.03125 Z M 4.015625 -7.03125 "/></g></g></g><g fill="#ffffff" fill-opacity="1"><g transform="translate(76.792491, 120.323942)"><g><path d="M 9.5 -1.0625 C 9.550781 -1.0625 9.582031 -1.03125 9.59375 -0.96875 C 9.613281 -0.90625 9.609375 -0.863281 9.578125 -0.84375 L 7.5 0.125 C 7.425781 0.15625 7.378906 0.171875 7.359375 0.171875 C 7.191406 0.171875 7.050781 0.0351562 6.9375 -0.234375 C 6.832031 -0.515625 6.769531 -0.898438 6.75 -1.390625 C 6.289062 -0.898438 5.804688 -0.503906 5.296875 -0.203125 C 4.796875 0.0976562 4.234375 0.25 3.609375 0.25 C 3.078125 0.25 2.585938 0.0976562 2.140625 -0.203125 C 1.703125 -0.503906 1.347656 -0.925781 1.078125 -1.46875 C 0.804688 -2.019531 0.671875 -2.644531 0.671875 -3.34375 C 0.671875 -4.226562 0.890625 -4.984375 1.328125 -5.609375 C 1.765625 -6.234375 2.316406 -6.703125 2.984375 -7.015625 C 3.648438 -7.328125 4.304688 -7.484375 4.953125 -7.484375 C 5.617188 -7.484375 6.21875 -7.320312 6.75 -7 L 6.75 -11.203125 C 6.75 -11.648438 6.703125 -11.972656 6.609375 -12.171875 C 6.515625 -12.378906 6.359375 -12.484375 6.140625 -12.484375 C 5.972656 -12.484375 5.679688 -12.394531 5.265625 -12.21875 L 5.234375 -12.21875 C 5.179688 -12.21875 5.144531 -12.242188 5.125 -12.296875 C 5.113281 -12.359375 5.125 -12.398438 5.15625 -12.421875 L 7.546875 -13.59375 C 7.566406 -13.601562 7.597656 -13.609375 7.640625 -13.609375 C 7.660156 -13.609375 7.691406 -13.59375 7.734375 -13.5625 C 7.785156 -13.53125 7.8125 -13.492188 7.8125 -13.453125 L 7.8125 -2.0625 C 7.8125 -1.613281 7.863281 -1.285156 7.96875 -1.078125 C 8.070312 -0.878906 8.242188 -0.78125 8.484375 -0.78125 C 8.847656 -0.78125 9.171875 -0.867188 9.453125 -1.046875 Z M 4.328125 -0.4375 C 4.785156 -0.4375 5.207031 -0.546875 5.59375 -0.765625 C 5.976562 -0.984375 6.363281 -1.289062 6.75 -1.6875 L 6.75 -5.8125 C 6.457031 -6.226562 6.128906 -6.546875 5.765625 -6.765625 C 5.398438 -6.992188 4.960938 -7.109375 4.453125 -7.109375 C 3.660156 -7.109375 3.035156 -6.828125 2.578125 -6.265625 C 2.117188 -5.710938 1.890625 -4.925781 1.890625 -3.90625 C 1.890625 -3.21875 1.992188 -2.609375 2.203125 -2.078125 C 2.421875 -1.554688 2.710938 -1.148438 3.078125 -0.859375 C 3.453125 -0.578125 3.867188 -0.4375 4.328125 -0.4375 Z M 4.328125 -0.4375 "/></g></g></g><g fill="#ffffff" fill-opacity="1"><g transform="translate(86.398478, 120.323942)"><g><path d="M 2.578125 -9.609375 C 2.304688 -9.609375 2.097656 -9.675781 1.953125 -9.8125 C 1.816406 -9.945312 1.75 -10.140625 1.75 -10.390625 C 1.75 -10.640625 1.816406 -10.832031 1.953125 -10.96875 C 2.097656 -11.113281 2.304688 -11.1875 2.578125 -11.1875 C 2.828125 -11.1875 3.019531 -11.113281 3.15625 -10.96875 C 3.289062 -10.832031 3.359375 -10.640625 3.359375 -10.390625 C 3.359375 -10.140625 3.289062 -9.945312 3.15625 -9.8125 C 3.019531 -9.675781 2.828125 -9.609375 2.578125 -9.609375 Z M 1 0 C 0.96875 0 0.953125 -0.0351562 0.953125 -0.109375 C 0.953125 -0.179688 0.96875 -0.21875 1 -0.21875 C 1.332031 -0.21875 1.582031 -0.253906 1.75 -0.328125 C 1.925781 -0.398438 2.046875 -0.523438 2.109375 -0.703125 C 2.171875 -0.878906 2.203125 -1.148438 2.203125 -1.515625 L 2.203125 -5.03125 C 2.203125 -5.476562 2.15625 -5.800781 2.0625 -6 C 1.96875 -6.207031 1.804688 -6.3125 1.578125 -6.3125 C 1.347656 -6.3125 1.066406 -6.222656 0.734375 -6.046875 L 0.71875 -6.046875 C 0.664062 -6.046875 0.625 -6.078125 0.59375 -6.140625 C 0.570312 -6.203125 0.582031 -6.242188 0.625 -6.265625 L 3.0625 -7.390625 L 3.140625 -7.40625 C 3.160156 -7.40625 3.1875 -7.390625 3.21875 -7.359375 C 3.257812 -7.328125 3.28125 -7.296875 3.28125 -7.265625 C 3.28125 -7.171875 3.273438 -6.914062 3.265625 -6.5 C 3.253906 -6.09375 3.25 -5.609375 3.25 -5.046875 L 3.25 -1.515625 C 3.25 -1.140625 3.28125 -0.863281 3.34375 -0.6875 C 3.40625 -0.519531 3.515625 -0.398438 3.671875 -0.328125 C 3.835938 -0.253906 4.085938 -0.21875 4.421875 -0.21875 C 4.460938 -0.21875 4.484375 -0.179688 4.484375 -0.109375 C 4.484375 -0.0351562 4.460938 0 4.421875 0 C 4.140625 0 3.910156 -0.00390625 3.734375 -0.015625 L 2.71875 -0.03125 L 1.703125 -0.015625 C 1.523438 -0.00390625 1.289062 0 1 0 Z M 1 0 "/></g></g></g><g fill="#ffffff" fill-opacity="1"><g transform="translate(91.520418, 120.323942)"><g><path d="M 5.84375 -0.96875 C 5.882812 -0.96875 5.914062 -0.941406 5.9375 -0.890625 C 5.96875 -0.835938 5.96875 -0.796875 5.9375 -0.765625 C 5.46875 -0.398438 5.046875 -0.144531 4.671875 0 C 4.304688 0.144531 3.925781 0.21875 3.53125 0.21875 C 3 0.21875 2.5625 0.101562 2.21875 -0.125 C 1.882812 -0.363281 1.71875 -0.757812 1.71875 -1.3125 L 1.71875 -5.71875 C 1.71875 -6.050781 1.695312 -6.285156 1.65625 -6.421875 C 1.613281 -6.554688 1.53125 -6.644531 1.40625 -6.6875 C 1.28125 -6.726562 1.066406 -6.75 0.765625 -6.75 C 0.710938 -6.75 0.6875 -6.789062 0.6875 -6.875 C 0.6875 -6.957031 0.710938 -7 0.765625 -7 C 1.265625 -7.007812 1.671875 -7.140625 1.984375 -7.390625 C 2.296875 -7.648438 2.476562 -7.992188 2.53125 -8.421875 C 2.53125 -8.460938 2.582031 -8.484375 2.6875 -8.484375 C 2.769531 -8.484375 2.8125 -8.460938 2.8125 -8.421875 L 2.8125 -7.03125 C 3.4375 -7.050781 4.304688 -7.113281 5.421875 -7.21875 C 5.441406 -7.21875 5.46875 -7.171875 5.5 -7.078125 C 5.53125 -6.984375 5.546875 -6.882812 5.546875 -6.78125 C 5.546875 -6.675781 5.523438 -6.570312 5.484375 -6.46875 C 5.441406 -6.363281 5.394531 -6.316406 5.34375 -6.328125 C 4.65625 -6.503906 3.8125 -6.601562 2.8125 -6.625 L 2.8125 -1.953125 C 2.8125 -1.441406 2.9375 -1.0625 3.1875 -0.8125 C 3.445312 -0.5625 3.816406 -0.4375 4.296875 -0.4375 C 4.847656 -0.4375 5.347656 -0.609375 5.796875 -0.953125 Z M 5.84375 -0.96875 "/></g></g></g><g fill="#ffffff" fill-opacity="1"><g transform="translate(97.861875, 120.323942)"><g/></g></g><g fill="#ffffff" fill-opacity="1"><g transform="translate(102.252115, 120.323942)"><g><path d="M 7.71875 -11.9375 C 8.5 -11.9375 9.160156 -11.878906 9.703125 -11.765625 C 10.242188 -11.648438 10.78125 -11.457031 11.3125 -11.1875 C 11.40625 -11.132812 11.457031 -11.085938 11.46875 -11.046875 C 11.476562 -11.015625 11.492188 -10.921875 11.515625 -10.765625 L 11.75 -8.53125 C 11.75 -8.5 11.710938 -8.476562 11.640625 -8.46875 C 11.578125 -8.46875 11.535156 -8.484375 11.515625 -8.515625 C 10.941406 -10.609375 9.65625 -11.65625 7.65625 -11.65625 C 6.601562 -11.65625 5.675781 -11.421875 4.875 -10.953125 C 4.070312 -10.492188 3.453125 -9.832031 3.015625 -8.96875 C 2.578125 -8.113281 2.359375 -7.117188 2.359375 -5.984375 C 2.359375 -4.898438 2.597656 -3.898438 3.078125 -2.984375 C 3.566406 -2.078125 4.21875 -1.363281 5.03125 -0.84375 C 5.851562 -0.320312 6.75 -0.0625 7.71875 -0.0625 C 8.738281 -0.0625 9.566406 -0.3125 10.203125 -0.8125 C 10.847656 -1.3125 11.335938 -2.070312 11.671875 -3.09375 C 11.671875 -3.125 11.703125 -3.140625 11.765625 -3.140625 C 11.847656 -3.140625 11.890625 -3.117188 11.890625 -3.078125 L 11.703125 -1.015625 C 11.691406 -0.859375 11.671875 -0.757812 11.640625 -0.71875 C 11.617188 -0.6875 11.570312 -0.644531 11.5 -0.59375 C 10.851562 -0.28125 10.242188 -0.0625 9.671875 0.0625 C 9.097656 0.1875 8.445312 0.25 7.71875 0.25 C 6.40625 0.25 5.226562 -0.0078125 4.1875 -0.53125 C 3.15625 -1.050781 2.351562 -1.78125 1.78125 -2.71875 C 1.207031 -3.65625 0.921875 -4.734375 0.921875 -5.953125 C 0.921875 -7.128906 1.210938 -8.171875 1.796875 -9.078125 C 2.390625 -9.984375 3.203125 -10.6875 4.234375 -11.1875 C 5.265625 -11.6875 6.425781 -11.9375 7.71875 -11.9375 Z M 7.71875 -11.9375 "/></g></g></g><g fill="#ffffff" fill-opacity="1"><g transform="translate(115.122631, 120.323942)"><g><path d="M 7.78125 -1.015625 C 7.832031 -1.015625 7.863281 -0.984375 7.875 -0.921875 C 7.894531 -0.867188 7.878906 -0.832031 7.828125 -0.8125 L 5.890625 0.109375 C 5.835938 0.140625 5.789062 0.15625 5.75 0.15625 C 5.582031 0.15625 5.4375 0.046875 5.3125 -0.171875 C 5.1875 -0.390625 5.101562 -0.6875 5.0625 -1.0625 L 4.09375 -0.4375 C 3.78125 -0.226562 3.503906 -0.0820312 3.265625 0 C 3.023438 0.0820312 2.773438 0.125 2.515625 0.125 C 2.046875 0.125 1.679688 0.00390625 1.421875 -0.234375 C 1.171875 -0.472656 1.046875 -0.78125 1.046875 -1.15625 C 1.046875 -1.53125 1.195312 -1.851562 1.5 -2.125 C 1.800781 -2.40625 2.296875 -2.671875 2.984375 -2.921875 L 5.046875 -3.703125 L 5.046875 -4.96875 C 5.046875 -6.375 4.648438 -7.078125 3.859375 -7.078125 C 3.441406 -7.078125 3.125 -6.9375 2.90625 -6.65625 C 2.6875 -6.375 2.535156 -6.050781 2.453125 -5.6875 C 2.421875 -5.457031 2.351562 -5.269531 2.25 -5.125 C 2.15625 -4.988281 1.988281 -4.921875 1.75 -4.921875 C 1.539062 -4.921875 1.382812 -4.972656 1.28125 -5.078125 C 1.175781 -5.191406 1.125 -5.328125 1.125 -5.484375 C 1.125 -5.785156 1.316406 -6.082031 1.703125 -6.375 C 2.097656 -6.675781 2.5625 -6.925781 3.09375 -7.125 C 3.632812 -7.332031 4.117188 -7.4375 4.546875 -7.4375 C 5.054688 -7.4375 5.441406 -7.269531 5.703125 -6.9375 C 5.960938 -6.613281 6.09375 -6.144531 6.09375 -5.53125 L 6.09375 -2.03125 C 6.09375 -1.59375 6.148438 -1.269531 6.265625 -1.0625 C 6.378906 -0.863281 6.566406 -0.765625 6.828125 -0.765625 C 7.066406 -0.765625 7.375 -0.847656 7.75 -1.015625 Z M 5.046875 -1.328125 L 5.046875 -3.4375 L 3.296875 -2.765625 C 2.953125 -2.617188 2.703125 -2.457031 2.546875 -2.28125 C 2.390625 -2.101562 2.3125 -1.882812 2.3125 -1.625 C 2.3125 -1.332031 2.40625 -1.082031 2.59375 -0.875 C 2.789062 -0.664062 3.046875 -0.5625 3.359375 -0.5625 C 3.609375 -0.5625 3.910156 -0.660156 4.265625 -0.859375 Z M 5.046875 -1.328125 "/></g></g></g><g fill="#ffffff" fill-opacity="1"><g transform="translate(122.983784, 120.323942)"><g><path d="M 5.15625 -7.40625 C 5.4375 -7.40625 5.703125 -7.332031 5.953125 -7.1875 C 6.203125 -7.039062 6.328125 -6.859375 6.328125 -6.640625 C 6.328125 -6.484375 6.269531 -6.347656 6.15625 -6.234375 C 6.050781 -6.117188 5.898438 -6.0625 5.703125 -6.0625 C 5.585938 -6.0625 5.488281 -6.082031 5.40625 -6.125 C 5.332031 -6.164062 5.238281 -6.234375 5.125 -6.328125 C 5.007812 -6.421875 4.898438 -6.492188 4.796875 -6.546875 C 4.703125 -6.597656 4.585938 -6.625 4.453125 -6.625 C 4.285156 -6.625 4.109375 -6.554688 3.921875 -6.421875 C 3.742188 -6.285156 3.460938 -5.988281 3.078125 -5.53125 L 3.078125 -1.515625 C 3.078125 -1.140625 3.125 -0.863281 3.21875 -0.6875 C 3.3125 -0.519531 3.484375 -0.398438 3.734375 -0.328125 C 3.984375 -0.253906 4.367188 -0.21875 4.890625 -0.21875 C 4.941406 -0.21875 4.96875 -0.179688 4.96875 -0.109375 C 4.96875 -0.0351562 4.941406 0 4.890625 0 C 4.492188 0 4.175781 -0.00390625 3.9375 -0.015625 L 2.546875 -0.03125 L 1.515625 -0.015625 C 1.359375 -0.00390625 1.132812 0 0.84375 0 C 0.800781 0 0.78125 -0.0351562 0.78125 -0.109375 C 0.78125 -0.179688 0.800781 -0.21875 0.84375 -0.21875 C 1.175781 -0.21875 1.425781 -0.253906 1.59375 -0.328125 C 1.757812 -0.398438 1.867188 -0.519531 1.921875 -0.6875 C 1.984375 -0.863281 2.015625 -1.140625 2.015625 -1.515625 L 2.015625 -5.234375 C 2.015625 -5.660156 1.960938 -5.96875 1.859375 -6.15625 C 1.753906 -6.34375 1.582031 -6.4375 1.34375 -6.4375 C 1.144531 -6.4375 0.8125 -6.34375 0.34375 -6.15625 L 0.296875 -6.15625 C 0.242188 -6.15625 0.207031 -6.179688 0.1875 -6.234375 C 0.175781 -6.296875 0.195312 -6.335938 0.25 -6.359375 L 2.421875 -7.390625 L 2.53125 -7.40625 C 2.644531 -7.40625 2.765625 -7.257812 2.890625 -6.96875 C 3.015625 -6.6875 3.078125 -6.320312 3.078125 -5.875 L 3.078125 -5.859375 C 3.585938 -6.453125 3.992188 -6.859375 4.296875 -7.078125 C 4.597656 -7.296875 4.882812 -7.40625 5.15625 -7.40625 Z M 5.15625 -7.40625 "/></g></g></g><g fill="#ffffff" fill-opacity="1"><g transform="translate(129.587779, 120.323942)"><g><path d="M 9.5 -1.0625 C 9.550781 -1.0625 9.582031 -1.03125 9.59375 -0.96875 C 9.613281 -0.90625 9.609375 -0.863281 9.578125 -0.84375 L 7.5 0.125 C 7.425781 0.15625 7.378906 0.171875 7.359375 0.171875 C 7.191406 0.171875 7.050781 0.0351562 6.9375 -0.234375 C 6.832031 -0.515625 6.769531 -0.898438 6.75 -1.390625 C 6.289062 -0.898438 5.804688 -0.503906 5.296875 -0.203125 C 4.796875 0.0976562 4.234375 0.25 3.609375 0.25 C 3.078125 0.25 2.585938 0.0976562 2.140625 -0.203125 C 1.703125 -0.503906 1.347656 -0.925781 1.078125 -1.46875 C 0.804688 -2.019531 0.671875 -2.644531 0.671875 -3.34375 C 0.671875 -4.226562 0.890625 -4.984375 1.328125 -5.609375 C 1.765625 -6.234375 2.316406 -6.703125 2.984375 -7.015625 C 3.648438 -7.328125 4.304688 -7.484375 4.953125 -7.484375 C 5.617188 -7.484375 6.21875 -7.320312 6.75 -7 L 6.75 -11.203125 C 6.75 -11.648438 6.703125 -11.972656 6.609375 -12.171875 C 6.515625 -12.378906 6.359375 -12.484375 6.140625 -12.484375 C 5.972656 -12.484375 5.679688 -12.394531 5.265625 -12.21875 L 5.234375 -12.21875 C 5.179688 -12.21875 5.144531 -12.242188 5.125 -12.296875 C 5.113281 -12.359375 5.125 -12.398438 5.15625 -12.421875 L 7.546875 -13.59375 C 7.566406 -13.601562 7.597656 -13.609375 7.640625 -13.609375 C 7.660156 -13.609375 7.691406 -13.59375 7.734375 -13.5625 C 7.785156 -13.53125 7.8125 -13.492188 7.8125 -13.453125 L 7.8125 -2.0625 C 7.8125 -1.613281 7.863281 -1.285156 7.96875 -1.078125 C 8.070312 -0.878906 8.242188 -0.78125 8.484375 -0.78125 C 8.847656 -0.78125 9.171875 -0.867188 9.453125 -1.046875 Z M 4.328125 -0.4375 C 4.785156 -0.4375 5.207031 -0.546875 5.59375 -0.765625 C 5.976562 -0.984375 6.363281 -1.289062 6.75 -1.6875 L 6.75 -5.8125 C 6.457031 -6.226562 6.128906 -6.546875 5.765625 -6.765625 C 5.398438 -6.992188 4.960938 -7.109375 4.453125 -7.109375 C 3.660156 -7.109375 3.035156 -6.828125 2.578125 -6.265625 C 2.117188 -5.710938 1.890625 -4.925781 1.890625 -3.90625 C 1.890625 -3.21875 1.992188 -2.609375 2.203125 -2.078125 C 2.421875 -1.554688 2.710938 -1.148438 3.078125 -0.859375 C 3.453125 -0.578125 3.867188 -0.4375 4.328125 -0.4375 Z M 4.328125 -0.4375 "/></g></g></g><g clip-path="url(#5bda35b419)"><path fill="#ffffff" d="M 318.101562 234.207031 C 318.101562 234.425781 318.089844 234.644531 318.066406 234.863281 C 318.046875 235.078125 318.015625 235.296875 317.972656 235.511719 C 317.929688 235.726562 317.875 235.9375 317.8125 236.144531 C 317.75 236.355469 317.675781 236.5625 317.59375 236.761719 C 317.507812 236.964844 317.414062 237.164062 317.3125 237.355469 C 317.207031 237.546875 317.097656 237.734375 316.976562 237.917969 C 316.855469 238.097656 316.722656 238.273438 316.585938 238.441406 C 316.445312 238.613281 316.300781 238.773438 316.144531 238.929688 C 315.988281 239.082031 315.828125 239.230469 315.660156 239.367188 C 315.488281 239.507812 315.316406 239.636719 315.132812 239.757812 C 314.953125 239.878906 314.765625 239.992188 314.570312 240.097656 C 314.378906 240.199219 314.179688 240.292969 313.980469 240.375 C 313.777344 240.460938 313.570312 240.535156 313.363281 240.597656 C 313.152344 240.660156 312.941406 240.714844 312.726562 240.757812 C 312.511719 240.800781 312.296875 240.832031 312.078125 240.851562 C 311.859375 240.875 311.640625 240.882812 311.421875 240.882812 C 311.207031 240.882812 310.988281 240.875 310.769531 240.851562 C 310.550781 240.832031 310.335938 240.800781 310.121094 240.757812 C 309.90625 240.714844 309.695312 240.660156 309.484375 240.597656 C 309.277344 240.535156 309.070312 240.460938 308.867188 240.375 C 308.667969 240.292969 308.46875 240.199219 308.277344 240.097656 C 308.082031 239.992188 307.894531 239.878906 307.714844 239.757812 C 307.53125 239.636719 307.355469 239.507812 307.1875 239.367188 C 307.019531 239.230469 306.855469 239.082031 306.703125 238.929688 C 306.546875 238.773438 306.402344 238.613281 306.261719 238.441406 C 306.125 238.273438 305.992188 238.097656 305.871094 237.917969 C 305.75 237.734375 305.636719 237.546875 305.535156 237.355469 C 305.433594 237.164062 305.339844 236.964844 305.253906 236.761719 C 305.171875 236.5625 305.097656 236.355469 305.035156 236.144531 C 304.972656 235.9375 304.917969 235.726562 304.875 235.511719 C 304.832031 235.296875 304.800781 235.078125 304.777344 234.863281 C 304.757812 234.644531 304.746094 234.425781 304.746094 234.207031 C 304.746094 233.988281 304.757812 233.769531 304.777344 233.554688 C 304.800781 233.335938 304.832031 233.121094 304.875 232.90625 C 304.917969 232.691406 304.972656 232.480469 305.035156 232.269531 C 305.097656 232.058594 305.171875 231.855469 305.253906 231.652344 C 305.339844 231.449219 305.433594 231.253906 305.535156 231.0625 C 305.636719 230.867188 305.75 230.679688 305.871094 230.5 C 305.992188 230.316406 306.125 230.140625 306.261719 229.972656 C 306.402344 229.804688 306.546875 229.640625 306.703125 229.488281 C 306.855469 229.332031 307.019531 229.183594 307.1875 229.046875 C 307.355469 228.90625 307.53125 228.777344 307.714844 228.65625 C 307.894531 228.535156 308.082031 228.421875 308.277344 228.320312 C 308.46875 228.214844 308.667969 228.121094 308.867188 228.039062 C 309.070312 227.957031 309.277344 227.882812 309.484375 227.820312 C 309.695312 227.753906 309.90625 227.703125 310.121094 227.660156 C 310.335938 227.617188 310.550781 227.585938 310.769531 227.5625 C 310.988281 227.542969 311.207031 227.53125 311.421875 227.53125 C 311.640625 227.53125 311.859375 227.542969 312.078125 227.5625 C 312.296875 227.585938 312.511719 227.617188 312.726562 227.660156 C 312.941406 227.703125 313.152344 227.753906 313.363281 227.820312 C 313.570312 227.882812 313.777344 227.957031 313.980469 228.039062 C 314.179688 228.121094 314.378906 228.214844 314.570312 228.320312 C 314.765625 228.421875 314.953125 228.535156 315.132812 228.65625 C 315.316406 228.777344 315.488281 228.90625 315.660156 229.046875 C 315.828125 229.183594 315.988281 229.332031 316.144531 229.488281 C 316.300781 229.640625 316.445312 229.804688 316.585938 229.972656 C 316.722656 230.140625 316.855469 230.316406 316.976562 230.5 C 317.097656 230.679688 317.207031 230.867188 317.3125 231.0625 C 317.414062 231.253906 317.507812 231.449219 317.59375 231.652344 C 317.675781 231.855469 317.75 232.058594 317.8125 232.269531 C 317.875 232.480469 317.929688 232.691406 317.972656 232.90625 C 318.015625 233.121094 318.046875 233.335938 318.066406 233.554688 C 318.089844 233.769531 318.101562 233.988281 318.101562 234.207031 Z M 318.101562 234.207031 " fill-opacity="1" fill-rule="nonzero"/></g><path fill="#d9d9d9" d="M 315.675781 234.207031 C 315.675781 234.347656 315.667969 234.484375 315.652344 234.625 C 315.640625 234.761719 315.621094 234.902344 315.59375 235.039062 C 315.566406 235.175781 315.53125 235.308594 315.492188 235.441406 C 315.449219 235.574219 315.402344 235.707031 315.351562 235.835938 C 315.296875 235.964844 315.238281 236.089844 315.171875 236.210938 C 315.105469 236.335938 315.035156 236.453125 314.957031 236.570312 C 314.878906 236.683594 314.796875 236.796875 314.710938 236.90625 C 314.621094 237.011719 314.527344 237.117188 314.429688 237.214844 C 314.332031 237.3125 314.226562 237.40625 314.121094 237.492188 C 314.011719 237.582031 313.902344 237.664062 313.785156 237.742188 C 313.667969 237.820312 313.550781 237.890625 313.425781 237.957031 C 313.304688 238.023438 313.179688 238.082031 313.050781 238.136719 C 312.921875 238.1875 312.789062 238.234375 312.65625 238.277344 C 312.523438 238.316406 312.390625 238.351562 312.253906 238.378906 C 312.117188 238.402344 311.980469 238.425781 311.839844 238.4375 C 311.703125 238.453125 311.5625 238.457031 311.421875 238.457031 C 311.285156 238.457031 311.144531 238.453125 311.007812 238.4375 C 310.867188 238.425781 310.730469 238.402344 310.59375 238.378906 C 310.457031 238.351562 310.324219 238.316406 310.191406 238.277344 C 310.054688 238.234375 309.925781 238.1875 309.796875 238.136719 C 309.667969 238.082031 309.542969 238.023438 309.417969 237.957031 C 309.296875 237.890625 309.175781 237.820312 309.0625 237.742188 C 308.945312 237.664062 308.835938 237.582031 308.726562 237.492188 C 308.621094 237.40625 308.515625 237.3125 308.417969 237.214844 C 308.320312 237.117188 308.226562 237.011719 308.136719 236.90625 C 308.050781 236.796875 307.964844 236.683594 307.890625 236.570312 C 307.8125 236.453125 307.742188 236.335938 307.675781 236.210938 C 307.609375 236.089844 307.550781 235.964844 307.496094 235.835938 C 307.441406 235.707031 307.394531 235.574219 307.355469 235.441406 C 307.316406 235.308594 307.28125 235.175781 307.253906 235.039062 C 307.226562 234.902344 307.207031 234.761719 307.191406 234.625 C 307.179688 234.484375 307.171875 234.347656 307.171875 234.207031 C 307.171875 234.070312 307.179688 233.929688 307.191406 233.792969 C 307.207031 233.652344 307.226562 233.515625 307.253906 233.378906 C 307.28125 233.242188 307.316406 233.105469 307.355469 232.972656 C 307.394531 232.839844 307.441406 232.710938 307.496094 232.582031 C 307.550781 232.453125 307.609375 232.328125 307.675781 232.203125 C 307.742188 232.082031 307.8125 231.960938 307.890625 231.847656 C 307.964844 231.730469 308.050781 231.617188 308.136719 231.511719 C 308.226562 231.402344 308.320312 231.300781 308.417969 231.203125 C 308.515625 231.105469 308.621094 231.011719 308.726562 230.921875 C 308.835938 230.832031 308.945312 230.75 309.0625 230.671875 C 309.175781 230.597656 309.296875 230.523438 309.417969 230.457031 C 309.542969 230.394531 309.667969 230.332031 309.796875 230.28125 C 309.925781 230.226562 310.054688 230.179688 310.191406 230.140625 C 310.324219 230.097656 310.457031 230.066406 310.59375 230.039062 C 310.730469 230.011719 310.867188 229.992188 311.007812 229.976562 C 311.144531 229.964844 311.285156 229.957031 311.421875 229.957031 C 311.5625 229.957031 311.703125 229.964844 311.839844 229.976562 C 311.980469 229.992188 312.117188 230.011719 312.253906 230.039062 C 312.390625 230.066406 312.523438 230.097656 312.65625 230.140625 C 312.789062 230.179688 312.921875 230.226562 313.050781 230.28125 C 313.179688 230.332031 313.304688 230.394531 313.425781 230.457031 C 313.550781 230.523438 313.667969 230.597656 313.785156 230.671875 C 313.902344 230.75 314.011719 230.832031 314.121094 230.921875 C 314.226562 231.011719 314.332031 231.105469 314.429688 231.203125 C 314.527344 231.300781 314.621094 231.402344 314.710938 231.511719 C 314.796875 231.617188 314.878906 231.730469 314.957031 231.847656 C 315.035156 231.960938 315.105469 232.082031 315.171875 232.203125 C 315.238281 232.328125 315.296875 232.453125 315.351562 232.582031 C 315.402344 232.710938 315.449219 232.839844 315.492188 232.972656 C 315.53125 233.105469 315.566406 233.242188 315.59375 233.378906 C 315.621094 233.515625 315.640625 233.652344 315.652344 233.792969 C 315.667969 233.929688 315.675781 234.070312 315.675781 234.207031 Z M 315.675781 234.207031 " fill-opacity="1" fill-rule="nonzero"/><path fill="#d9d9d9" d="M 291.65625 240.066406 L 291.65625 234.472656 C 291.65625 234.472656 297.253906 234.472656 297.253906 240.066406 Z M 291.65625 240.066406 " fill-opacity="1" fill-rule="nonzero"/><g clip-path="url(#0d25af680d)"><path fill="#ffffff" d="M 325.183594 247.25 C 323.984375 247.25 322.902344 247.777344 322.183594 248.640625 C 321.175781 242.804688 316.898438 239.753906 313.992188 238.339844 C 312.550781 237.640625 310.96875 237.28125 309.335938 237.28125 L 302.824219 237.28125 C 302.824219 231.6875 297.230469 231.6875 297.230469 231.6875 L 297.230469 237.546875 C 291.226562 238.769531 286.613281 243.839844 286.109375 250.058594 C 282.578125 250.058594 280.492188 248.449219 280.492188 248.449219 L 280.492188 254.046875 C 280.492188 254.046875 280.492188 256.832031 286.085938 259.640625 C 291.683594 262.425781 291.683594 262.425781 291.683594 270.808594 C 291.683594 270.808594 294.46875 270.808594 297.277344 265.214844 L 311.253906 265.214844 L 311.253906 270.808594 C 311.253906 270.808594 321.894531 268.144531 322.398438 252.4375 L 323.601562 252.4375 L 323.601562 251.257812 C 323.601562 250.371094 324.320312 249.648438 325.210938 249.648438 C 326.097656 249.648438 326.816406 250.371094 326.816406 251.257812 C 326.816406 252.148438 326.097656 252.867188 325.210938 252.867188 L 325.210938 255.246094 C 327.394531 255.246094 329.195312 253.46875 329.195312 251.257812 C 329.195312 249.050781 327.371094 247.25 325.183594 247.25 Z M 325.183594 247.25 " fill-opacity="1" fill-rule="nonzero"/></g><path fill="#2e2e2e" d="M 292.835938 246.214844 C 292.835938 246.28125 292.828125 246.347656 292.816406 246.414062 C 292.800781 246.476562 292.785156 246.539062 292.757812 246.601562 C 292.734375 246.664062 292.703125 246.722656 292.664062 246.777344 C 292.628906 246.832031 292.585938 246.882812 292.539062 246.929688 C 292.492188 246.976562 292.441406 247.019531 292.386719 247.054688 C 292.332031 247.089844 292.273438 247.121094 292.210938 247.148438 C 292.152344 247.171875 292.089844 247.191406 292.023438 247.207031 C 291.957031 247.21875 291.890625 247.226562 291.824219 247.226562 C 291.761719 247.226562 291.695312 247.21875 291.628906 247.207031 C 291.566406 247.191406 291.5 247.171875 291.441406 247.148438 C 291.378906 247.121094 291.320312 247.089844 291.265625 247.054688 C 291.210938 247.019531 291.160156 246.976562 291.113281 246.929688 C 291.066406 246.882812 291.023438 246.832031 290.988281 246.777344 C 290.949219 246.722656 290.917969 246.664062 290.894531 246.601562 C 290.867188 246.539062 290.851562 246.476562 290.835938 246.414062 C 290.824219 246.347656 290.816406 246.28125 290.816406 246.214844 C 290.816406 246.148438 290.824219 246.085938 290.835938 246.019531 C 290.851562 245.953125 290.867188 245.890625 290.894531 245.828125 C 290.917969 245.769531 290.949219 245.710938 290.988281 245.65625 C 291.023438 245.601562 291.066406 245.550781 291.113281 245.503906 C 291.160156 245.457031 291.210938 245.414062 291.265625 245.378906 C 291.320312 245.339844 291.378906 245.308594 291.441406 245.285156 C 291.5 245.257812 291.566406 245.238281 291.628906 245.226562 C 291.695312 245.214844 291.761719 245.207031 291.824219 245.207031 C 291.890625 245.207031 291.957031 245.214844 292.023438 245.226562 C 292.089844 245.238281 292.152344 245.257812 292.210938 245.285156 C 292.273438 245.308594 292.332031 245.339844 292.386719 245.378906 C 292.441406 245.414062 292.492188 245.457031 292.539062 245.503906 C 292.585938 245.550781 292.628906 245.601562 292.664062 245.65625 C 292.703125 245.710938 292.734375 245.769531 292.757812 245.828125 C 292.785156 245.890625 292.800781 245.953125 292.816406 246.019531 C 292.828125 246.085938 292.835938 246.148438 292.835938 246.214844 Z M 292.835938 246.214844 " fill-opacity="1" fill-rule="nonzero"/></svg>