<svg xmlns="http://www.w3.org/2000/svg" xmlns:xlink="http://www.w3.org/1999/xlink" width="500" zoomAndPan="magnify" viewBox="0 0 375 374.999991" height="500" preserveAspectRatio="xMidYMid meet" version="1.0"><defs><clipPath id="bb758512ba"><path d="M 85 38 L 336 38 L 336 374.542969 L 85 374.542969 Z M 85 38 " clip-rule="nonzero"/></clipPath><clipPath id="19ca9678ea"><path d="M 37.5 0.292969 L 234 0.292969 L 234 337 L 37.5 337 Z M 37.5 0.292969 " clip-rule="nonzero"/></clipPath></defs><g clip-path="url(#bb758512ba)"><path fill="#000000" d="M 319.871094 374.542969 L 101.628906 374.542969 C 93.074219 374.542969 85.835938 367.308594 85.835938 358.757812 L 85.835938 53.789062 C 85.835938 45.019531 93.074219 38.003906 101.628906 38.003906 L 277.101562 38.003906 C 278.195312 38.003906 279.292969 38.441406 280.171875 39.316406 L 334.347656 93.472656 C 335.007812 94.128906 335.664062 95.445312 335.664062 96.539062 L 335.664062 358.757812 C 335.664062 367.308594 328.425781 374.542969 319.871094 374.542969 Z M 101.628906 46.773438 C 97.898438 46.773438 94.609375 49.839844 94.609375 53.789062 L 94.609375 358.757812 C 94.609375 362.484375 97.898438 365.773438 101.628906 365.773438 L 319.871094 365.773438 C 323.601562 365.773438 326.890625 362.484375 326.890625 358.757812 L 326.890625 98.292969 L 275.125 46.773438 Z M 101.628906 46.773438 " fill-opacity="1" fill-rule="evenodd"/></g><path fill="#000000" d="M 331.277344 100.925781 L 288.507812 100.925781 C 279.734375 100.925781 272.714844 93.910156 272.714844 85.140625 L 272.714844 42.386719 C 272.714844 38.441406 277.320312 36.46875 280.171875 39.316406 L 333.910156 93.03125 C 337.417969 96.101562 335.007812 100.925781 331.277344 100.925781 Z M 281.488281 52.910156 L 281.488281 85.140625 C 281.488281 89.085938 284.558594 92.15625 288.507812 92.15625 L 320.53125 92.15625 Z M 281.488281 52.910156 " fill-opacity="1" fill-rule="evenodd"/><path fill="#000000" d="M 301.886719 124.824219 L 196.601562 124.824219 C 190.898438 124.824219 190.898438 116.054688 196.601562 116.054688 L 301.886719 116.054688 C 307.589844 116.054688 307.589844 124.824219 301.886719 124.824219 Z M 301.886719 124.824219 " fill-opacity="1" fill-rule="evenodd"/><path fill="#000000" d="M 301.886719 166.480469 L 270.960938 166.480469 C 265.257812 166.480469 265.257812 157.710938 270.960938 157.710938 L 301.886719 157.710938 C 307.589844 157.710938 307.589844 166.480469 301.886719 166.480469 Z M 234.109375 166.480469 L 119.613281 166.480469 C 113.910156 166.480469 113.910156 157.710938 119.613281 157.710938 L 234.109375 157.710938 C 240.03125 157.710938 240.03125 166.480469 234.109375 166.480469 Z M 234.109375 166.480469 " fill-opacity="1" fill-rule="evenodd"/><path fill="#000000" d="M 301.886719 208.355469 L 207.570312 208.355469 C 201.867188 208.355469 201.867188 199.585938 207.570312 199.585938 L 301.886719 199.585938 C 307.589844 199.585938 307.589844 208.355469 301.886719 208.355469 Z M 170.71875 208.355469 L 119.613281 208.355469 C 113.910156 208.355469 113.910156 199.585938 119.613281 199.585938 L 170.71875 199.585938 C 176.644531 199.585938 176.644531 208.355469 170.71875 208.355469 Z M 170.71875 208.355469 " fill-opacity="1" fill-rule="evenodd"/><path fill="#000000" d="M 144.179688 135.566406 C 125.097656 135.566406 119.613281 115.394531 127.949219 114.300781 C 134.089844 113.421875 131.457031 120.65625 136.285156 124.605469 C 140.230469 127.894531 155.585938 128.988281 155.585938 116.929688 C 155.585938 102.898438 136.285156 111.449219 128.386719 97.417969 C 122.683594 86.894531 127.949219 69.792969 146.375 69.792969 C 165.457031 69.792969 170.941406 89.964844 162.824219 91.277344 C 154.269531 92.375 161.945312 78.5625 146.375 78.5625 C 131.898438 78.78125 130.582031 96.539062 145.714844 98.292969 C 171.816406 101.144531 169.84375 135.566406 144.179688 135.566406 Z M 144.179688 135.566406 " fill-opacity="1" fill-rule="evenodd"/><path fill="#000000" d="M 145.277344 145.433594 C 139.574219 145.433594 140.890625 137.539062 140.890625 131.179688 C 140.890625 125.261719 149.664062 125.261719 149.664062 131.179688 C 149.664062 137.539062 151.199219 145.433594 145.277344 145.433594 Z M 145.277344 78.5625 C 139.574219 78.5625 140.890625 71.546875 140.890625 66.066406 C 140.890625 60.367188 149.664062 60.367188 149.664062 66.066406 C 149.664062 71.546875 150.980469 78.5625 145.277344 78.5625 Z M 145.277344 78.5625 " fill-opacity="1" fill-rule="evenodd"/><path fill="#000000" d="M 295.304688 343.628906 L 126.195312 343.628906 C 119.613281 343.628906 114.351562 338.367188 114.351562 331.789062 L 114.351562 244.09375 C 114.351562 237.734375 119.613281 232.472656 126.195312 232.472656 L 295.304688 232.472656 C 301.886719 232.472656 307.148438 237.734375 307.148438 244.09375 L 307.148438 331.789062 C 307.148438 338.367188 301.886719 343.628906 295.304688 343.628906 Z M 126.195312 241.242188 C 124.441406 241.242188 123.125 242.558594 123.125 244.09375 L 123.125 331.789062 C 123.125 333.542969 124.441406 334.859375 126.195312 334.859375 L 295.304688 334.859375 C 296.839844 334.859375 298.375 333.324219 298.375 331.789062 L 298.375 244.09375 C 298.375 242.558594 296.839844 241.242188 295.304688 241.242188 Z M 126.195312 241.242188 " fill-opacity="1" fill-rule="evenodd"/><path fill="#000000" d="M 302.761719 267.332031 L 118.738281 267.332031 C 113.035156 267.332031 113.035156 258.5625 118.738281 258.5625 L 302.761719 258.5625 C 308.464844 258.5625 308.464844 267.332031 302.761719 267.332031 Z M 302.761719 267.332031 " fill-opacity="1" fill-rule="evenodd"/><path fill="#000000" d="M 302.761719 292.324219 L 118.738281 292.324219 C 113.035156 292.324219 113.035156 283.554688 118.738281 283.554688 L 302.761719 283.554688 C 308.464844 283.554688 308.464844 292.324219 302.761719 292.324219 Z M 302.761719 292.324219 " fill-opacity="1" fill-rule="evenodd"/><path fill="#000000" d="M 302.761719 317.539062 L 118.738281 317.539062 C 113.035156 317.539062 113.035156 308.769531 118.738281 308.769531 L 302.761719 308.769531 C 308.464844 308.769531 308.464844 317.539062 302.761719 317.539062 Z M 302.761719 317.539062 " fill-opacity="1" fill-rule="evenodd"/><path fill="#000000" d="M 243.761719 343.628906 L 177.738281 343.628906 C 175.328125 343.628906 173.351562 341.65625 173.351562 339.246094 L 173.351562 236.855469 C 173.351562 234.445312 175.328125 232.472656 177.738281 232.472656 L 243.761719 232.472656 C 246.171875 232.472656 248.148438 234.445312 248.148438 236.855469 L 248.148438 339.246094 C 248.148438 341.65625 246.171875 343.628906 243.761719 343.628906 Z M 182.125 334.859375 L 239.375 334.859375 L 239.375 241.242188 L 182.125 241.242188 Z M 182.125 334.859375 " fill-opacity="1" fill-rule="evenodd"/><g clip-path="url(#19ca9678ea)"><path fill="#000000" d="M 90.222656 336.832031 L 53.375 336.832031 C 44.601562 336.832031 37.582031 329.597656 37.582031 321.046875 L 37.582031 16.078125 C 37.582031 7.308594 44.601562 0.292969 53.375 0.292969 L 228.625 0.292969 C 231.039062 0.292969 233.011719 2.265625 233.011719 4.675781 L 233.011719 42.386719 C 233.011719 48.085938 224.238281 48.085938 224.238281 42.386719 L 224.238281 9.0625 L 53.375 9.0625 C 49.425781 9.0625 46.355469 12.132812 46.355469 16.078125 L 46.355469 321.046875 C 46.355469 324.773438 49.425781 328.0625 53.375 328.0625 L 90.222656 328.0625 C 96.144531 328.0625 96.144531 336.832031 90.222656 336.832031 Z M 90.222656 336.832031 " fill-opacity="1" fill-rule="evenodd"/></g></svg>