<svg xmlns="http://www.w3.org/2000/svg" xmlns:xlink="http://www.w3.org/1999/xlink" width="500" zoomAndPan="magnify" viewBox="0 0 375 374.999991" height="500" preserveAspectRatio="xMidYMid meet" version="1.0"><defs><g/><clipPath id="2b6eeb2bb1"><path d="M 187 93.628906 L 225 93.628906 L 225 132 L 187 132 Z M 187 93.628906 " clip-rule="nonzero"/></clipPath><clipPath id="b41449d395"><path d="M 118.847656 105 L 256.097656 105 L 256.097656 215.128906 L 118.847656 215.128906 Z M 118.847656 105 " clip-rule="nonzero"/></clipPath></defs><g clip-path="url(#2b6eeb2bb1)"><path fill="#ffffff" d="M 224.867188 112.4375 C 224.867188 113.050781 224.839844 113.667969 224.777344 114.277344 C 224.71875 114.890625 224.628906 115.5 224.507812 116.105469 C 224.386719 116.707031 224.238281 117.304688 224.058594 117.894531 C 223.878906 118.484375 223.671875 119.0625 223.4375 119.632812 C 223.203125 120.203125 222.9375 120.757812 222.648438 121.300781 C 222.359375 121.84375 222.042969 122.371094 221.699219 122.882812 C 221.355469 123.394531 220.992188 123.890625 220.601562 124.367188 C 220.210938 124.84375 219.796875 125.296875 219.359375 125.734375 C 218.925781 126.167969 218.46875 126.582031 217.992188 126.972656 C 217.515625 127.363281 217.023438 127.730469 216.511719 128.070312 C 216 128.414062 215.472656 128.730469 214.929688 129.019531 C 214.386719 129.3125 213.828125 129.574219 213.261719 129.808594 C 212.691406 130.046875 212.113281 130.253906 211.523438 130.429688 C 210.933594 130.609375 210.335938 130.757812 209.730469 130.878906 C 209.128906 131 208.519531 131.089844 207.90625 131.152344 C 207.292969 131.210938 206.679688 131.242188 206.0625 131.242188 C 205.449219 131.242188 204.832031 131.210938 204.21875 131.152344 C 203.605469 131.089844 203 131 202.394531 130.878906 C 201.789062 130.757812 201.195312 130.609375 200.605469 130.429688 C 200.015625 130.253906 199.4375 130.046875 198.867188 129.808594 C 198.296875 129.574219 197.742188 129.3125 197.199219 129.019531 C 196.65625 128.730469 196.128906 128.414062 195.617188 128.070312 C 195.105469 127.730469 194.609375 127.363281 194.132812 126.972656 C 193.65625 126.582031 193.203125 126.167969 192.765625 125.734375 C 192.332031 125.296875 191.917969 124.84375 191.527344 124.367188 C 191.136719 123.890625 190.769531 123.394531 190.425781 122.882812 C 190.085938 122.371094 189.769531 121.84375 189.480469 121.300781 C 189.1875 120.757812 188.925781 120.203125 188.691406 119.632812 C 188.453125 119.0625 188.246094 118.484375 188.066406 117.894531 C 187.890625 117.304688 187.738281 116.707031 187.621094 116.105469 C 187.5 115.5 187.410156 114.890625 187.347656 114.277344 C 187.289062 113.667969 187.257812 113.050781 187.257812 112.4375 C 187.257812 111.820312 187.289062 111.207031 187.347656 110.59375 C 187.410156 109.980469 187.5 109.371094 187.621094 108.765625 C 187.738281 108.164062 187.890625 107.566406 188.066406 106.976562 C 188.246094 106.386719 188.453125 105.808594 188.691406 105.238281 C 188.925781 104.671875 189.1875 104.113281 189.480469 103.570312 C 189.769531 103.027344 190.085938 102.5 190.425781 101.988281 C 190.769531 101.476562 191.136719 100.980469 191.527344 100.507812 C 191.917969 100.03125 192.332031 99.574219 192.765625 99.140625 C 193.203125 98.703125 193.65625 98.289062 194.132812 97.898438 C 194.609375 97.507812 195.105469 97.140625 195.617188 96.800781 C 196.128906 96.457031 196.65625 96.140625 197.199219 95.851562 C 197.742188 95.5625 198.296875 95.296875 198.867188 95.0625 C 199.4375 94.828125 200.015625 94.621094 200.605469 94.441406 C 201.195312 94.261719 201.789062 94.113281 202.394531 93.992188 C 203 93.871094 203.605469 93.78125 204.21875 93.722656 C 204.832031 93.660156 205.449219 93.628906 206.0625 93.628906 C 206.679688 93.628906 207.292969 93.660156 207.90625 93.722656 C 208.519531 93.78125 209.128906 93.871094 209.730469 93.992188 C 210.335938 94.113281 210.933594 94.261719 211.523438 94.441406 C 212.113281 94.621094 212.691406 94.828125 213.261719 95.0625 C 213.828125 95.296875 214.386719 95.5625 214.929688 95.851562 C 215.472656 96.140625 216 96.457031 216.511719 96.800781 C 217.023438 97.140625 217.515625 97.507812 217.992188 97.898438 C 218.46875 98.289062 218.925781 98.703125 219.359375 99.140625 C 219.796875 99.574219 220.210938 100.03125 220.601562 100.507812 C 220.992188 100.980469 221.355469 101.476562 221.699219 101.988281 C 222.042969 102.5 222.359375 103.027344 222.648438 103.570312 C 222.9375 104.113281 223.203125 104.671875 223.4375 105.238281 C 223.671875 105.808594 223.878906 106.386719 224.058594 106.976562 C 224.238281 107.566406 224.386719 108.164062 224.507812 108.765625 C 224.628906 109.371094 224.71875 109.980469 224.777344 110.59375 C 224.839844 111.207031 224.867188 111.820312 224.867188 112.4375 Z M 224.867188 112.4375 " fill-opacity="1" fill-rule="nonzero"/></g><path fill="#d9d9d9" d="M 218.035156 112.4375 C 218.035156 113.222656 217.960938 114 217.804688 114.773438 C 217.652344 115.542969 217.425781 116.292969 217.125 117.019531 C 216.824219 117.746094 216.457031 118.433594 216.019531 119.089844 C 215.582031 119.742188 215.085938 120.347656 214.53125 120.902344 C 213.972656 121.457031 213.367188 121.953125 212.714844 122.390625 C 212.0625 122.828125 211.371094 123.195312 210.644531 123.496094 C 209.917969 123.796875 209.171875 124.027344 208.398438 124.179688 C 207.628906 124.332031 206.851562 124.410156 206.0625 124.410156 C 205.277344 124.410156 204.5 124.332031 203.726562 124.179688 C 202.957031 124.027344 202.207031 123.796875 201.480469 123.496094 C 200.753906 123.195312 200.066406 122.828125 199.410156 122.390625 C 198.757812 121.953125 198.152344 121.457031 197.597656 120.902344 C 197.042969 120.347656 196.546875 119.742188 196.109375 119.089844 C 195.671875 118.433594 195.300781 117.746094 195 117.019531 C 194.699219 116.292969 194.472656 115.542969 194.320312 114.773438 C 194.167969 114 194.089844 113.222656 194.089844 112.4375 C 194.089844 111.648438 194.167969 110.871094 194.320312 110.101562 C 194.472656 109.328125 194.699219 108.582031 195 107.855469 C 195.300781 107.128906 195.671875 106.4375 196.109375 105.785156 C 196.546875 105.128906 197.042969 104.527344 197.597656 103.96875 C 198.152344 103.414062 198.757812 102.917969 199.410156 102.480469 C 200.066406 102.042969 200.753906 101.675781 201.480469 101.375 C 202.207031 101.074219 202.957031 100.847656 203.726562 100.691406 C 204.5 100.539062 205.277344 100.464844 206.0625 100.464844 C 206.851562 100.464844 207.628906 100.539062 208.398438 100.691406 C 209.171875 100.847656 209.917969 101.074219 210.644531 101.375 C 211.371094 101.675781 212.0625 102.042969 212.714844 102.480469 C 213.367188 102.917969 213.972656 103.414062 214.53125 103.96875 C 215.085938 104.527344 215.582031 105.128906 216.019531 105.785156 C 216.457031 106.4375 216.824219 107.128906 217.125 107.855469 C 217.425781 108.582031 217.652344 109.328125 217.804688 110.101562 C 217.960938 110.871094 218.035156 111.648438 218.035156 112.4375 Z M 218.035156 112.4375 " fill-opacity="1" fill-rule="nonzero"/><path fill="#d9d9d9" d="M 150.390625 128.941406 L 150.390625 113.179688 C 150.390625 113.179688 166.152344 113.179688 166.152344 128.941406 Z M 150.390625 128.941406 " fill-opacity="1" fill-rule="nonzero"/><g clip-path="url(#b41449d395)"><path fill="#ffffff" d="M 244.824219 149.167969 C 241.441406 149.167969 238.398438 150.65625 236.367188 153.089844 C 233.527344 136.652344 221.488281 128.0625 213.300781 124.070312 C 209.242188 122.109375 204.777344 121.09375 200.179688 121.09375 L 181.847656 121.09375 C 181.847656 105.332031 166.085938 105.332031 166.085938 105.332031 L 166.085938 121.839844 C 149.175781 125.289062 136.1875 139.5625 134.765625 157.082031 C 124.820312 157.082031 118.9375 152.550781 118.9375 152.550781 L 118.9375 168.308594 C 118.9375 168.308594 118.9375 176.15625 134.699219 184.070312 C 150.460938 191.917969 150.460938 191.917969 150.460938 215.527344 C 150.460938 215.527344 158.304688 215.527344 166.222656 199.765625 L 205.589844 199.765625 L 205.589844 215.527344 C 205.589844 215.527344 235.554688 208.019531 236.976562 163.777344 L 240.359375 163.777344 L 240.359375 160.464844 C 240.359375 157.960938 242.390625 155.929688 244.890625 155.929688 C 247.394531 155.929688 249.421875 157.960938 249.421875 160.464844 C 249.421875 162.964844 247.394531 164.996094 244.890625 164.996094 L 244.890625 171.691406 C 251.046875 171.691406 256.121094 166.6875 256.121094 160.464844 C 256.121094 154.242188 250.980469 149.167969 244.824219 149.167969 Z M 244.824219 149.167969 " fill-opacity="1" fill-rule="nonzero"/></g><path fill="#2e2e2e" d="M 153.707031 146.257812 C 153.707031 146.636719 153.632812 146.996094 153.492188 147.34375 C 153.347656 147.695312 153.140625 148 152.875 148.265625 C 152.609375 148.535156 152.300781 148.738281 151.953125 148.882812 C 151.605469 149.027344 151.242188 149.097656 150.867188 149.097656 C 150.488281 149.097656 150.125 149.027344 149.777344 148.882812 C 149.429688 148.738281 149.121094 148.535156 148.855469 148.265625 C 148.589844 148 148.386719 147.695312 148.242188 147.34375 C 148.097656 146.996094 148.023438 146.636719 148.023438 146.257812 C 148.023438 145.882812 148.097656 145.519531 148.242188 145.171875 C 148.386719 144.824219 148.589844 144.515625 148.855469 144.25 C 149.121094 143.984375 149.429688 143.777344 149.777344 143.632812 C 150.125 143.488281 150.488281 143.417969 150.867188 143.417969 C 151.242188 143.417969 151.605469 143.488281 151.953125 143.632812 C 152.300781 143.777344 152.609375 143.984375 152.875 144.25 C 153.140625 144.515625 153.347656 144.824219 153.492188 145.171875 C 153.632812 145.519531 153.707031 145.882812 153.707031 146.257812 Z M 153.707031 146.257812 " fill-opacity="1" fill-rule="nonzero"/><g fill="#ffffff" fill-opacity="1"><g transform="translate(69.389577, 254.955334)"><g><path d="M 2.53125 0 L 2.53125 -27.140625 L 13.265625 -27.140625 C 15.273438 -27.140625 17.082031 -26.78125 18.6875 -26.0625 C 20.289062 -25.351562 21.5625 -24.3125 22.5 -22.9375 C 23.445312 -21.570312 23.921875 -19.910156 23.921875 -17.953125 C 23.921875 -16.160156 23.523438 -14.625 22.734375 -13.34375 C 21.941406 -12.0625 20.820312 -11.070312 19.375 -10.375 C 17.925781 -9.6875 16.207031 -9.34375 14.21875 -9.34375 L 9.84375 -9.34375 L 9.84375 0 Z M 9.765625 -14.796875 L 13.984375 -14.796875 C 14.910156 -14.796875 15.679688 -15.164062 16.296875 -15.90625 C 16.910156 -16.644531 17.21875 -17.453125 17.21875 -18.328125 C 17.21875 -19.265625 16.878906 -20.066406 16.203125 -20.734375 C 15.535156 -21.398438 14.796875 -21.734375 13.984375 -21.734375 L 9.765625 -21.734375 Z M 9.765625 -14.796875 "/></g></g></g><g fill="#ffffff" fill-opacity="1"><g transform="translate(94.433414, 254.955334)"><g><path d="M 9.015625 -19.40625 L 9.015625 0 L 2.0625 0 L 2.0625 -19.40625 Z M 9.015625 -27.140625 L 9.015625 -20.984375 L 2.0625 -20.984375 L 2.0625 -27.140625 Z M 9.015625 -27.140625 "/></g></g></g><g fill="#ffffff" fill-opacity="1"><g transform="translate(105.509772, 254.955334)"><g><path d="M 11.609375 6.421875 C 7.773438 6.421875 4.914062 5.984375 3.03125 5.109375 C 1.15625 4.242188 0.21875 3.191406 0.21875 1.953125 C 0.21875 1.328125 0.398438 0.8125 0.765625 0.40625 C 1.128906 0 1.554688 -0.3125 2.046875 -0.53125 C 2.535156 -0.757812 2.976562 -0.925781 3.375 -1.03125 C 3.78125 -1.132812 4.019531 -1.191406 4.09375 -1.203125 C 3.90625 -1.304688 3.59375 -1.472656 3.15625 -1.703125 C 2.71875 -1.941406 2.304688 -2.28125 1.921875 -2.71875 C 1.546875 -3.164062 1.359375 -3.75 1.359375 -4.46875 C 1.359375 -5.238281 1.722656 -5.945312 2.453125 -6.59375 C 3.179688 -7.25 4.300781 -7.679688 5.8125 -7.890625 C 4.414062 -8.515625 3.375 -9.375 2.6875 -10.46875 C 2 -11.570312 1.65625 -12.640625 1.65625 -13.671875 C 1.65625 -14.972656 2.109375 -16.070312 3.015625 -16.96875 C 3.929688 -17.875 5.132812 -18.554688 6.625 -19.015625 C 8.125 -19.484375 9.757812 -19.71875 11.53125 -19.71875 C 12.914062 -19.71875 14.03125 -19.578125 14.875 -19.296875 C 15.726562 -19.023438 16.515625 -18.703125 17.234375 -18.328125 C 17.597656 -18.460938 18.03125 -18.625 18.53125 -18.8125 C 19.039062 -19.007812 19.585938 -19.21875 20.171875 -19.4375 C 20.753906 -19.664062 21.335938 -19.898438 21.921875 -20.140625 C 22.515625 -20.378906 23.078125 -20.613281 23.609375 -20.84375 L 23.578125 -15.65625 L 20.28125 -15.203125 C 20.351562 -14.929688 20.40625 -14.640625 20.4375 -14.328125 C 20.476562 -14.023438 20.5 -13.816406 20.5 -13.703125 C 20.5 -12.597656 20.140625 -11.535156 19.421875 -10.515625 C 18.710938 -9.503906 17.65625 -8.664062 16.25 -8 C 14.851562 -7.34375 13.128906 -7.015625 11.078125 -7.015625 C 10.773438 -7.015625 10.347656 -7.023438 9.796875 -7.046875 C 9.242188 -7.066406 8.804688 -7.097656 8.484375 -7.140625 C 8.296875 -7.097656 8.160156 -7.054688 8.078125 -7.015625 C 7.992188 -6.972656 7.953125 -6.898438 7.953125 -6.796875 C 7.953125 -6.535156 8.234375 -6.378906 8.796875 -6.328125 C 9.367188 -6.273438 10.128906 -6.21875 11.078125 -6.15625 C 11.410156 -6.144531 11.929688 -6.117188 12.640625 -6.078125 C 13.347656 -6.046875 14.113281 -6 14.9375 -5.9375 C 17.632812 -5.75 19.597656 -5.101562 20.828125 -4 C 22.054688 -2.90625 22.671875 -1.609375 22.671875 -0.109375 C 22.671875 1.765625 21.742188 3.320312 19.890625 4.5625 C 18.046875 5.800781 15.285156 6.421875 11.609375 6.421875 Z M 12.734375 2.59375 C 14.003906 2.59375 14.828125 2.476562 15.203125 2.25 C 15.578125 2.03125 15.765625 1.742188 15.765625 1.390625 C 15.765625 0.972656 15.550781 0.632812 15.125 0.375 C 14.707031 0.125 14.117188 -0.0234375 13.359375 -0.078125 L 9.84375 -0.296875 C 9.164062 -0.335938 8.644531 -0.285156 8.28125 -0.140625 C 7.914062 0.00390625 7.664062 0.191406 7.53125 0.421875 C 7.394531 0.648438 7.328125 0.875 7.328125 1.09375 C 7.328125 1.707031 7.765625 2.109375 8.640625 2.296875 C 9.515625 2.492188 10.878906 2.59375 12.734375 2.59375 Z M 11.296875 -10.84375 C 12.003906 -10.84375 12.566406 -11.085938 12.984375 -11.578125 C 13.410156 -12.066406 13.625 -12.675781 13.625 -13.40625 C 13.625 -14.144531 13.410156 -14.785156 12.984375 -15.328125 C 12.566406 -15.867188 12.003906 -16.140625 11.296875 -16.140625 C 10.609375 -16.140625 10.046875 -15.867188 9.609375 -15.328125 C 9.179688 -14.785156 8.96875 -14.144531 8.96875 -13.40625 C 8.96875 -12.675781 9.179688 -12.066406 9.609375 -11.578125 C 10.046875 -11.085938 10.609375 -10.84375 11.296875 -10.84375 Z M 11.296875 -10.84375 "/></g></g></g><g fill="#ffffff" fill-opacity="1"><g transform="translate(129.314569, 254.955334)"><g><path d="M 11.609375 6.421875 C 7.773438 6.421875 4.914062 5.984375 3.03125 5.109375 C 1.15625 4.242188 0.21875 3.191406 0.21875 1.953125 C 0.21875 1.328125 0.398438 0.8125 0.765625 0.40625 C 1.128906 0 1.554688 -0.3125 2.046875 -0.53125 C 2.535156 -0.757812 2.976562 -0.925781 3.375 -1.03125 C 3.78125 -1.132812 4.019531 -1.191406 4.09375 -1.203125 C 3.90625 -1.304688 3.59375 -1.472656 3.15625 -1.703125 C 2.71875 -1.941406 2.304688 -2.28125 1.921875 -2.71875 C 1.546875 -3.164062 1.359375 -3.75 1.359375 -4.46875 C 1.359375 -5.238281 1.722656 -5.945312 2.453125 -6.59375 C 3.179688 -7.25 4.300781 -7.679688 5.8125 -7.890625 C 4.414062 -8.515625 3.375 -9.375 2.6875 -10.46875 C 2 -11.570312 1.65625 -12.640625 1.65625 -13.671875 C 1.65625 -14.972656 2.109375 -16.070312 3.015625 -16.96875 C 3.929688 -17.875 5.132812 -18.554688 6.625 -19.015625 C 8.125 -19.484375 9.757812 -19.71875 11.53125 -19.71875 C 12.914062 -19.71875 14.03125 -19.578125 14.875 -19.296875 C 15.726562 -19.023438 16.515625 -18.703125 17.234375 -18.328125 C 17.597656 -18.460938 18.03125 -18.625 18.53125 -18.8125 C 19.039062 -19.007812 19.585938 -19.21875 20.171875 -19.4375 C 20.753906 -19.664062 21.335938 -19.898438 21.921875 -20.140625 C 22.515625 -20.378906 23.078125 -20.613281 23.609375 -20.84375 L 23.578125 -15.65625 L 20.28125 -15.203125 C 20.351562 -14.929688 20.40625 -14.640625 20.4375 -14.328125 C 20.476562 -14.023438 20.5 -13.816406 20.5 -13.703125 C 20.5 -12.597656 20.140625 -11.535156 19.421875 -10.515625 C 18.710938 -9.503906 17.65625 -8.664062 16.25 -8 C 14.851562 -7.34375 13.128906 -7.015625 11.078125 -7.015625 C 10.773438 -7.015625 10.347656 -7.023438 9.796875 -7.046875 C 9.242188 -7.066406 8.804688 -7.097656 8.484375 -7.140625 C 8.296875 -7.097656 8.160156 -7.054688 8.078125 -7.015625 C 7.992188 -6.972656 7.953125 -6.898438 7.953125 -6.796875 C 7.953125 -6.535156 8.234375 -6.378906 8.796875 -6.328125 C 9.367188 -6.273438 10.128906 -6.21875 11.078125 -6.15625 C 11.410156 -6.144531 11.929688 -6.117188 12.640625 -6.078125 C 13.347656 -6.046875 14.113281 -6 14.9375 -5.9375 C 17.632812 -5.75 19.597656 -5.101562 20.828125 -4 C 22.054688 -2.90625 22.671875 -1.609375 22.671875 -0.109375 C 22.671875 1.765625 21.742188 3.320312 19.890625 4.5625 C 18.046875 5.800781 15.285156 6.421875 11.609375 6.421875 Z M 12.734375 2.59375 C 14.003906 2.59375 14.828125 2.476562 15.203125 2.25 C 15.578125 2.03125 15.765625 1.742188 15.765625 1.390625 C 15.765625 0.972656 15.550781 0.632812 15.125 0.375 C 14.707031 0.125 14.117188 -0.0234375 13.359375 -0.078125 L 9.84375 -0.296875 C 9.164062 -0.335938 8.644531 -0.285156 8.28125 -0.140625 C 7.914062 0.00390625 7.664062 0.191406 7.53125 0.421875 C 7.394531 0.648438 7.328125 0.875 7.328125 1.09375 C 7.328125 1.707031 7.765625 2.109375 8.640625 2.296875 C 9.515625 2.492188 10.878906 2.59375 12.734375 2.59375 Z M 11.296875 -10.84375 C 12.003906 -10.84375 12.566406 -11.085938 12.984375 -11.578125 C 13.410156 -12.066406 13.625 -12.675781 13.625 -13.40625 C 13.625 -14.144531 13.410156 -14.785156 12.984375 -15.328125 C 12.566406 -15.867188 12.003906 -16.140625 11.296875 -16.140625 C 10.609375 -16.140625 10.046875 -15.867188 9.609375 -15.328125 C 9.179688 -14.785156 8.96875 -14.144531 8.96875 -13.40625 C 8.96875 -12.675781 9.179688 -12.066406 9.609375 -11.578125 C 10.046875 -11.085938 10.609375 -10.84375 11.296875 -10.84375 Z M 11.296875 -10.84375 "/></g></g></g><g fill="#ffffff" fill-opacity="1"><g transform="translate(153.119365, 254.955334)"><g><path d="M 5.90625 6.1875 C 4.40625 6.1875 3.328125 6.050781 2.671875 5.78125 C 2.015625 5.507812 1.6875 5.375 1.6875 5.375 L 1.6875 0.75 L 3.546875 0.859375 C 4.492188 0.929688 5.238281 0.898438 5.78125 0.765625 C 6.332031 0.640625 6.734375 0.46875 6.984375 0.25 C 7.234375 0.03125 7.394531 -0.175781 7.46875 -0.375 C 7.539062 -0.570312 7.585938 -0.695312 7.609375 -0.75 L 7.671875 -1.125 L 0.15625 -19.40625 L 7.328125 -19.40625 L 11 -8.859375 L 14.8125 -19.40625 L 21.96875 -19.40625 L 14.375 -1.125 C 13.539062 0.914062 12.6875 2.460938 11.8125 3.515625 C 10.9375 4.566406 10.007812 5.273438 9.03125 5.640625 C 8.0625 6.003906 7.019531 6.1875 5.90625 6.1875 Z M 5.90625 6.1875 "/></g></g></g><g fill="#ffffff" fill-opacity="1"><g transform="translate(175.215765, 254.955334)"><g/></g></g><g fill="#ffffff" fill-opacity="1"><g transform="translate(182.5562, 254.955334)"><g><path d="M 25.96875 -11.234375 C 25.96875 -8.921875 25.597656 -6.894531 24.859375 -5.15625 C 24.117188 -3.414062 22.894531 -2.054688 21.1875 -1.078125 C 19.476562 -0.109375 17.164062 0.375 14.25 0.375 C 11.332031 0.375 9.019531 -0.109375 7.3125 -1.078125 C 5.601562 -2.054688 4.378906 -3.414062 3.640625 -5.15625 C 2.898438 -6.894531 2.53125 -8.921875 2.53125 -11.234375 L 2.53125 -27.140625 L 9.9375 -27.140625 L 9.9375 -10.921875 C 9.9375 -9.046875 10.367188 -7.710938 11.234375 -6.921875 C 12.109375 -6.140625 13.113281 -5.75 14.25 -5.75 C 15 -5.75 15.703125 -5.921875 16.359375 -6.265625 C 17.015625 -6.609375 17.546875 -7.15625 17.953125 -7.90625 C 18.359375 -8.664062 18.5625 -9.671875 18.5625 -10.921875 L 18.5625 -27.140625 L 25.96875 -27.140625 Z M 25.96875 -11.234375 "/></g></g></g><g fill="#ffffff" fill-opacity="1"><g transform="translate(210.547485, 254.955334)"><g><path d="M 1.875 0 L 1.875 -19.40625 L 9.109375 -19.40625 L 9.109375 -16.734375 C 9.378906 -17.140625 9.726562 -17.554688 10.15625 -17.984375 C 10.582031 -18.410156 11.132812 -18.765625 11.8125 -19.046875 C 12.488281 -19.335938 13.332031 -19.484375 14.34375 -19.484375 C 15.476562 -19.484375 16.5625 -19.265625 17.59375 -18.828125 C 18.632812 -18.390625 19.484375 -17.6875 20.140625 -16.71875 C 20.796875 -15.757812 21.125 -14.492188 21.125 -12.921875 L 21.125 0 L 13.796875 0 L 13.796875 -11.921875 C 13.796875 -12.554688 13.554688 -13.039062 13.078125 -13.375 C 12.609375 -13.71875 12.097656 -13.890625 11.546875 -13.890625 C 11.191406 -13.890625 10.828125 -13.8125 10.453125 -13.65625 C 10.085938 -13.507812 9.785156 -13.289062 9.546875 -13 C 9.304688 -12.707031 9.1875 -12.347656 9.1875 -11.921875 L 9.1875 0 Z M 1.875 0 "/></g></g></g><g fill="#ffffff" fill-opacity="1"><g transform="translate(233.357286, 254.955334)"><g><path d="M 9.015625 -19.40625 L 9.015625 0 L 2.0625 0 L 2.0625 -19.40625 Z M 9.015625 -27.140625 L 9.015625 -20.984375 L 2.0625 -20.984375 L 2.0625 -27.140625 Z M 9.015625 -27.140625 "/></g></g></g><g fill="#ffffff" fill-opacity="1"><g transform="translate(244.433645, 254.955334)"><g><path d="M 15.25 -14.453125 L 11 -14.453125 L 11.03125 -5.671875 C 11.03125 -5.378906 11.082031 -5.15625 11.1875 -5 C 11.300781 -4.851562 11.445312 -4.753906 11.625 -4.703125 C 11.800781 -4.648438 11.992188 -4.625 12.203125 -4.625 L 15.25 -4.625 L 15.25 -0.296875 C 14.976562 -0.171875 14.554688 -0.0390625 13.984375 0.09375 C 13.410156 0.226562 12.539062 0.296875 11.375 0.296875 C 9.332031 0.296875 7.757812 0.046875 6.65625 -0.453125 C 5.550781 -0.960938 4.785156 -1.644531 4.359375 -2.5 C 3.929688 -3.351562 3.71875 -4.296875 3.71875 -5.328125 L 3.71875 -14.453125 L 0.5625 -14.453125 L 0.5625 -19.40625 L 3.984375 -19.40625 L 5.859375 -25.453125 L 11 -25.453125 L 11 -19.453125 L 15.25 -19.453125 Z M 15.25 -14.453125 "/></g></g></g><g fill="#ffffff" fill-opacity="1"><g transform="translate(260.991871, 254.955334)"><g><path d="M 8.203125 -8.03125 C 8.191406 -7.257812 8.3125 -6.628906 8.5625 -6.140625 C 8.8125 -5.648438 9.148438 -5.289062 9.578125 -5.0625 C 10.015625 -4.84375 10.492188 -4.734375 11.015625 -4.734375 C 11.679688 -4.734375 12.28125 -4.859375 12.8125 -5.109375 C 13.34375 -5.359375 13.757812 -5.859375 14.0625 -6.609375 L 20.515625 -6.609375 C 20.316406 -5.171875 19.75 -3.925781 18.8125 -2.875 C 17.875 -1.832031 16.726562 -1.03125 15.375 -0.46875 C 14.03125 0.09375 12.640625 0.375 11.203125 0.375 C 9.191406 0.375 7.414062 -0.03125 5.875 -0.84375 C 4.34375 -1.664062 3.148438 -2.816406 2.296875 -4.296875 C 1.453125 -5.773438 1.03125 -7.5 1.03125 -9.46875 C 1.03125 -11.3125 1.421875 -13.015625 2.203125 -14.578125 C 2.984375 -16.148438 4.109375 -17.410156 5.578125 -18.359375 C 7.054688 -19.304688 8.832031 -19.78125 10.90625 -19.78125 C 13.019531 -19.78125 14.785156 -19.34375 16.203125 -18.46875 C 17.617188 -17.59375 18.675781 -16.394531 19.375 -14.875 C 20.082031 -13.351562 20.4375 -11.632812 20.4375 -9.71875 L 20.4375 -8.03125 Z M 8.171875 -12.125 L 13.703125 -12.125 C 13.703125 -12.613281 13.59375 -13.066406 13.375 -13.484375 C 13.164062 -13.910156 12.851562 -14.25 12.4375 -14.5 C 12.03125 -14.75 11.519531 -14.875 10.90625 -14.875 C 10.40625 -14.875 9.945312 -14.75 9.53125 -14.5 C 9.125 -14.25 8.796875 -13.910156 8.546875 -13.484375 C 8.296875 -13.066406 8.171875 -12.613281 8.171875 -12.125 Z M 8.171875 -12.125 "/></g></g></g><g fill="#ffffff" fill-opacity="1"><g transform="translate(282.54383, 254.955334)"><g><path d="M 9.28125 0.375 C 6.59375 0.375 4.53125 -0.550781 3.09375 -2.40625 C 1.65625 -4.269531 0.9375 -6.75 0.9375 -9.84375 C 0.9375 -11.875 1.234375 -13.632812 1.828125 -15.125 C 2.421875 -16.613281 3.28125 -17.757812 4.40625 -18.5625 C 5.53125 -19.375 6.890625 -19.78125 8.484375 -19.78125 C 8.972656 -19.78125 9.46875 -19.738281 9.96875 -19.65625 C 10.46875 -19.570312 10.957031 -19.429688 11.4375 -19.234375 C 11.925781 -19.035156 12.375 -18.769531 12.78125 -18.4375 C 13.195312 -18.113281 13.554688 -17.703125 13.859375 -17.203125 L 13.859375 -27.890625 L 21.171875 -27.890625 L 21.171875 0 L 16.015625 0 L 15.15625 -3.984375 C 14.925781 -3.304688 14.640625 -2.695312 14.296875 -2.15625 C 13.953125 -1.625 13.535156 -1.164062 13.046875 -0.78125 C 12.566406 -0.40625 12.015625 -0.117188 11.390625 0.078125 C 10.765625 0.273438 10.0625 0.375 9.28125 0.375 Z M 11 -4.734375 C 11.851562 -4.734375 12.539062 -5.101562 13.0625 -5.84375 C 13.59375 -6.59375 13.859375 -7.925781 13.859375 -9.84375 C 13.859375 -10.988281 13.738281 -11.914062 13.5 -12.625 C 13.257812 -13.332031 12.925781 -13.84375 12.5 -14.15625 C 12.070312 -14.476562 11.570312 -14.640625 11 -14.640625 C 10.175781 -14.640625 9.46875 -14.289062 8.875 -13.59375 C 8.289062 -12.894531 8 -11.644531 8 -9.84375 C 8 -7.925781 8.289062 -6.59375 8.875 -5.84375 C 9.46875 -5.101562 10.175781 -4.734375 11 -4.734375 Z M 11 -4.734375 "/></g></g></g><g fill="#ffffff" fill-opacity="1"><g transform="translate(101.084894, 277.843986)"><g><path d="M 7.453125 -9.046875 L 4.390625 -3.84375 L 4.390625 0 L 3.234375 0 L 3.234375 -3.859375 L 0.15625 -9.046875 L 1.421875 -9.046875 L 3.8125 -4.890625 L 6.1875 -9.046875 Z M 7.453125 -9.046875 "/></g></g></g><g fill="#ffffff" fill-opacity="1"><g transform="translate(108.681825, 277.843986)"><g><path d="M 3.53125 0.125 C 2.9375 0.125 2.414062 0 1.96875 -0.25 C 1.519531 -0.507812 1.171875 -0.890625 0.921875 -1.390625 C 0.679688 -1.890625 0.5625 -2.492188 0.5625 -3.203125 C 0.5625 -3.878906 0.675781 -4.472656 0.90625 -4.984375 C 1.132812 -5.492188 1.46875 -5.890625 1.90625 -6.171875 C 2.351562 -6.453125 2.894531 -6.59375 3.53125 -6.59375 C 4.125 -6.59375 4.640625 -6.460938 5.078125 -6.203125 C 5.523438 -5.941406 5.867188 -5.554688 6.109375 -5.046875 C 6.347656 -4.546875 6.46875 -3.929688 6.46875 -3.203125 C 6.46875 -2.546875 6.351562 -1.96875 6.125 -1.46875 C 5.90625 -0.96875 5.578125 -0.578125 5.140625 -0.296875 C 4.710938 -0.015625 4.175781 0.125 3.53125 0.125 Z M 3.53125 -0.78125 C 3.914062 -0.78125 4.238281 -0.878906 4.5 -1.078125 C 4.769531 -1.273438 4.972656 -1.554688 5.109375 -1.921875 C 5.253906 -2.296875 5.328125 -2.734375 5.328125 -3.234375 C 5.328125 -3.703125 5.265625 -4.117188 5.140625 -4.484375 C 5.023438 -4.847656 4.832031 -5.140625 4.5625 -5.359375 C 4.300781 -5.578125 3.957031 -5.6875 3.53125 -5.6875 C 3.132812 -5.6875 2.800781 -5.585938 2.53125 -5.390625 C 2.257812 -5.203125 2.050781 -4.921875 1.90625 -4.546875 C 1.769531 -4.179688 1.703125 -3.742188 1.703125 -3.234375 C 1.703125 -2.773438 1.765625 -2.359375 1.890625 -1.984375 C 2.015625 -1.617188 2.210938 -1.328125 2.484375 -1.109375 C 2.753906 -0.890625 3.101562 -0.78125 3.53125 -0.78125 Z M 3.53125 -0.78125 "/></g></g></g><g fill="#ffffff" fill-opacity="1"><g transform="translate(115.715558, 277.843986)"><g><path d="M 3.328125 0.125 C 2.992188 0.125 2.675781 0.078125 2.375 -0.015625 C 2.082031 -0.109375 1.820312 -0.25 1.59375 -0.4375 C 1.363281 -0.625 1.179688 -0.851562 1.046875 -1.125 C 0.910156 -1.394531 0.84375 -1.710938 0.84375 -2.078125 L 0.84375 -6.46875 L 2.015625 -6.46875 L 2.015625 -2.203125 C 2.015625 -1.773438 2.144531 -1.429688 2.40625 -1.171875 C 2.664062 -0.910156 3.054688 -0.78125 3.578125 -0.78125 C 4.054688 -0.78125 4.4375 -0.898438 4.71875 -1.140625 C 5.007812 -1.390625 5.15625 -1.765625 5.15625 -2.265625 L 5.15625 -6.46875 L 6.3125 -6.46875 L 6.3125 0 L 5.390625 0 L 5.28125 -1.234375 C 5.195312 -0.910156 5.0625 -0.648438 4.875 -0.453125 C 4.6875 -0.253906 4.457031 -0.109375 4.1875 -0.015625 C 3.925781 0.078125 3.640625 0.125 3.328125 0.125 Z M 3.328125 0.125 "/></g></g></g><g fill="#ffffff" fill-opacity="1"><g transform="translate(122.880703, 277.843986)"><g><path d="M 0.953125 0 L 0.953125 -6.46875 L 2.0625 -6.46875 L 2.0625 -5.21875 C 2.164062 -5.53125 2.316406 -5.785156 2.515625 -5.984375 C 2.710938 -6.191406 2.9375 -6.34375 3.1875 -6.4375 C 3.4375 -6.539062 3.695312 -6.59375 3.96875 -6.59375 C 4.070312 -6.59375 4.164062 -6.585938 4.25 -6.578125 C 4.34375 -6.566406 4.414062 -6.546875 4.46875 -6.515625 L 4.46875 -5.390625 C 4.40625 -5.421875 4.320312 -5.441406 4.21875 -5.453125 C 4.125 -5.460938 4.046875 -5.46875 3.984375 -5.46875 C 3.722656 -5.488281 3.476562 -5.472656 3.25 -5.421875 C 3.03125 -5.367188 2.832031 -5.285156 2.65625 -5.171875 C 2.488281 -5.054688 2.351562 -4.90625 2.25 -4.71875 C 2.15625 -4.53125 2.109375 -4.300781 2.109375 -4.03125 L 2.109375 0 Z M 0.953125 0 "/></g></g></g><g fill="#ffffff" fill-opacity="1"><g transform="translate(127.73048, 277.843986)"><g/></g></g><g fill="#ffffff" fill-opacity="1"><g transform="translate(130.615318, 277.843986)"><g><path d="M 1.1875 0 L 1.1875 -9.046875 L 4.25 -9.046875 C 4.894531 -9.046875 5.46875 -8.9375 5.96875 -8.71875 C 6.476562 -8.5 6.878906 -8.175781 7.171875 -7.75 C 7.460938 -7.332031 7.609375 -6.8125 7.609375 -6.1875 C 7.609375 -5.582031 7.472656 -5.066406 7.203125 -4.640625 C 6.929688 -4.222656 6.554688 -3.898438 6.078125 -3.671875 C 5.597656 -3.453125 5.039062 -3.34375 4.40625 -3.34375 L 2.390625 -3.34375 L 2.390625 0 Z M 2.375 -4.328125 L 4.390625 -4.328125 C 5.003906 -4.328125 5.503906 -4.5 5.890625 -4.84375 C 6.285156 -5.1875 6.484375 -5.65625 6.484375 -6.25 C 6.484375 -6.851562 6.28125 -7.304688 5.875 -7.609375 C 5.476562 -7.921875 4.960938 -8.078125 4.328125 -8.078125 L 2.375 -8.078125 Z M 2.375 -4.328125 "/></g></g></g><g fill="#ffffff" fill-opacity="1"><g transform="translate(138.581458, 277.843986)"><g><path d="M 1.78125 -2.96875 C 1.78125 -2.5625 1.847656 -2.191406 1.984375 -1.859375 C 2.117188 -1.523438 2.320312 -1.257812 2.59375 -1.0625 C 2.875 -0.863281 3.222656 -0.765625 3.640625 -0.765625 C 4.054688 -0.765625 4.410156 -0.859375 4.703125 -1.046875 C 5.003906 -1.242188 5.195312 -1.523438 5.28125 -1.890625 L 6.390625 -1.890625 C 6.304688 -1.453125 6.128906 -1.082031 5.859375 -0.78125 C 5.585938 -0.476562 5.257812 -0.25 4.875 -0.09375 C 4.488281 0.0507812 4.085938 0.125 3.671875 0.125 C 3.066406 0.125 2.535156 -0.00390625 2.078125 -0.265625 C 1.617188 -0.523438 1.257812 -0.898438 1 -1.390625 C 0.738281 -1.890625 0.609375 -2.484375 0.609375 -3.171875 C 0.609375 -3.847656 0.722656 -4.441406 0.953125 -4.953125 C 1.191406 -5.472656 1.53125 -5.875 1.96875 -6.15625 C 2.414062 -6.445312 2.953125 -6.59375 3.578125 -6.59375 C 4.191406 -6.59375 4.707031 -6.460938 5.125 -6.203125 C 5.550781 -5.941406 5.875 -5.570312 6.09375 -5.09375 C 6.3125 -4.613281 6.421875 -4.046875 6.421875 -3.390625 L 6.421875 -2.96875 Z M 1.796875 -3.75 L 5.3125 -3.75 C 5.3125 -4.125 5.25 -4.457031 5.125 -4.75 C 5 -5.050781 4.804688 -5.285156 4.546875 -5.453125 C 4.285156 -5.628906 3.960938 -5.71875 3.578125 -5.71875 C 3.171875 -5.71875 2.832031 -5.617188 2.5625 -5.421875 C 2.300781 -5.234375 2.101562 -4.988281 1.96875 -4.6875 C 1.84375 -4.382812 1.785156 -4.070312 1.796875 -3.75 Z M 1.796875 -3.75 "/></g></g></g><g fill="#ffffff" fill-opacity="1"><g transform="translate(145.627711, 277.843986)"><g><path d="M 0.953125 0 L 0.953125 -6.46875 L 2.0625 -6.46875 L 2.0625 -5.21875 C 2.164062 -5.53125 2.316406 -5.785156 2.515625 -5.984375 C 2.710938 -6.191406 2.9375 -6.34375 3.1875 -6.4375 C 3.4375 -6.539062 3.695312 -6.59375 3.96875 -6.59375 C 4.070312 -6.59375 4.164062 -6.585938 4.25 -6.578125 C 4.34375 -6.566406 4.414062 -6.546875 4.46875 -6.515625 L 4.46875 -5.390625 C 4.40625 -5.421875 4.320312 -5.441406 4.21875 -5.453125 C 4.125 -5.460938 4.046875 -5.46875 3.984375 -5.46875 C 3.722656 -5.488281 3.476562 -5.472656 3.25 -5.421875 C 3.03125 -5.367188 2.832031 -5.285156 2.65625 -5.171875 C 2.488281 -5.054688 2.351562 -4.90625 2.25 -4.71875 C 2.15625 -4.53125 2.109375 -4.300781 2.109375 -4.03125 L 2.109375 0 Z M 0.953125 0 "/></g></g></g><g fill="#ffffff" fill-opacity="1"><g transform="translate(150.477488, 277.843986)"><g><path d="M 3.25 0.125 C 2.800781 0.125 2.382812 0.0546875 2 -0.078125 C 1.613281 -0.222656 1.289062 -0.441406 1.03125 -0.734375 C 0.78125 -1.035156 0.625 -1.421875 0.5625 -1.890625 L 1.609375 -1.890625 C 1.671875 -1.628906 1.773438 -1.414062 1.921875 -1.25 C 2.078125 -1.082031 2.269531 -0.953125 2.5 -0.859375 C 2.726562 -0.773438 2.976562 -0.734375 3.25 -0.734375 C 3.6875 -0.734375 4.035156 -0.8125 4.296875 -0.96875 C 4.566406 -1.132812 4.703125 -1.390625 4.703125 -1.734375 C 4.703125 -1.972656 4.628906 -2.160156 4.484375 -2.296875 C 4.347656 -2.441406 4.132812 -2.550781 3.84375 -2.625 L 2.5 -2.953125 C 1.976562 -3.078125 1.5625 -3.269531 1.25 -3.53125 C 0.9375 -3.800781 0.78125 -4.175781 0.78125 -4.65625 C 0.78125 -5.039062 0.867188 -5.375 1.046875 -5.65625 C 1.234375 -5.945312 1.507812 -6.175781 1.875 -6.34375 C 2.238281 -6.507812 2.695312 -6.59375 3.25 -6.59375 C 3.945312 -6.59375 4.507812 -6.4375 4.9375 -6.125 C 5.375 -5.8125 5.601562 -5.347656 5.625 -4.734375 L 4.59375 -4.734375 C 4.550781 -5.046875 4.410156 -5.289062 4.171875 -5.46875 C 3.941406 -5.65625 3.628906 -5.75 3.234375 -5.75 C 2.816406 -5.75 2.476562 -5.664062 2.21875 -5.5 C 1.96875 -5.332031 1.84375 -5.078125 1.84375 -4.734375 C 1.84375 -4.503906 1.929688 -4.320312 2.109375 -4.1875 C 2.296875 -4.0625 2.566406 -3.953125 2.921875 -3.859375 L 4.21875 -3.53125 C 4.519531 -3.457031 4.765625 -3.351562 4.953125 -3.21875 C 5.148438 -3.09375 5.304688 -2.945312 5.421875 -2.78125 C 5.535156 -2.625 5.617188 -2.457031 5.671875 -2.28125 C 5.722656 -2.113281 5.75 -1.953125 5.75 -1.796875 C 5.75 -1.398438 5.648438 -1.054688 5.453125 -0.765625 C 5.253906 -0.484375 4.96875 -0.265625 4.59375 -0.109375 C 4.226562 0.046875 3.78125 0.125 3.25 0.125 Z M 3.25 0.125 "/></g></g></g><g fill="#ffffff" fill-opacity="1"><g transform="translate(156.879187, 277.843986)"><g><path d="M 3.53125 0.125 C 2.9375 0.125 2.414062 0 1.96875 -0.25 C 1.519531 -0.507812 1.171875 -0.890625 0.921875 -1.390625 C 0.679688 -1.890625 0.5625 -2.492188 0.5625 -3.203125 C 0.5625 -3.878906 0.675781 -4.472656 0.90625 -4.984375 C 1.132812 -5.492188 1.46875 -5.890625 1.90625 -6.171875 C 2.351562 -6.453125 2.894531 -6.59375 3.53125 -6.59375 C 4.125 -6.59375 4.640625 -6.460938 5.078125 -6.203125 C 5.523438 -5.941406 5.867188 -5.554688 6.109375 -5.046875 C 6.347656 -4.546875 6.46875 -3.929688 6.46875 -3.203125 C 6.46875 -2.546875 6.351562 -1.96875 6.125 -1.46875 C 5.90625 -0.96875 5.578125 -0.578125 5.140625 -0.296875 C 4.710938 -0.015625 4.175781 0.125 3.53125 0.125 Z M 3.53125 -0.78125 C 3.914062 -0.78125 4.238281 -0.878906 4.5 -1.078125 C 4.769531 -1.273438 4.972656 -1.554688 5.109375 -1.921875 C 5.253906 -2.296875 5.328125 -2.734375 5.328125 -3.234375 C 5.328125 -3.703125 5.265625 -4.117188 5.140625 -4.484375 C 5.023438 -4.847656 4.832031 -5.140625 4.5625 -5.359375 C 4.300781 -5.578125 3.957031 -5.6875 3.53125 -5.6875 C 3.132812 -5.6875 2.800781 -5.585938 2.53125 -5.390625 C 2.257812 -5.203125 2.050781 -4.921875 1.90625 -4.546875 C 1.769531 -4.179688 1.703125 -3.742188 1.703125 -3.234375 C 1.703125 -2.773438 1.765625 -2.359375 1.890625 -1.984375 C 2.015625 -1.617188 2.210938 -1.328125 2.484375 -1.109375 C 2.753906 -0.890625 3.101562 -0.78125 3.53125 -0.78125 Z M 3.53125 -0.78125 "/></g></g></g><g fill="#ffffff" fill-opacity="1"><g transform="translate(163.91292, 277.843986)"><g><path d="M 0.953125 0 L 0.953125 -6.46875 L 2.078125 -6.46875 L 2.078125 -5.53125 C 2.179688 -5.707031 2.328125 -5.875 2.515625 -6.03125 C 2.703125 -6.195312 2.925781 -6.328125 3.1875 -6.421875 C 3.445312 -6.515625 3.753906 -6.5625 4.109375 -6.5625 C 4.515625 -6.5625 4.890625 -6.476562 5.234375 -6.3125 C 5.578125 -6.15625 5.851562 -5.90625 6.0625 -5.5625 C 6.269531 -5.21875 6.375 -4.773438 6.375 -4.234375 L 6.375 0 L 5.21875 0 L 5.21875 -4.125 C 5.21875 -4.625 5.082031 -4.992188 4.8125 -5.234375 C 4.550781 -5.484375 4.207031 -5.609375 3.78125 -5.609375 C 3.488281 -5.609375 3.210938 -5.5625 2.953125 -5.46875 C 2.703125 -5.375 2.5 -5.226562 2.34375 -5.03125 C 2.1875 -4.84375 2.109375 -4.609375 2.109375 -4.328125 L 2.109375 0 Z M 0.953125 0 "/></g></g></g><g fill="#ffffff" fill-opacity="1"><g transform="translate(171.134393, 277.843986)"><g><path d="M 2.75 0.125 C 2.332031 0.125 1.960938 0.0507812 1.640625 -0.09375 C 1.316406 -0.238281 1.0625 -0.453125 0.875 -0.734375 C 0.695312 -1.015625 0.609375 -1.351562 0.609375 -1.75 C 0.609375 -2.46875 0.859375 -3 1.359375 -3.34375 C 1.859375 -3.695312 2.660156 -3.890625 3.765625 -3.921875 L 4.9375 -3.953125 L 4.9375 -4.453125 C 4.9375 -4.847656 4.816406 -5.160156 4.578125 -5.390625 C 4.335938 -5.628906 3.96875 -5.75 3.46875 -5.75 C 3.09375 -5.738281 2.765625 -5.644531 2.484375 -5.46875 C 2.203125 -5.300781 2.019531 -5.023438 1.9375 -4.640625 L 0.921875 -4.640625 C 0.941406 -5.066406 1.054688 -5.421875 1.265625 -5.703125 C 1.484375 -5.992188 1.78125 -6.210938 2.15625 -6.359375 C 2.539062 -6.515625 2.992188 -6.59375 3.515625 -6.59375 C 4.085938 -6.59375 4.554688 -6.515625 4.921875 -6.359375 C 5.296875 -6.203125 5.578125 -5.96875 5.765625 -5.65625 C 5.953125 -5.34375 6.046875 -4.960938 6.046875 -4.515625 L 6.046875 0 L 5.0625 0 L 4.96875 -1.21875 C 4.71875 -0.707031 4.398438 -0.351562 4.015625 -0.15625 C 3.628906 0.03125 3.207031 0.125 2.75 0.125 Z M 3.09375 -0.703125 C 3.3125 -0.703125 3.523438 -0.738281 3.734375 -0.8125 C 3.953125 -0.894531 4.148438 -1.003906 4.328125 -1.140625 C 4.515625 -1.285156 4.660156 -1.441406 4.765625 -1.609375 C 4.867188 -1.773438 4.925781 -1.945312 4.9375 -2.125 L 4.9375 -3.234375 L 3.96875 -3.21875 C 3.476562 -3.207031 3.066406 -3.15625 2.734375 -3.0625 C 2.398438 -2.96875 2.148438 -2.820312 1.984375 -2.625 C 1.816406 -2.4375 1.734375 -2.179688 1.734375 -1.859375 C 1.734375 -1.503906 1.859375 -1.222656 2.109375 -1.015625 C 2.367188 -0.804688 2.695312 -0.703125 3.09375 -0.703125 Z M 3.09375 -0.703125 "/></g></g></g><g fill="#ffffff" fill-opacity="1"><g transform="translate(178.199414, 277.843986)"><g><path d="M 2.59375 0.078125 C 2.238281 0.078125 1.953125 0.03125 1.734375 -0.0625 C 1.523438 -0.15625 1.363281 -0.28125 1.25 -0.4375 C 1.132812 -0.601562 1.054688 -0.789062 1.015625 -1 C 0.972656 -1.21875 0.953125 -1.441406 0.953125 -1.671875 L 0.953125 -9.296875 L 2.09375 -9.296875 L 2.09375 -1.78125 C 2.09375 -1.457031 2.15625 -1.210938 2.28125 -1.046875 C 2.414062 -0.878906 2.597656 -0.789062 2.828125 -0.78125 L 3.171875 -0.765625 L 3.171875 -0.015625 C 3.078125 0.015625 2.976562 0.0351562 2.875 0.046875 C 2.769531 0.0664062 2.675781 0.078125 2.59375 0.078125 Z M 2.59375 0.078125 "/></g></g></g><g fill="#ffffff" fill-opacity="1"><g transform="translate(181.922783, 277.843986)"><g/></g></g><g fill="#ffffff" fill-opacity="1"><g transform="translate(184.807621, 277.843986)"><g><path d="M 1.1875 -9.046875 L 6.828125 -9.046875 L 6.828125 -8.03125 L 2.390625 -8.03125 L 2.390625 -5.046875 L 6.375 -5.046875 L 6.375 -4.046875 L 2.390625 -4.046875 L 2.390625 0 L 1.1875 0 Z M 1.1875 -9.046875 "/></g></g></g><g fill="#ffffff" fill-opacity="1"><g transform="translate(192.241852, 277.843986)"><g><path d="M 2.203125 -6.46875 L 2.203125 0 L 1.09375 0 L 1.09375 -6.46875 Z M 2.234375 -9.046875 L 2.234375 -7.84375 L 1.046875 -7.84375 L 1.046875 -9.046875 Z M 2.234375 -9.046875 "/></g></g></g><g fill="#ffffff" fill-opacity="1"><g transform="translate(195.527187, 277.843986)"><g><path d="M 0.953125 0 L 0.953125 -6.46875 L 2.078125 -6.46875 L 2.078125 -5.53125 C 2.179688 -5.707031 2.328125 -5.875 2.515625 -6.03125 C 2.703125 -6.195312 2.925781 -6.328125 3.1875 -6.421875 C 3.445312 -6.515625 3.753906 -6.5625 4.109375 -6.5625 C 4.515625 -6.5625 4.890625 -6.476562 5.234375 -6.3125 C 5.578125 -6.15625 5.851562 -5.90625 6.0625 -5.5625 C 6.269531 -5.21875 6.375 -4.773438 6.375 -4.234375 L 6.375 0 L 5.21875 0 L 5.21875 -4.125 C 5.21875 -4.625 5.082031 -4.992188 4.8125 -5.234375 C 4.550781 -5.484375 4.207031 -5.609375 3.78125 -5.609375 C 3.488281 -5.609375 3.210938 -5.5625 2.953125 -5.46875 C 2.703125 -5.375 2.5 -5.226562 2.34375 -5.03125 C 2.1875 -4.84375 2.109375 -4.609375 2.109375 -4.328125 L 2.109375 0 Z M 0.953125 0 "/></g></g></g><g fill="#ffffff" fill-opacity="1"><g transform="translate(202.74866, 277.843986)"><g><path d="M 2.75 0.125 C 2.332031 0.125 1.960938 0.0507812 1.640625 -0.09375 C 1.316406 -0.238281 1.0625 -0.453125 0.875 -0.734375 C 0.695312 -1.015625 0.609375 -1.351562 0.609375 -1.75 C 0.609375 -2.46875 0.859375 -3 1.359375 -3.34375 C 1.859375 -3.695312 2.660156 -3.890625 3.765625 -3.921875 L 4.9375 -3.953125 L 4.9375 -4.453125 C 4.9375 -4.847656 4.816406 -5.160156 4.578125 -5.390625 C 4.335938 -5.628906 3.96875 -5.75 3.46875 -5.75 C 3.09375 -5.738281 2.765625 -5.644531 2.484375 -5.46875 C 2.203125 -5.300781 2.019531 -5.023438 1.9375 -4.640625 L 0.921875 -4.640625 C 0.941406 -5.066406 1.054688 -5.421875 1.265625 -5.703125 C 1.484375 -5.992188 1.78125 -6.210938 2.15625 -6.359375 C 2.539062 -6.515625 2.992188 -6.59375 3.515625 -6.59375 C 4.085938 -6.59375 4.554688 -6.515625 4.921875 -6.359375 C 5.296875 -6.203125 5.578125 -5.96875 5.765625 -5.65625 C 5.953125 -5.34375 6.046875 -4.960938 6.046875 -4.515625 L 6.046875 0 L 5.0625 0 L 4.96875 -1.21875 C 4.71875 -0.707031 4.398438 -0.351562 4.015625 -0.15625 C 3.628906 0.03125 3.207031 0.125 2.75 0.125 Z M 3.09375 -0.703125 C 3.3125 -0.703125 3.523438 -0.738281 3.734375 -0.8125 C 3.953125 -0.894531 4.148438 -1.003906 4.328125 -1.140625 C 4.515625 -1.285156 4.660156 -1.441406 4.765625 -1.609375 C 4.867188 -1.773438 4.925781 -1.945312 4.9375 -2.125 L 4.9375 -3.234375 L 3.96875 -3.21875 C 3.476562 -3.207031 3.066406 -3.15625 2.734375 -3.0625 C 2.398438 -2.96875 2.148438 -2.820312 1.984375 -2.625 C 1.816406 -2.4375 1.734375 -2.179688 1.734375 -1.859375 C 1.734375 -1.503906 1.859375 -1.222656 2.109375 -1.015625 C 2.367188 -0.804688 2.695312 -0.703125 3.09375 -0.703125 Z M 3.09375 -0.703125 "/></g></g></g><g fill="#ffffff" fill-opacity="1"><g transform="translate(209.813681, 277.843986)"><g><path d="M 0.953125 0 L 0.953125 -6.46875 L 2.078125 -6.46875 L 2.078125 -5.53125 C 2.179688 -5.707031 2.328125 -5.875 2.515625 -6.03125 C 2.703125 -6.195312 2.925781 -6.328125 3.1875 -6.421875 C 3.445312 -6.515625 3.753906 -6.5625 4.109375 -6.5625 C 4.515625 -6.5625 4.890625 -6.476562 5.234375 -6.3125 C 5.578125 -6.15625 5.851562 -5.90625 6.0625 -5.5625 C 6.269531 -5.21875 6.375 -4.773438 6.375 -4.234375 L 6.375 0 L 5.21875 0 L 5.21875 -4.125 C 5.21875 -4.625 5.082031 -4.992188 4.8125 -5.234375 C 4.550781 -5.484375 4.207031 -5.609375 3.78125 -5.609375 C 3.488281 -5.609375 3.210938 -5.5625 2.953125 -5.46875 C 2.703125 -5.375 2.5 -5.226562 2.34375 -5.03125 C 2.1875 -4.84375 2.109375 -4.609375 2.109375 -4.328125 L 2.109375 0 Z M 0.953125 0 "/></g></g></g><g fill="#ffffff" fill-opacity="1"><g transform="translate(217.035154, 277.843986)"><g><path d="M 3.53125 -6.59375 C 4 -6.59375 4.414062 -6.503906 4.78125 -6.328125 C 5.15625 -6.148438 5.457031 -5.898438 5.6875 -5.578125 C 5.925781 -5.253906 6.078125 -4.867188 6.140625 -4.421875 L 5.109375 -4.421875 C 5.078125 -4.648438 4.992188 -4.859375 4.859375 -5.046875 C 4.722656 -5.234375 4.539062 -5.378906 4.3125 -5.484375 C 4.09375 -5.597656 3.835938 -5.65625 3.546875 -5.65625 C 2.984375 -5.65625 2.53125 -5.457031 2.1875 -5.0625 C 1.84375 -4.664062 1.671875 -4.050781 1.671875 -3.21875 C 1.671875 -2.476562 1.828125 -1.878906 2.140625 -1.421875 C 2.460938 -0.972656 2.9375 -0.75 3.5625 -0.75 C 3.851562 -0.75 4.109375 -0.804688 4.328125 -0.921875 C 4.546875 -1.035156 4.722656 -1.1875 4.859375 -1.375 C 4.992188 -1.570312 5.082031 -1.78125 5.125 -2 L 6.125 -2 C 6.070312 -1.5625 5.925781 -1.179688 5.6875 -0.859375 C 5.445312 -0.546875 5.140625 -0.300781 4.765625 -0.125 C 4.398438 0.0390625 3.988281 0.125 3.53125 0.125 C 2.957031 0.125 2.445312 0 2 -0.25 C 1.550781 -0.507812 1.195312 -0.882812 0.9375 -1.375 C 0.6875 -1.875 0.5625 -2.484375 0.5625 -3.203125 C 0.5625 -3.878906 0.675781 -4.472656 0.90625 -4.984375 C 1.132812 -5.492188 1.46875 -5.890625 1.90625 -6.171875 C 2.351562 -6.453125 2.894531 -6.59375 3.53125 -6.59375 Z M 3.53125 -6.59375 "/></g></g></g><g fill="#ffffff" fill-opacity="1"><g transform="translate(223.787294, 277.843986)"><g><path d="M 1.78125 -2.96875 C 1.78125 -2.5625 1.847656 -2.191406 1.984375 -1.859375 C 2.117188 -1.523438 2.320312 -1.257812 2.59375 -1.0625 C 2.875 -0.863281 3.222656 -0.765625 3.640625 -0.765625 C 4.054688 -0.765625 4.410156 -0.859375 4.703125 -1.046875 C 5.003906 -1.242188 5.195312 -1.523438 5.28125 -1.890625 L 6.390625 -1.890625 C 6.304688 -1.453125 6.128906 -1.082031 5.859375 -0.78125 C 5.585938 -0.476562 5.257812 -0.25 4.875 -0.09375 C 4.488281 0.0507812 4.085938 0.125 3.671875 0.125 C 3.066406 0.125 2.535156 -0.00390625 2.078125 -0.265625 C 1.617188 -0.523438 1.257812 -0.898438 1 -1.390625 C 0.738281 -1.890625 0.609375 -2.484375 0.609375 -3.171875 C 0.609375 -3.847656 0.722656 -4.441406 0.953125 -4.953125 C 1.191406 -5.472656 1.53125 -5.875 1.96875 -6.15625 C 2.414062 -6.445312 2.953125 -6.59375 3.578125 -6.59375 C 4.191406 -6.59375 4.707031 -6.460938 5.125 -6.203125 C 5.550781 -5.941406 5.875 -5.570312 6.09375 -5.09375 C 6.3125 -4.613281 6.421875 -4.046875 6.421875 -3.390625 L 6.421875 -2.96875 Z M 1.796875 -3.75 L 5.3125 -3.75 C 5.3125 -4.125 5.25 -4.457031 5.125 -4.75 C 5 -5.050781 4.804688 -5.285156 4.546875 -5.453125 C 4.285156 -5.628906 3.960938 -5.71875 3.578125 -5.71875 C 3.171875 -5.71875 2.832031 -5.617188 2.5625 -5.421875 C 2.300781 -5.234375 2.101562 -4.988281 1.96875 -4.6875 C 1.84375 -4.382812 1.785156 -4.070312 1.796875 -3.75 Z M 1.796875 -3.75 "/></g></g></g><g fill="#ffffff" fill-opacity="1"><g transform="translate(230.833547, 277.843986)"><g/></g></g><g fill="#ffffff" fill-opacity="1"><g transform="translate(233.718385, 277.843986)"><g><path d="M 2.203125 -6.46875 L 2.203125 0 L 1.09375 0 L 1.09375 -6.46875 Z M 2.234375 -9.046875 L 2.234375 -7.84375 L 1.046875 -7.84375 L 1.046875 -9.046875 Z M 2.234375 -9.046875 "/></g></g></g><g fill="#ffffff" fill-opacity="1"><g transform="translate(237.00372, 277.843986)"><g><path d="M 3.25 0.125 C 2.800781 0.125 2.382812 0.0546875 2 -0.078125 C 1.613281 -0.222656 1.289062 -0.441406 1.03125 -0.734375 C 0.78125 -1.035156 0.625 -1.421875 0.5625 -1.890625 L 1.609375 -1.890625 C 1.671875 -1.628906 1.773438 -1.414062 1.921875 -1.25 C 2.078125 -1.082031 2.269531 -0.953125 2.5 -0.859375 C 2.726562 -0.773438 2.976562 -0.734375 3.25 -0.734375 C 3.6875 -0.734375 4.035156 -0.8125 4.296875 -0.96875 C 4.566406 -1.132812 4.703125 -1.390625 4.703125 -1.734375 C 4.703125 -1.972656 4.628906 -2.160156 4.484375 -2.296875 C 4.347656 -2.441406 4.132812 -2.550781 3.84375 -2.625 L 2.5 -2.953125 C 1.976562 -3.078125 1.5625 -3.269531 1.25 -3.53125 C 0.9375 -3.800781 0.78125 -4.175781 0.78125 -4.65625 C 0.78125 -5.039062 0.867188 -5.375 1.046875 -5.65625 C 1.234375 -5.945312 1.507812 -6.175781 1.875 -6.34375 C 2.238281 -6.507812 2.695312 -6.59375 3.25 -6.59375 C 3.945312 -6.59375 4.507812 -6.4375 4.9375 -6.125 C 5.375 -5.8125 5.601562 -5.347656 5.625 -4.734375 L 4.59375 -4.734375 C 4.550781 -5.046875 4.410156 -5.289062 4.171875 -5.46875 C 3.941406 -5.65625 3.628906 -5.75 3.234375 -5.75 C 2.816406 -5.75 2.476562 -5.664062 2.21875 -5.5 C 1.96875 -5.332031 1.84375 -5.078125 1.84375 -4.734375 C 1.84375 -4.503906 1.929688 -4.320312 2.109375 -4.1875 C 2.296875 -4.0625 2.566406 -3.953125 2.921875 -3.859375 L 4.21875 -3.53125 C 4.519531 -3.457031 4.765625 -3.351562 4.953125 -3.21875 C 5.148438 -3.09375 5.304688 -2.945312 5.421875 -2.78125 C 5.535156 -2.625 5.617188 -2.457031 5.671875 -2.28125 C 5.722656 -2.113281 5.75 -1.953125 5.75 -1.796875 C 5.75 -1.398438 5.648438 -1.054688 5.453125 -0.765625 C 5.253906 -0.484375 4.96875 -0.265625 4.59375 -0.109375 C 4.226562 0.046875 3.78125 0.125 3.25 0.125 Z M 3.25 0.125 "/></g></g></g><g fill="#ffffff" fill-opacity="1"><g transform="translate(243.405419, 277.843986)"><g/></g></g><g fill="#ffffff" fill-opacity="1"><g transform="translate(246.290257, 277.843986)"><g><path d="M 4.265625 0.125 C 3.835938 0.125 3.421875 0.0703125 3.015625 -0.03125 C 2.617188 -0.132812 2.257812 -0.289062 1.9375 -0.5 C 1.613281 -0.71875 1.34375 -0.984375 1.125 -1.296875 C 0.914062 -1.617188 0.78125 -1.988281 0.71875 -2.40625 L 1.9375 -2.40625 C 2.007812 -2.0625 2.15625 -1.769531 2.375 -1.53125 C 2.601562 -1.300781 2.878906 -1.128906 3.203125 -1.015625 C 3.523438 -0.898438 3.878906 -0.84375 4.265625 -0.84375 C 4.691406 -0.84375 5.070312 -0.898438 5.40625 -1.015625 C 5.738281 -1.128906 6 -1.296875 6.1875 -1.515625 C 6.382812 -1.742188 6.484375 -2.015625 6.484375 -2.328125 C 6.484375 -2.597656 6.421875 -2.832031 6.296875 -3.03125 C 6.179688 -3.226562 6.003906 -3.394531 5.765625 -3.53125 C 5.535156 -3.664062 5.253906 -3.769531 4.921875 -3.84375 L 3.140625 -4.25 C 2.472656 -4.394531 1.945312 -4.65625 1.5625 -5.03125 C 1.1875 -5.40625 1 -5.90625 1 -6.53125 C 1 -7.050781 1.132812 -7.507812 1.40625 -7.90625 C 1.6875 -8.300781 2.066406 -8.609375 2.546875 -8.828125 C 3.035156 -9.046875 3.59375 -9.15625 4.21875 -9.15625 C 4.945312 -9.15625 5.554688 -9.03125 6.046875 -8.78125 C 6.535156 -8.539062 6.90625 -8.21875 7.15625 -7.8125 C 7.40625 -7.414062 7.535156 -6.992188 7.546875 -6.546875 L 6.34375 -6.546875 C 6.300781 -6.953125 6.179688 -7.273438 5.984375 -7.515625 C 5.785156 -7.753906 5.53125 -7.921875 5.21875 -8.015625 C 4.914062 -8.117188 4.585938 -8.171875 4.234375 -8.171875 C 3.972656 -8.171875 3.722656 -8.140625 3.484375 -8.078125 C 3.242188 -8.015625 3.023438 -7.914062 2.828125 -7.78125 C 2.640625 -7.65625 2.488281 -7.492188 2.375 -7.296875 C 2.269531 -7.109375 2.21875 -6.890625 2.21875 -6.640625 C 2.21875 -6.316406 2.328125 -6.050781 2.546875 -5.84375 C 2.773438 -5.632812 3.179688 -5.457031 3.765625 -5.3125 L 5.484375 -4.90625 C 5.929688 -4.8125 6.296875 -4.671875 6.578125 -4.484375 C 6.867188 -4.296875 7.09375 -4.082031 7.25 -3.84375 C 7.40625 -3.601562 7.515625 -3.351562 7.578125 -3.09375 C 7.640625 -2.832031 7.671875 -2.578125 7.671875 -2.328125 C 7.671875 -1.878906 7.535156 -1.46875 7.265625 -1.09375 C 6.992188 -0.71875 6.601562 -0.421875 6.09375 -0.203125 C 5.59375 0.015625 4.984375 0.125 4.265625 0.125 Z M 4.265625 0.125 "/></g></g></g><g fill="#ffffff" fill-opacity="1"><g transform="translate(254.719471, 277.843986)"><g><path d="M 2.75 0.125 C 2.332031 0.125 1.960938 0.0507812 1.640625 -0.09375 C 1.316406 -0.238281 1.0625 -0.453125 0.875 -0.734375 C 0.695312 -1.015625 0.609375 -1.351562 0.609375 -1.75 C 0.609375 -2.46875 0.859375 -3 1.359375 -3.34375 C 1.859375 -3.695312 2.660156 -3.890625 3.765625 -3.921875 L 4.9375 -3.953125 L 4.9375 -4.453125 C 4.9375 -4.847656 4.816406 -5.160156 4.578125 -5.390625 C 4.335938 -5.628906 3.96875 -5.75 3.46875 -5.75 C 3.09375 -5.738281 2.765625 -5.644531 2.484375 -5.46875 C 2.203125 -5.300781 2.019531 -5.023438 1.9375 -4.640625 L 0.921875 -4.640625 C 0.941406 -5.066406 1.054688 -5.421875 1.265625 -5.703125 C 1.484375 -5.992188 1.78125 -6.210938 2.15625 -6.359375 C 2.539062 -6.515625 2.992188 -6.59375 3.515625 -6.59375 C 4.085938 -6.59375 4.554688 -6.515625 4.921875 -6.359375 C 5.296875 -6.203125 5.578125 -5.96875 5.765625 -5.65625 C 5.953125 -5.34375 6.046875 -4.960938 6.046875 -4.515625 L 6.046875 0 L 5.0625 0 L 4.96875 -1.21875 C 4.71875 -0.707031 4.398438 -0.351562 4.015625 -0.15625 C 3.628906 0.03125 3.207031 0.125 2.75 0.125 Z M 3.09375 -0.703125 C 3.3125 -0.703125 3.523438 -0.738281 3.734375 -0.8125 C 3.953125 -0.894531 4.148438 -1.003906 4.328125 -1.140625 C 4.515625 -1.285156 4.660156 -1.441406 4.765625 -1.609375 C 4.867188 -1.773438 4.925781 -1.945312 4.9375 -2.125 L 4.9375 -3.234375 L 3.96875 -3.21875 C 3.476562 -3.207031 3.066406 -3.15625 2.734375 -3.0625 C 2.398438 -2.96875 2.148438 -2.820312 1.984375 -2.625 C 1.816406 -2.4375 1.734375 -2.179688 1.734375 -1.859375 C 1.734375 -1.503906 1.859375 -1.222656 2.109375 -1.015625 C 2.367188 -0.804688 2.695312 -0.703125 3.09375 -0.703125 Z M 3.09375 -0.703125 "/></g></g></g><g fill="#ffffff" fill-opacity="1"><g transform="translate(261.784492, 277.843986)"><g><path d="M 4.609375 -6.46875 L 4.609375 -5.625 L 3.046875 -5.625 L 3.046875 0 L 1.875 0 L 1.875 -5.625 L 0.515625 -5.625 L 0.515625 -6.46875 L 1.875 -6.46875 L 1.875 -7.46875 C 1.875 -7.976562 2.003906 -8.367188 2.265625 -8.640625 C 2.535156 -8.910156 2.929688 -9.046875 3.453125 -9.046875 L 4.671875 -9.046875 L 4.671875 -8.234375 L 3.703125 -8.234375 C 3.441406 -8.234375 3.257812 -8.160156 3.15625 -8.015625 C 3.0625 -7.867188 3.015625 -7.65625 3.015625 -7.375 L 3.015625 -6.46875 Z M 4.609375 -6.46875 "/></g></g></g><g fill="#ffffff" fill-opacity="1"><g transform="translate(266.865805, 277.843986)"><g><path d="M 1.78125 -2.96875 C 1.78125 -2.5625 1.847656 -2.191406 1.984375 -1.859375 C 2.117188 -1.523438 2.320312 -1.257812 2.59375 -1.0625 C 2.875 -0.863281 3.222656 -0.765625 3.640625 -0.765625 C 4.054688 -0.765625 4.410156 -0.859375 4.703125 -1.046875 C 5.003906 -1.242188 5.195312 -1.523438 5.28125 -1.890625 L 6.390625 -1.890625 C 6.304688 -1.453125 6.128906 -1.082031 5.859375 -0.78125 C 5.585938 -0.476562 5.257812 -0.25 4.875 -0.09375 C 4.488281 0.0507812 4.085938 0.125 3.671875 0.125 C 3.066406 0.125 2.535156 -0.00390625 2.078125 -0.265625 C 1.617188 -0.523438 1.257812 -0.898438 1 -1.390625 C 0.738281 -1.890625 0.609375 -2.484375 0.609375 -3.171875 C 0.609375 -3.847656 0.722656 -4.441406 0.953125 -4.953125 C 1.191406 -5.472656 1.53125 -5.875 1.96875 -6.15625 C 2.414062 -6.445312 2.953125 -6.59375 3.578125 -6.59375 C 4.191406 -6.59375 4.707031 -6.460938 5.125 -6.203125 C 5.550781 -5.941406 5.875 -5.570312 6.09375 -5.09375 C 6.3125 -4.613281 6.421875 -4.046875 6.421875 -3.390625 L 6.421875 -2.96875 Z M 1.796875 -3.75 L 5.3125 -3.75 C 5.3125 -4.125 5.25 -4.457031 5.125 -4.75 C 5 -5.050781 4.804688 -5.285156 4.546875 -5.453125 C 4.285156 -5.628906 3.960938 -5.71875 3.578125 -5.71875 C 3.171875 -5.71875 2.832031 -5.617188 2.5625 -5.421875 C 2.300781 -5.234375 2.101562 -4.988281 1.96875 -4.6875 C 1.84375 -4.382812 1.785156 -4.070312 1.796875 -3.75 Z M 1.796875 -3.75 "/></g></g></g></svg>