<svg xmlns="http://www.w3.org/2000/svg" xmlns:xlink="http://www.w3.org/1999/xlink" width="500" zoomAndPan="magnify" viewBox="0 0 375 374.999991" height="500" preserveAspectRatio="xMidYMid meet" version="1.0"><path fill="#000000" d="M 238.886719 88.9375 L 238.886719 64.617188 C 238.886719 61.367188 241.519531 58.738281 244.765625 58.738281 C 248.011719 58.738281 250.644531 61.367188 250.644531 64.617188 L 250.644531 88.933594 C 250.644531 92.183594 248.011719 94.8125 244.765625 94.8125 C 241.519531 94.8125 238.886719 92.183594 238.886719 88.9375 Z M 285.1875 206.429688 C 275.917969 206.429688 268.371094 213.972656 268.371094 223.242188 C 268.371094 232.515625 275.917969 240.058594 285.1875 240.058594 C 294.460938 240.058594 302.003906 232.515625 302.003906 223.242188 C 302.003906 213.972656 294.460938 206.429688 285.1875 206.429688 Z M 257.964844 258.253906 C 257.964844 285.082031 236.136719 306.90625 209.300781 306.90625 C 182.46875 306.90625 160.640625 285.082031 160.640625 258.253906 C 160.640625 231.425781 182.46875 209.597656 209.300781 209.597656 C 236.136719 209.597656 257.964844 231.425781 257.964844 258.253906 Z M 225.085938 267.160156 C 225.085938 259.007812 218.453125 252.375 210.296875 252.375 L 208.304688 252.375 C 206.664062 252.375 205.277344 250.988281 205.277344 249.34375 C 205.277344 247.703125 206.664062 246.316406 208.304688 246.316406 L 211.113281 246.316406 C 212.074219 246.316406 212.992188 246.792969 213.570312 247.589844 C 215.472656 250.222656 219.148438 250.8125 221.777344 248.910156 C 224.410156 247.007812 225.003906 243.332031 223.097656 240.703125 C 221.136719 237.988281 218.328125 236.042969 215.183594 235.136719 L 215.183594 232.828125 C 215.183594 229.582031 212.550781 226.949219 209.300781 226.949219 C 206.054688 226.949219 203.421875 229.582031 203.421875 232.828125 L 203.421875 235.386719 C 197.660156 237.40625 193.519531 242.902344 193.519531 249.34375 C 193.519531 257.496094 200.152344 264.128906 208.304688 264.128906 L 210.296875 264.128906 C 211.941406 264.128906 213.328125 265.515625 213.328125 267.160156 C 213.328125 268.800781 211.941406 270.1875 210.296875 270.1875 L 207.492188 270.1875 C 206.53125 270.1875 205.613281 269.710938 205.035156 268.914062 C 203.132812 266.28125 199.457031 265.691406 196.824219 267.59375 C 194.195312 269.496094 193.601562 273.171875 195.507812 275.804688 C 197.46875 278.515625 200.28125 280.460938 203.421875 281.367188 L 203.421875 283.675781 C 203.421875 286.921875 206.054688 289.554688 209.304688 289.554688 C 212.550781 289.554688 215.183594 286.921875 215.183594 283.675781 L 215.183594 281.117188 C 220.945312 279.097656 225.085938 273.601562 225.085938 267.160156 Z M 375 225.535156 L 375 270.578125 C 375 276.507812 370.175781 281.328125 364.25 281.328125 L 347.527344 281.328125 C 341.535156 294.503906 331.984375 306.515625 319.605469 316.449219 L 325.738281 327.066406 C 331.4375 336.9375 328.042969 349.605469 318.167969 355.304688 C 318.066406 355.363281 317.964844 355.417969 317.859375 355.472656 C 307.308594 360.746094 295.558594 357.492188 289.925781 347.738281 L 283.378906 336.398438 C 268.210938 341.785156 252.042969 344.515625 235.242188 344.515625 C 218.445312 344.515625 202.28125 341.785156 187.105469 336.390625 L 180.550781 347.738281 C 176.726562 354.363281 169.761719 358.070312 162.613281 358.070312 C 159.105469 358.070312 155.558594 357.179688 152.3125 355.304688 C 152.203125 355.242188 152.09375 355.175781 151.988281 355.105469 C 142.183594 348.566406 139.136719 336.777344 144.742188 327.066406 L 150.871094 316.453125 C 128.425781 298.425781 115.660156 273.757812 115.660156 248.058594 C 115.660156 245.910156 115.757812 243.773438 115.925781 241.652344 L 102.148438 237.960938 C 94.738281 235.976562 89.261719 237.148438 86.730469 241.261719 C 84.59375 244.734375 84.863281 249.804688 87.328125 252.570312 C 89.875 255.417969 93.988281 254.339844 96.988281 252.929688 C 99.929688 251.550781 103.429688 252.8125 104.8125 255.753906 C 106.191406 258.691406 104.925781 262.191406 101.988281 263.574219 C 98.382812 265.265625 94.828125 266.101562 91.503906 266.101562 C 86.449219 266.101562 81.925781 264.171875 78.558594 260.402344 C 72.679688 253.820312 71.886719 242.941406 76.71875 235.097656 C 79.277344 230.9375 87.179688 221.777344 105.195312 226.605469 L 117.75 229.96875 C 122.199219 210.871094 133.683594 193.351562 151.179688 179.414062 C 173.691406 161.480469 203.546875 151.601562 235.242188 151.601562 C 242.628906 151.601562 250.015625 152.152344 257.261719 153.238281 C 270.824219 134.722656 295.820312 128.046875 313.871094 128.046875 C 315.632812 128.046875 317.304688 128.835938 318.421875 130.203125 C 319.535156 131.566406 319.984375 133.359375 319.636719 135.085938 L 311.820312 173.933594 C 328.058594 184.839844 340.300781 198.84375 347.535156 214.789062 L 364.25 214.789062 C 370.175781 214.785156 375 219.609375 375 225.535156 Z M 363.238281 226.542969 L 343.644531 226.542969 C 341.238281 226.542969 339.070312 225.074219 338.183594 222.835938 C 331.714844 206.578125 319.253906 192.347656 302.152344 181.683594 C 300.074219 180.386719 299.015625 177.9375 299.5 175.535156 L 306.609375 140.199219 C 290.84375 141.886719 273.414062 149.035156 265.050781 162.714844 C 263.789062 164.777344 261.390625 165.855469 259.007812 165.433594 C 251.234375 164.058594 243.238281 163.359375 235.242188 163.359375 C 175.789062 163.359375 127.421875 201.355469 127.421875 248.058594 C 127.421875 271.523438 140.027344 294.164062 162.007812 310.171875 C 164.4375 311.941406 165.140625 315.257812 163.636719 317.863281 L 154.925781 332.945312 C 151.898438 338.1875 154.84375 342.796875 158.351562 345.210938 C 162.582031 347.542969 167.941406 346.0625 170.367188 341.859375 L 179.414062 326.195312 C 180.875 323.667969 183.96875 322.589844 186.679688 323.671875 C 201.832031 329.699219 218.171875 332.757812 235.242188 332.757812 C 252.320312 332.757812 268.660156 329.703125 283.800781 323.675781 C 286.515625 322.597656 289.609375 323.671875 291.070312 326.199219 L 300.113281 341.859375 C 303.15625 347.132812 308.613281 346.878906 312.4375 345.035156 C 316.582031 342.539062 317.984375 337.152344 315.554688 332.945312 L 306.839844 317.859375 C 305.339844 315.257812 306.042969 311.9375 308.472656 310.167969 C 322.316406 300.082031 332.589844 287.324219 338.179688 273.277344 C 339.070312 271.039062 341.234375 269.570312 343.644531 269.570312 L 363.238281 269.570312 Z M 101.921875 177.273438 L 52.15625 230.605469 C 46.832031 236.3125 39.640625 239.527344 31.90625 239.660156 C 31.738281 239.664062 31.570312 239.664062 31.40625 239.664062 C 23.855469 239.664062 16.753906 236.710938 11.355469 231.316406 L 8.5 228.457031 C 2.980469 222.941406 0.015625 215.644531 0.152344 207.910156 C 0.285156 200.175781 3.503906 192.984375 9.207031 187.664062 L 62.550781 137.910156 C 65.957031 134.730469 70.75 134.007812 74.785156 135.699219 L 133.6875 81.449219 C 129.523438 75.953125 129.933594 68.078125 134.941406 63.070312 L 137.191406 60.820312 L 136.898438 60.527344 C 125.03125 48.664062 114.488281 41.457031 101.628906 44.859375 C 99.054688 45.539062 96.351562 44.40625 95.027344 42.105469 C 93.703125 39.800781 94.085938 36.894531 95.964844 35.015625 C 116.742188 14.246094 150.539062 14.246094 171.316406 35.015625 L 203.515625 67.210938 C 204.976562 68.671875 205.78125 70.617188 205.78125 72.6875 C 205.78125 74.753906 204.976562 76.699219 203.515625 78.160156 L 202.390625 79.28125 C 206.195312 81.652344 210.191406 83.585938 214.234375 84.988281 C 217.472656 83.398438 221.503906 83.941406 224.191406 86.628906 L 237 99.4375 C 240.382812 102.816406 240.382812 108.316406 237 111.699219 L 206.179688 142.515625 C 204.488281 144.207031 202.265625 145.054688 200.046875 145.054688 C 197.824219 145.054688 195.605469 144.207031 193.914062 142.515625 L 181.105469 129.710938 C 178.414062 127.023438 177.871094 122.992188 179.460938 119.753906 C 177.992188 115.519531 175.949219 111.335938 173.425781 107.367188 C 171.375 108.453125 169.113281 108.996094 166.851562 108.996094 C 163.863281 108.996094 160.886719 108.039062 158.390625 106.148438 L 104.132812 165.042969 C 105.824219 169.074219 105.101562 173.867188 101.921875 177.273438 Z M 191.601562 123.578125 L 200.046875 132.019531 L 226.5 105.570312 L 218.058594 97.128906 Z M 193.878906 87.792969 L 182.265625 99.402344 C 184.605469 102.875 186.632812 106.515625 188.3125 110.238281 L 204.714844 93.839844 C 200.992188 92.160156 197.347656 90.132812 193.878906 87.792969 Z M 145.214844 52.214844 L 149.664062 56.664062 C 151.960938 58.960938 151.960938 62.683594 149.664062 64.980469 L 143.257812 71.382812 C 142.371094 72.269531 142.371094 73.710938 143.257812 74.597656 L 165.242188 96.578125 C 166.128906 97.464844 167.570312 97.464844 168.457031 96.578125 L 192.355469 72.683594 L 163 43.332031 C 151.078125 31.414062 133.65625 28.269531 118.832031 33.902344 C 128.785156 37.078125 137.328125 44.328125 145.214844 52.214844 Z M 96.386719 156.089844 L 149.96875 97.933594 L 141.902344 89.871094 L 83.734375 143.441406 Z M 166.28125 204.238281 C 167.566406 204.238281 168.859375 203.820312 169.941406 202.957031 C 187.144531 189.253906 210.332031 181.703125 235.238281 181.703125 C 238.488281 181.703125 241.121094 179.074219 241.121094 175.824219 C 241.121094 172.578125 238.488281 169.945312 235.238281 169.945312 C 207.679688 169.945312 181.886719 178.402344 162.613281 193.761719 C 160.074219 195.78125 159.65625 199.484375 161.679688 202.023438 C 162.839844 203.480469 164.550781 204.238281 166.28125 204.238281 Z M 264.761719 103.09375 C 266.265625 103.09375 267.773438 102.523438 268.921875 101.375 L 286.121094 84.175781 C 288.414062 81.882812 288.417969 78.160156 286.121094 75.863281 C 283.824219 73.566406 280.101562 73.566406 277.804688 75.863281 L 260.605469 93.058594 C 258.308594 95.355469 258.308594 99.078125 260.605469 101.375 C 261.753906 102.523438 263.257812 103.09375 264.761719 103.09375 Z M 267.164062 117.210938 C 267.164062 120.457031 269.796875 123.089844 273.046875 123.089844 L 297.367188 123.089844 C 300.613281 123.089844 303.246094 120.457031 303.246094 117.210938 C 303.246094 113.964844 300.613281 111.332031 297.367188 111.332031 L 273.046875 111.332031 C 269.796875 111.332031 267.164062 113.964844 267.164062 117.210938 Z M 267.164062 117.210938 " fill-opacity="1" fill-rule="nonzero"/><path fill="#000000" d="M 36.730469 282.609375 L 31.304688 268.15625 C 33.316406 268.367188 35.292969 268.195312 37.238281 267.636719 C 39.183594 267.078125 40.953125 266.175781 42.546875 264.929688 C 42.976562 264.40625 43.472656 263.953125 44.027344 263.566406 C 44.585938 263.179688 45.183594 262.878906 45.824219 262.65625 C 46.464844 262.4375 47.121094 262.308594 47.796875 262.269531 C 48.472656 262.234375 49.140625 262.289062 49.800781 262.433594 C 50.511719 262.621094 51.136719 262.960938 51.675781 263.460938 C 52.214844 263.957031 52.605469 264.554688 52.847656 265.25 C 52.957031 265.882812 53.195312 266.464844 53.558594 266.992188 C 53.925781 267.519531 54.386719 267.949219 54.9375 268.273438 C 56.113281 268.71875 57.328125 268.898438 58.582031 268.8125 C 59.835938 268.726562 61.015625 268.382812 62.117188 267.785156 C 63.191406 267.414062 65.203125 266.714844 65.46875 267.050781 C 65.175781 272.777344 63.632812 278.140625 60.84375 283.144531 C 57.183594 284.273438 53.441406 284.855469 49.613281 284.890625 L 49.609375 284.890625 C 45.191406 284.832031 40.898438 284.074219 36.730469 282.609375 Z M 84.746094 340.632812 C 84.628906 341.621094 84.4375 342.597656 84.171875 343.558594 C 83.90625 344.519531 83.570312 345.453125 83.160156 346.359375 C 82.75 347.269531 82.277344 348.140625 81.734375 348.976562 C 81.191406 349.8125 80.589844 350.601562 79.925781 351.34375 C 79.261719 352.085938 78.546875 352.777344 77.777344 353.410156 C 77.011719 354.042969 76.199219 354.613281 75.34375 355.121094 C 74.488281 355.628906 73.597656 356.066406 72.675781 356.4375 C 71.753906 356.808594 70.808594 357.109375 69.839844 357.335938 C 62.953125 359.035156 55.964844 359.886719 48.871094 359.886719 C 41.78125 359.886719 34.792969 359.035156 27.90625 357.335938 C 26.9375 357.109375 25.992188 356.808594 25.070312 356.4375 C 24.144531 356.066406 23.257812 355.628906 22.402344 355.121094 C 21.546875 354.613281 20.734375 354.042969 19.964844 353.410156 C 19.195312 352.777344 18.480469 352.085938 17.816406 351.34375 C 17.15625 350.601562 16.550781 349.8125 16.011719 348.976562 C 15.46875 348.140625 14.992188 347.269531 14.585938 346.359375 C 14.175781 345.453125 13.839844 344.519531 13.574219 343.558594 C 13.308594 342.597656 13.117188 341.621094 13 340.632812 C 10.515625 312.996094 29.90625 293.195312 35.054688 288.460938 C 39.753906 290.058594 44.578125 290.886719 49.539062 290.949219 L 49.597656 290.949219 C 54.1875 290.914062 58.671875 290.203125 63.050781 288.824219 C 68.6875 294.046875 87.167969 313.480469 84.746094 340.632812 Z M 50.144531 320.890625 C 50.023438 320.890625 49.960938 320.832031 49.839844 320.832031 C 45.476562 318.644531 45.84375 317.429688 46.207031 316.335938 C 46.328125 316 46.496094 315.6875 46.714844 315.402344 C 46.933594 315.117188 47.1875 314.875 47.480469 314.667969 C 47.773438 314.460938 48.089844 314.304688 48.429688 314.195312 C 48.769531 314.085938 49.121094 314.03125 49.476562 314.027344 L 49.539062 314.027344 C 49.890625 314.011719 50.238281 314.050781 50.582031 314.140625 C 50.921875 314.230469 51.242188 314.371094 51.539062 314.5625 C 51.839844 314.753906 52.101562 314.984375 52.328125 315.253906 C 52.554688 315.527344 52.738281 315.828125 52.871094 316.15625 C 53.023438 316.527344 53.238281 316.855469 53.519531 317.144531 C 53.800781 317.429688 54.125 317.652344 54.492188 317.8125 C 54.863281 317.972656 55.246094 318.054688 55.648438 318.0625 C 56.046875 318.070312 56.4375 318 56.808594 317.855469 C 57.183594 317.707031 57.515625 317.496094 57.808594 317.214844 C 58.097656 316.933594 58.320312 316.605469 58.480469 316.238281 C 58.640625 315.867188 58.722656 315.476562 58.726562 315.074219 C 58.730469 314.671875 58.65625 314.28125 58.507812 313.90625 C 57.988281 312.578125 57.203125 311.429688 56.148438 310.46875 C 55.089844 309.507812 53.878906 308.832031 52.507812 308.441406 L 52.507812 306.074219 C 52.507812 305.671875 52.429688 305.285156 52.273438 304.910156 C 52.121094 304.539062 51.902344 304.210938 51.617188 303.929688 C 51.332031 303.644531 51.007812 303.425781 50.636719 303.269531 C 50.265625 303.113281 49.878906 303.035156 49.476562 303.035156 C 49.074219 303.03125 48.6875 303.105469 48.3125 303.257812 C 47.941406 303.410156 47.609375 303.632812 47.328125 303.917969 C 47.042969 304.203125 46.824219 304.53125 46.671875 304.90625 C 46.519531 305.28125 46.445312 305.667969 46.449219 306.074219 L 46.449219 308.503906 C 45.035156 308.964844 43.804688 309.722656 42.746094 310.769531 C 41.691406 311.816406 40.925781 313.042969 40.449219 314.453125 C 38.023438 321.804688 45.113281 325.265625 47.417969 326.359375 C 47.539062 326.417969 47.597656 326.480469 47.71875 326.480469 C 52.144531 328.667969 53.175781 329.699219 52.75 331.519531 C 52.445312 332.796875 50.871094 333.34375 49.597656 333.464844 L 49.175781 333.464844 C 48.726562 333.507812 48.28125 333.484375 47.839844 333.398438 C 47.398438 333.308594 46.976562 333.160156 46.578125 332.949219 C 46.183594 332.742188 45.820312 332.476562 45.5 332.160156 C 45.179688 331.847656 44.910156 331.492188 44.691406 331.097656 C 44.535156 330.726562 44.3125 330.402344 44.03125 330.117188 C 43.746094 329.835938 43.417969 329.617188 43.046875 329.464844 C 42.679688 329.3125 42.292969 329.234375 41.890625 329.234375 C 41.492188 329.234375 41.105469 329.308594 40.734375 329.460938 C 40.367188 329.613281 40.039062 329.828125 39.753906 330.109375 C 39.464844 330.394531 39.246094 330.71875 39.089844 331.085938 C 38.929688 331.457031 38.847656 331.839844 38.84375 332.242188 C 38.835938 332.644531 38.910156 333.03125 39.054688 333.402344 C 39.378906 334.160156 39.792969 334.863281 40.292969 335.515625 C 40.792969 336.167969 41.367188 336.75 42.011719 337.257812 C 42.660156 337.769531 43.355469 338.191406 44.109375 338.523438 C 44.859375 338.859375 45.636719 339.09375 46.449219 339.234375 L 46.449219 340.449219 C 46.445312 340.851562 46.519531 341.242188 46.671875 341.617188 C 46.824219 341.988281 47.042969 342.320312 47.328125 342.605469 C 47.609375 342.890625 47.941406 343.109375 48.3125 343.261719 C 48.6875 343.414062 49.074219 343.488281 49.476562 343.484375 C 49.878906 343.484375 50.265625 343.40625 50.636719 343.253906 C 51.007812 343.097656 51.332031 342.878906 51.617188 342.59375 C 51.902344 342.308594 52.121094 341.980469 52.273438 341.609375 C 52.429688 341.238281 52.507812 340.851562 52.507812 340.449219 L 52.507812 338.992188 C 53.242188 338.816406 53.9375 338.546875 54.601562 338.179688 C 55.261719 337.8125 55.859375 337.367188 56.398438 336.835938 C 56.9375 336.308594 57.398438 335.714844 57.777344 335.058594 C 58.152344 334.40625 58.4375 333.710938 58.628906 332.980469 C 60.324219 325.871094 53.960938 322.773438 50.144531 320.890625 Z M 50.144531 320.890625 " fill-opacity="1" fill-rule="nonzero"/></svg>